M48
; DRILL file {KiCad (6.0.7)} date Sun Aug 28 03:54:27 2022
; FORMAT={-:-/ absolute / metric / decimal}
; #@! TF.CreationDate,2022-08-28T03:54:27+08:00
; #@! TF.GenerationSoftware,Kicad,Pcbnew,(6.0.7)
; #@! TF.FileFunction,Plated,1,2,PTH
FMAT,2
METRIC
; #@! TA.AperFunction,Plated,PTH,ComponentDrill
T1C0.762
; #@! TA.AperFunction,Plated,PTH,ComponentDrill
T2C1.100
%
G90
G05
T1
X47.32Y-88.344
X47.32Y-94.344
X47.442Y-71.075
X47.442Y-111.715
X53.442Y-65.075
X53.442Y-117.715
X53.449Y-60.731
X53.449Y-122.631
X59.442Y-71.075
X59.442Y-111.715
X73.449Y-60.731
X73.449Y-122.631
X75.788Y-60.681
X75.788Y-66.681
X78.638Y-122.58
X78.74Y-72.619
X78.74Y-78.619
X78.74Y-81.77
X78.74Y-101.77
X81.788Y-60.681
X81.788Y-66.681
X84.638Y-116.58
X84.638Y-128.58
X84.74Y-72.619
X84.74Y-78.619
X87.178Y-116.535
X88.948Y-60.703
X88.948Y-66.703
X94.948Y-60.703
X94.948Y-66.703
X97.264Y-60.706
X107.178Y-116.535
X110.767Y-116.659
X110.767Y-128.659
X111.201Y-70.764
X111.735Y-112.085
X116.767Y-122.659
X117.201Y-64.764
X117.264Y-60.706
X117.735Y-118.085
X123.201Y-70.764
X123.342Y-88.288
X123.342Y-94.288
X123.735Y-112.085
T2
X92.098Y-128.626
X102.258Y-128.626
T0
M30
