%TF.GenerationSoftware,KiCad,Pcbnew,(6.0.7)*%
%TF.CreationDate,2022-08-28T03:54:24+08:00*%
%TF.ProjectId,6_1k,365f316b-2e6b-4696-9361-645f70636258,rev?*%
%TF.SameCoordinates,Original*%
%TF.FileFunction,Copper,L2,Bot*%
%TF.FilePolarity,Positive*%
%FSLAX46Y46*%
G04 Gerber Fmt 4.6, Leading zero omitted, Abs format (unit mm)*
G04 Created by KiCad (PCBNEW (6.0.7)) date 2022-08-28 03:54:24*
%MOMM*%
%LPD*%
G01*
G04 APERTURE LIST*
%TA.AperFunction,ComponentPad*%
%ADD10C,1.524000*%
%TD*%
%TA.AperFunction,ComponentPad*%
%ADD11R,2.200000X2.200000*%
%TD*%
%TA.AperFunction,ComponentPad*%
%ADD12O,2.200000X2.200000*%
%TD*%
G04 APERTURE END LIST*
D10*
%TO.P,E1,1,V+*%
%TO.N,Net-(E1-Pad1)*%
X47320200Y-88344000D03*
%TO.P,E1,2,V-*%
%TO.N,Net-(E1-Pad2)*%
X47320200Y-94344000D03*
%TD*%
%TO.P,Rl1,1,Com*%
%TO.N,Net-(R3-Pad2)*%
X78638400Y-122580400D03*
%TO.P,Rl1,2,NC*%
%TO.N,Net-(D1-Pad1)*%
X84638400Y-128580400D03*
%TO.P,Rl1,3,NO*%
%TO.N,Net-(R5-Pad1)*%
X84638400Y-116580400D03*
%TD*%
%TO.P,P3,4,4*%
%TO.N,unconnected-(P3-Pad4)*%
X84740000Y-72618600D03*
%TO.P,P3,3,3*%
%TO.N,Net-(P1-Pad3)*%
X78740000Y-72618600D03*
%TO.P,P3,2,2*%
%TO.N,Net-(P3-Pad1)*%
X84740000Y-78618600D03*
%TO.P,P3,1,1*%
X78740000Y-78618600D03*
%TD*%
%TO.P,E2,1,V+*%
%TO.N,Net-(E2-Pad1)*%
X123342400Y-88287600D03*
%TO.P,E2,2,V-*%
%TO.N,Net-(E2-Pad2)*%
X123342400Y-94287600D03*
%TD*%
%TO.P,R5,1*%
%TO.N,Net-(R5-Pad1)*%
X87177600Y-116535200D03*
%TO.P,R5,2*%
%TO.N,Net-(R5-Pad2)*%
X107177600Y-116535200D03*
%TD*%
%TO.P,P1,1,1*%
%TO.N,Net-(P1-Pad1)*%
X75788000Y-60680600D03*
%TO.P,P1,2,2*%
%TO.N,unconnected-(P1-Pad2)*%
X75788000Y-66680600D03*
%TO.P,P1,3,3*%
%TO.N,Net-(P1-Pad3)*%
X81788000Y-60680600D03*
%TO.P,P1,4,4*%
X81788000Y-66680600D03*
%TD*%
%TO.P,Rl5,1,Com*%
%TO.N,Net-(R2-Pad2)*%
X117201200Y-64764400D03*
%TO.P,Rl5,2,NO*%
%TO.N,Net-(Rl5-Pad2)*%
X111201200Y-70764400D03*
%TO.P,Rl5,3,NC*%
%TO.N,Net-(E2-Pad1)*%
X123201200Y-70764400D03*
%TD*%
%TO.P,R4,1*%
%TO.N,Net-(R4-Pad1)*%
X53449200Y-122631200D03*
%TO.P,R4,2*%
%TO.N,Net-(R3-Pad2)*%
X73449200Y-122631200D03*
%TD*%
%TO.P,Rl3,1,Com*%
%TO.N,Net-(R1-Pad1)*%
X53441600Y-65074800D03*
%TO.P,Rl3,2,NC*%
%TO.N,Net-(E1-Pad1)*%
X47441600Y-71074800D03*
%TO.P,Rl3,3,NO*%
%TO.N,Net-(Rl3-Pad3)*%
X59441600Y-71074800D03*
%TD*%
%TO.P,R1,1*%
%TO.N,Net-(R1-Pad1)*%
X53449200Y-60731400D03*
%TO.P,R1,2*%
%TO.N,Net-(P1-Pad1)*%
X73449200Y-60731400D03*
%TD*%
%TO.P,R2,1*%
%TO.N,Net-(P2-Pad1)*%
X97264200Y-60706000D03*
%TO.P,R2,2*%
%TO.N,Net-(R2-Pad2)*%
X117264200Y-60706000D03*
%TD*%
D11*
%TO.P,D1,1,K*%
%TO.N,Net-(D1-Pad1)*%
X92097600Y-128625600D03*
D12*
%TO.P,D1,2,A*%
%TO.N,Net-(D1-Pad2)*%
X102257600Y-128625600D03*
%TD*%
D10*
%TO.P,R3,1*%
%TO.N,Net-(P3-Pad1)*%
X78740000Y-81770200D03*
%TO.P,R3,2*%
%TO.N,Net-(R3-Pad2)*%
X78740000Y-101770200D03*
%TD*%
%TO.P,P2,4,4*%
%TO.N,Net-(P1-Pad3)*%
X88948000Y-66703200D03*
%TO.P,P2,3,3*%
X88948000Y-60703200D03*
%TO.P,P2,2,2*%
%TO.N,unconnected-(P2-Pad2)*%
X94948000Y-66703200D03*
%TO.P,P2,1,1*%
%TO.N,Net-(P2-Pad1)*%
X94948000Y-60703200D03*
%TD*%
%TO.P,Rl2,1,Com*%
%TO.N,Net-(Rl2-Pad1)*%
X116766600Y-122659400D03*
%TO.P,Rl2,2,NC*%
%TO.N,Net-(D1-Pad2)*%
X110766600Y-128659400D03*
%TO.P,Rl2,3,NO*%
%TO.N,Net-(R5-Pad2)*%
X110766600Y-116659400D03*
%TD*%
%TO.P,Rl6,1,Com*%
%TO.N,Net-(Rl2-Pad1)*%
X117734600Y-118084600D03*
%TO.P,Rl6,2,NO*%
%TO.N,Net-(Rl5-Pad2)*%
X111734600Y-112084600D03*
%TO.P,Rl6,3,NC*%
%TO.N,Net-(E2-Pad2)*%
X123734600Y-112084600D03*
%TD*%
%TO.P,Rl4,1,Com*%
%TO.N,Net-(R4-Pad1)*%
X53441600Y-117714800D03*
%TO.P,Rl4,2,NC*%
%TO.N,Net-(E1-Pad2)*%
X47441600Y-111714800D03*
%TO.P,Rl4,3,NO*%
%TO.N,Net-(Rl3-Pad3)*%
X59441600Y-111714800D03*
%TD*%
M02*
