%TF.GenerationSoftware,KiCad,Pcbnew,(6.0.7)*%
%TF.CreationDate,2022-08-28T03:54:24+08:00*%
%TF.ProjectId,6_1k,365f316b-2e6b-4696-9361-645f70636258,rev?*%
%TF.SameCoordinates,Original*%
%TF.FileFunction,Soldermask,Top*%
%TF.FilePolarity,Negative*%
%FSLAX46Y46*%
G04 Gerber Fmt 4.6, Leading zero omitted, Abs format (unit mm)*
G04 Created by KiCad (PCBNEW (6.0.7)) date 2022-08-28 03:54:24*
%MOMM*%
%LPD*%
G01*
G04 APERTURE LIST*
%ADD10C,1.524000*%
%ADD11R,2.200000X2.200000*%
%ADD12O,2.200000X2.200000*%
G04 APERTURE END LIST*
D10*
%TO.C,E1*%
X47320200Y-88344000D03*
X47320200Y-94344000D03*
%TD*%
%TO.C,Rl1*%
X78638400Y-122580400D03*
X84638400Y-128580400D03*
X84638400Y-116580400D03*
%TD*%
%TO.C,P3*%
X84740000Y-72618600D03*
X78740000Y-72618600D03*
X84740000Y-78618600D03*
X78740000Y-78618600D03*
%TD*%
%TO.C,E2*%
X123342400Y-88287600D03*
X123342400Y-94287600D03*
%TD*%
%TO.C,R5*%
X87177600Y-116535200D03*
X107177600Y-116535200D03*
%TD*%
%TO.C,P1*%
X75788000Y-60680600D03*
X75788000Y-66680600D03*
X81788000Y-60680600D03*
X81788000Y-66680600D03*
%TD*%
%TO.C,Rl5*%
X117201200Y-64764400D03*
X111201200Y-70764400D03*
X123201200Y-70764400D03*
%TD*%
%TO.C,R4*%
X53449200Y-122631200D03*
X73449200Y-122631200D03*
%TD*%
%TO.C,Rl3*%
X53441600Y-65074800D03*
X47441600Y-71074800D03*
X59441600Y-71074800D03*
%TD*%
%TO.C,R1*%
X53449200Y-60731400D03*
X73449200Y-60731400D03*
%TD*%
%TO.C,R2*%
X97264200Y-60706000D03*
X117264200Y-60706000D03*
%TD*%
D11*
%TO.C,D1*%
X92097600Y-128625600D03*
D12*
X102257600Y-128625600D03*
%TD*%
D10*
%TO.C,R3*%
X78740000Y-81770200D03*
X78740000Y-101770200D03*
%TD*%
%TO.C,P2*%
X88948000Y-66703200D03*
X88948000Y-60703200D03*
X94948000Y-66703200D03*
X94948000Y-60703200D03*
%TD*%
%TO.C,Rl2*%
X116766600Y-122659400D03*
X110766600Y-128659400D03*
X110766600Y-116659400D03*
%TD*%
%TO.C,Rl6*%
X117734600Y-118084600D03*
X111734600Y-112084600D03*
X123734600Y-112084600D03*
%TD*%
%TO.C,Rl4*%
X53441600Y-117714800D03*
X47441600Y-111714800D03*
X59441600Y-111714800D03*
%TD*%
M02*
