%TF.GenerationSoftware,KiCad,Pcbnew,(6.0.7)*%
%TF.CreationDate,2022-09-05T15:32:22+08:00*%
%TF.ProjectId,6_1_2,365f315f-322e-46b6-9963-61645f706362,rev?*%
%TF.SameCoordinates,Original*%
%TF.FileFunction,Drillmap*%
%TF.FilePolarity,Positive*%
%FSLAX45Y45*%
G04 Gerber Fmt 4.5, Leading zero omitted, Abs format (unit mm)*
G04 Created by KiCad (PCBNEW (6.0.7)) date 2022-09-05 15:32:22*
%MOMM*%
%LPD*%
G01*
G04 APERTURE LIST*
%ADD10C,0.200000*%
G04 APERTURE END LIST*
D10*
X3150000Y-3000000D02*
G75*
G03*
X3150000Y-3000000I-150000J0D01*
G01*
X2000000Y-2000000D02*
X12000000Y-2000000D01*
X12000000Y-2000000D02*
X12000000Y-12000000D01*
X12000000Y-12000000D02*
X2000000Y-12000000D01*
X2000000Y-12000000D02*
X2000000Y-2000000D01*
X3150000Y-11000000D02*
G75*
G03*
X3150000Y-11000000I-150000J0D01*
G01*
X11150000Y-3000000D02*
G75*
G03*
X11150000Y-3000000I-150000J0D01*
G01*
X11150000Y-11000000D02*
G75*
G03*
X11150000Y-11000000I-150000J0D01*
G01*
X2247619Y-12320476D02*
X2247619Y-12120476D01*
X2295238Y-12120476D01*
X2323810Y-12130000D01*
X2342857Y-12149048D01*
X2352381Y-12168095D01*
X2361905Y-12206190D01*
X2361905Y-12234762D01*
X2352381Y-12272857D01*
X2342857Y-12291905D01*
X2323810Y-12310952D01*
X2295238Y-12320476D01*
X2247619Y-12320476D01*
X2447619Y-12320476D02*
X2447619Y-12187143D01*
X2447619Y-12225238D02*
X2457143Y-12206190D01*
X2466667Y-12196667D01*
X2485714Y-12187143D01*
X2504762Y-12187143D01*
X2571429Y-12320476D02*
X2571429Y-12187143D01*
X2571429Y-12120476D02*
X2561905Y-12130000D01*
X2571429Y-12139524D01*
X2580952Y-12130000D01*
X2571429Y-12120476D01*
X2571429Y-12139524D01*
X2695238Y-12320476D02*
X2676190Y-12310952D01*
X2666667Y-12291905D01*
X2666667Y-12120476D01*
X2800000Y-12320476D02*
X2780952Y-12310952D01*
X2771429Y-12291905D01*
X2771429Y-12120476D01*
X3028571Y-12320476D02*
X3028571Y-12120476D01*
X3095238Y-12263333D01*
X3161905Y-12120476D01*
X3161905Y-12320476D01*
X3342857Y-12320476D02*
X3342857Y-12215714D01*
X3333333Y-12196667D01*
X3314286Y-12187143D01*
X3276190Y-12187143D01*
X3257143Y-12196667D01*
X3342857Y-12310952D02*
X3323809Y-12320476D01*
X3276190Y-12320476D01*
X3257143Y-12310952D01*
X3247619Y-12291905D01*
X3247619Y-12272857D01*
X3257143Y-12253809D01*
X3276190Y-12244286D01*
X3323809Y-12244286D01*
X3342857Y-12234762D01*
X3438095Y-12187143D02*
X3438095Y-12387143D01*
X3438095Y-12196667D02*
X3457143Y-12187143D01*
X3495238Y-12187143D01*
X3514286Y-12196667D01*
X3523809Y-12206190D01*
X3533333Y-12225238D01*
X3533333Y-12282381D01*
X3523809Y-12301428D01*
X3514286Y-12310952D01*
X3495238Y-12320476D01*
X3457143Y-12320476D01*
X3438095Y-12310952D01*
X3619048Y-12301428D02*
X3628571Y-12310952D01*
X3619048Y-12320476D01*
X3609524Y-12310952D01*
X3619048Y-12301428D01*
X3619048Y-12320476D01*
X3619048Y-12196667D02*
X3628571Y-12206190D01*
X3619048Y-12215714D01*
X3609524Y-12206190D01*
X3619048Y-12196667D01*
X3619048Y-12215714D01*
M02*
