%TF.GenerationSoftware,KiCad,Pcbnew,(6.0.7)*%
%TF.CreationDate,2022-09-05T15:32:18+08:00*%
%TF.ProjectId,6_1_2,365f315f-322e-46b6-9963-61645f706362,rev?*%
%TF.SameCoordinates,Original*%
%TF.FileFunction,Copper,L1,Top*%
%TF.FilePolarity,Positive*%
%FSLAX46Y46*%
G04 Gerber Fmt 4.6, Leading zero omitted, Abs format (unit mm)*
G04 Created by KiCad (PCBNEW (6.0.7)) date 2022-09-05 15:32:18*
%MOMM*%
%LPD*%
G01*
G04 APERTURE LIST*
%TA.AperFunction,ComponentPad*%
%ADD10C,1.524000*%
%TD*%
%TA.AperFunction,Conductor*%
%ADD11C,0.250000*%
%TD*%
G04 APERTURE END LIST*
D10*
%TO.P,MM,1,+*%
%TO.N,Net-(U1-Pad1)*%
X94208600Y-67358000D03*
%TO.P,MM,2,-*%
%TO.N,Net-(U1-Pad2)*%
X94208600Y-73358000D03*
%TD*%
%TO.P,R2,1*%
%TO.N,Net-(U1-Pad1)*%
X70510400Y-60815200D03*
%TO.P,R2,2*%
%TO.N,Net-(U1-Pad2)*%
X70510400Y-80815200D03*
%TD*%
%TO.P,ES,1,+*%
%TO.N,Net-(R1-Pad1)*%
X49631600Y-55394600D03*
%TO.P,ES,2,-*%
%TO.N,Net-(U1-Pad2)*%
X49631600Y-61394600D03*
%TD*%
%TO.P,R1,1*%
%TO.N,Net-(R1-Pad1)*%
X70535800Y-35643800D03*
%TO.P,R1,2*%
%TO.N,Net-(U1-Pad1)*%
X70535800Y-55643800D03*
%TD*%
D11*
%TO.N,Net-(R1-Pad1)*%
X52484000Y-35643800D02*
X70535800Y-35643800D01*
X49631600Y-55394600D02*
X49631600Y-38277800D01*
X49631600Y-38277800D02*
X52374800Y-35534600D01*
X52374800Y-35534600D02*
X52484000Y-35643800D01*
%TO.N,Net-(U1-Pad2)*%
X94208600Y-79629000D02*
X93022400Y-80815200D01*
X94208600Y-73358000D02*
X94208600Y-79629000D01*
X52621200Y-80815200D02*
X49631600Y-77825600D01*
X49631600Y-77825600D02*
X49631600Y-61394600D01*
X93022400Y-80815200D02*
X52621200Y-80815200D01*
%TO.N,Net-(U1-Pad1)*%
X70840600Y-58267600D02*
X70535800Y-58572400D01*
X70535800Y-60789800D02*
X70510400Y-60815200D01*
X92202000Y-58267600D02*
X70840600Y-58267600D01*
X94208600Y-67358000D02*
X94208600Y-60274200D01*
X70535800Y-55643800D02*
X70535800Y-58572400D01*
X94208600Y-60274200D02*
X92202000Y-58267600D01*
X70535800Y-58572400D02*
X70535800Y-60789800D01*
%TD*%
M02*
