%TF.GenerationSoftware,KiCad,Pcbnew,(6.0.7)*%
%TF.CreationDate,2022-09-05T14:44:38+08:00*%
%TF.ProjectId,6_1_3,365f315f-332e-46b6-9963-61645f706362,rev?*%
%TF.SameCoordinates,Original*%
%TF.FileFunction,Legend,Top*%
%TF.FilePolarity,Positive*%
%FSLAX46Y46*%
G04 Gerber Fmt 4.6, Leading zero omitted, Abs format (unit mm)*
G04 Created by KiCad (PCBNEW (6.0.7)) date 2022-09-05 14:44:38*
%MOMM*%
%LPD*%
G01*
G04 APERTURE LIST*
%ADD10C,0.300000*%
%ADD11C,0.150000*%
%ADD12C,0.120000*%
G04 APERTURE END LIST*
D10*
X47602457Y-87064504D02*
X46650076Y-87064504D01*
X46173885Y-87302600D01*
X45935790Y-87540695D01*
X45459600Y-88254980D01*
X45221504Y-89207361D01*
X45221504Y-91112123D01*
X45459600Y-91588314D01*
X45697695Y-91826409D01*
X46173885Y-92064504D01*
X47126266Y-92064504D01*
X47602457Y-91826409D01*
X47840552Y-91588314D01*
X48078647Y-91112123D01*
X48078647Y-89921647D01*
X47840552Y-89445457D01*
X47602457Y-89207361D01*
X47126266Y-88969266D01*
X46173885Y-88969266D01*
X45697695Y-89207361D01*
X45459600Y-89445457D01*
X45221504Y-89921647D01*
X50221504Y-91588314D02*
X50459599Y-91826409D01*
X50221504Y-92064504D01*
X49983409Y-91826409D01*
X50221504Y-91588314D01*
X50221504Y-92064504D01*
X55221504Y-92064504D02*
X52364361Y-92064504D01*
X53792933Y-92064504D02*
X53792933Y-87064504D01*
X53316742Y-87778790D01*
X52840552Y-88254980D01*
X52364361Y-88493076D01*
X57364361Y-91588314D02*
X57602457Y-91826409D01*
X57364361Y-92064504D01*
X57126266Y-91826409D01*
X57364361Y-91588314D01*
X57364361Y-92064504D01*
X59269123Y-87064504D02*
X62364361Y-87064504D01*
X60697695Y-88969266D01*
X61411980Y-88969266D01*
X61888171Y-89207361D01*
X62126266Y-89445457D01*
X62364361Y-89921647D01*
X62364361Y-91112123D01*
X62126266Y-91588314D01*
X61888171Y-91826409D01*
X61411980Y-92064504D01*
X59983409Y-92064504D01*
X59507219Y-91826409D01*
X59269123Y-91588314D01*
X67602457Y-87064504D02*
X73792933Y-87064504D01*
X69269123Y-88969266D02*
X72840552Y-88969266D01*
X69269123Y-89921647D02*
X72840552Y-89921647D01*
X69269123Y-90874028D02*
X72840552Y-90874028D01*
X68078647Y-91826409D02*
X73792933Y-91826409D01*
X68078647Y-88254980D02*
X68078647Y-92064504D01*
X69269123Y-88016885D02*
X69269123Y-90874028D01*
X70697695Y-86350219D02*
X70459600Y-88016885D01*
X69269123Y-88016885D02*
X72840552Y-88016885D01*
X72840552Y-90874028D01*
X74983409Y-88969266D02*
X80459600Y-88969266D01*
X74983409Y-90397838D02*
X80459600Y-90397838D01*
X77840552Y-92064504D02*
X80935790Y-92064504D01*
X74983409Y-87302600D02*
X74983409Y-90874028D01*
X77840552Y-86350219D02*
X77840552Y-92064504D01*
X74983409Y-87302600D02*
X80459600Y-87302600D01*
X80459600Y-90397838D01*
X81173885Y-90874028D02*
X80935790Y-92064504D01*
X82840552Y-86826409D02*
X88554838Y-86826409D01*
X83792933Y-88969266D02*
X88078647Y-88969266D01*
X83316742Y-91826409D02*
X88554838Y-91826409D01*
X85935790Y-87540695D02*
X85935790Y-91826409D01*
X87126266Y-89921647D02*
X87840552Y-90874028D01*
X82840552Y-86826409D02*
X82840552Y-89921647D01*
X82602457Y-92064504D01*
X91888171Y-86588314D02*
X95935790Y-86588314D01*
X92602457Y-88731171D02*
X95459600Y-88731171D01*
X92602457Y-89683552D02*
X95459600Y-89683552D01*
X93078647Y-92064504D02*
X94031028Y-92064504D01*
X92602457Y-87778790D02*
X92602457Y-89683552D01*
X94031028Y-86826409D02*
X93792933Y-87778790D01*
X94031028Y-89683552D02*
X94031028Y-92064504D01*
X92602457Y-87778790D02*
X95459600Y-87778790D01*
X95459600Y-89683552D01*
X94983409Y-90397838D02*
X95697695Y-91112123D01*
X92840552Y-90397838D02*
X92364361Y-91350219D01*
X90221504Y-86588314D02*
X91173885Y-87064504D01*
X89745314Y-88254980D02*
X90935790Y-88731171D01*
X90935790Y-89921647D02*
X89983409Y-92064504D01*
X91888171Y-86588314D02*
X91888171Y-89445457D01*
X91411980Y-91350219D01*
X57721504Y-96304980D02*
X57721504Y-98924028D01*
X57721504Y-96304980D02*
X62007219Y-96304980D01*
X62007219Y-98924028D01*
X57483409Y-96066885D02*
X56531028Y-96304980D01*
X58673885Y-94400219D02*
X57007219Y-96304980D01*
X58435790Y-95114504D02*
X60816742Y-95114504D01*
X59864361Y-96304980D01*
X60340552Y-99162123D02*
X62483409Y-100114504D01*
X59864361Y-97019266D02*
X59388171Y-98924028D01*
X58673885Y-99400219D01*
X57959600Y-99876409D01*
X56769123Y-100114504D01*
X64388171Y-95114504D02*
X67245314Y-95114504D01*
X63911980Y-96066885D02*
X70102457Y-96066885D01*
X63911980Y-97019266D02*
X67483409Y-97019266D01*
X64388171Y-98209742D02*
X67245314Y-98209742D01*
X65816742Y-94400219D02*
X65816742Y-96066885D01*
X66054838Y-97495457D02*
X66054838Y-100114504D01*
X68911980Y-94638314D02*
X69626266Y-95352600D01*
X68673885Y-98685933D02*
X67245314Y-100114504D01*
X68911980Y-99876409D02*
X69626266Y-100114504D01*
X69626266Y-96543076D02*
X68435790Y-99162123D01*
X65340552Y-96304980D02*
X64388171Y-98209742D01*
X70102457Y-98924028D02*
X69864361Y-100114504D01*
X68197695Y-94400219D02*
X68197695Y-96543076D01*
X68435790Y-99162123D01*
X66054838Y-99162123D02*
X64388171Y-99400219D01*
X66769123Y-99162123D02*
X65340552Y-99162123D01*
X67483409Y-99162123D02*
X66054838Y-99162123D01*
X71292933Y-97019266D02*
X76769123Y-97019266D01*
X71292933Y-98447838D02*
X76769123Y-98447838D01*
X74150076Y-100114504D02*
X77245314Y-100114504D01*
X71292933Y-95352600D02*
X71292933Y-98924028D01*
X74150076Y-94400219D02*
X74150076Y-100114504D01*
X71292933Y-95352600D02*
X76769123Y-95352600D01*
X76769123Y-98447838D01*
X77483409Y-98924028D02*
X77245314Y-100114504D01*
X80578647Y-95352600D02*
X84864361Y-95352600D01*
X80816742Y-97019266D02*
X84388171Y-97019266D01*
X83911980Y-100114504D02*
X84864361Y-100114504D01*
X82483409Y-97495457D02*
X82483409Y-99876409D01*
X84150076Y-97495457D02*
X84150076Y-100114504D01*
X84864361Y-99162123D02*
X84864361Y-100114504D01*
X83435790Y-96066885D02*
X84626266Y-97257361D01*
X79150076Y-94638314D02*
X80102457Y-95114504D01*
X78673885Y-96304980D02*
X79864361Y-96781171D01*
X79864361Y-97971647D02*
X78911980Y-100114504D01*
X82483409Y-94400219D02*
X82245314Y-95352600D01*
X81531028Y-96781171D01*
X81292933Y-97733552D02*
X80816742Y-99638314D01*
X80340552Y-100114504D01*
X86054838Y-97495457D02*
X88435790Y-97495457D01*
X86054838Y-99638314D02*
X88435790Y-99638314D01*
X90340552Y-100114504D02*
X91769123Y-100114504D01*
X86054838Y-95590695D02*
X86054838Y-100114504D01*
X86054838Y-95590695D02*
X88435790Y-95590695D01*
X88435790Y-99638314D01*
X89864361Y-97019266D02*
X91054838Y-98447838D01*
X87245314Y-94400219D02*
X86769123Y-95590695D01*
X90102457Y-94400219D02*
X88911980Y-96781171D01*
X89626266Y-95590695D02*
X92245314Y-95590695D01*
X92245314Y-97971647D01*
X91769123Y-100114504D01*
X98673885Y-100114504D02*
X99626266Y-100114504D01*
X95340552Y-94876409D02*
X95340552Y-98685933D01*
X95340552Y-94876409D02*
X97483409Y-94876409D01*
X97483409Y-98685933D01*
X98673885Y-95114504D02*
X98673885Y-98685933D01*
X99626266Y-94638314D02*
X99626266Y-100114504D01*
X96769123Y-99162123D02*
X97721504Y-100114504D01*
X96292933Y-99162123D02*
X95102457Y-100114504D01*
X93911980Y-94638314D02*
X94864361Y-95114504D01*
X93435790Y-96304980D02*
X94626266Y-96781171D01*
X94388171Y-98209742D02*
X93673885Y-100114504D01*
X96531028Y-95590695D02*
X96531028Y-97971647D01*
X96292933Y-99162123D01*
X102959600Y-95828790D02*
X107007219Y-95828790D01*
X103197695Y-97257361D02*
X104864361Y-97257361D01*
X100816742Y-96543076D02*
X102007219Y-96543076D01*
X102007219Y-99638314D01*
X103911980Y-97257361D02*
X103911980Y-99400219D01*
X101531028Y-94638314D02*
X102245314Y-95352600D01*
X106054838Y-94638314D02*
X106769123Y-95352600D01*
X102959600Y-99162123D02*
X101769123Y-99638314D01*
X104864361Y-99162123D02*
X102959600Y-99400219D01*
X107007219Y-99162123D02*
X106769123Y-100114504D01*
X106292933Y-100114504D01*
X105578647Y-94638314D02*
X105340552Y-96781171D01*
X105816742Y-99638314D01*
D11*
%TO.C,MM*%
X65154514Y-37475942D02*
X65154514Y-34475942D01*
X66154514Y-36618800D01*
X67154514Y-34475942D01*
X67154514Y-37475942D01*
X68583085Y-37475942D02*
X68583085Y-34475942D01*
X69583085Y-36618800D01*
X70583085Y-34475942D01*
X70583085Y-37475942D01*
%TO.C,Es1*%
X36064961Y-54665571D02*
X36398295Y-54665571D01*
X36541152Y-55189380D02*
X36064961Y-55189380D01*
X36064961Y-54189380D01*
X36541152Y-54189380D01*
X36922104Y-55141761D02*
X37017342Y-55189380D01*
X37207819Y-55189380D01*
X37303057Y-55141761D01*
X37350676Y-55046523D01*
X37350676Y-54998904D01*
X37303057Y-54903666D01*
X37207819Y-54856047D01*
X37064961Y-54856047D01*
X36969723Y-54808428D01*
X36922104Y-54713190D01*
X36922104Y-54665571D01*
X36969723Y-54570333D01*
X37064961Y-54522714D01*
X37207819Y-54522714D01*
X37303057Y-54570333D01*
X38303057Y-55189380D02*
X37731628Y-55189380D01*
X38017342Y-55189380D02*
X38017342Y-54189380D01*
X37922104Y-54332238D01*
X37826866Y-54427476D01*
X37731628Y-54475095D01*
X42176819Y-52436780D02*
X42510152Y-53436780D01*
X42843485Y-52436780D01*
X43176819Y-53055828D02*
X43938723Y-53055828D01*
X43557771Y-53436780D02*
X43557771Y-52674876D01*
X42430819Y-58532780D02*
X42764152Y-59532780D01*
X43097485Y-58532780D01*
X43430819Y-59151828D02*
X44192723Y-59151828D01*
%TO.C,R1*%
X95311933Y-56433980D02*
X94978600Y-55957790D01*
X94740504Y-56433980D02*
X94740504Y-55433980D01*
X95121457Y-55433980D01*
X95216695Y-55481600D01*
X95264314Y-55529219D01*
X95311933Y-55624457D01*
X95311933Y-55767314D01*
X95264314Y-55862552D01*
X95216695Y-55910171D01*
X95121457Y-55957790D01*
X94740504Y-55957790D01*
X96264314Y-56433980D02*
X95692885Y-56433980D01*
X95978600Y-56433980D02*
X95978600Y-55433980D01*
X95883361Y-55576838D01*
X95788123Y-55672076D01*
X95692885Y-55719695D01*
D12*
%TO.C,MM*%
X74021200Y-39217600D02*
G75*
G03*
X74021200Y-39217600I-6000000J0D01*
G01*
%TO.C,Es1*%
X51161200Y-56032400D02*
G75*
G03*
X51161200Y-56032400I-6000000J0D01*
G01*
%TO.C,R1*%
X98250000Y-49048400D02*
X92250000Y-49048400D01*
X92250000Y-49048400D02*
X92250000Y-65048400D01*
X92250000Y-65048400D02*
X98250000Y-65048400D01*
X98250000Y-65048400D02*
X98250000Y-49048400D01*
%TD*%
M02*
