%TF.GenerationSoftware,KiCad,Pcbnew,(6.0.7)*%
%TF.CreationDate,2022-09-05T14:44:41+08:00*%
%TF.ProjectId,6_1_3,365f315f-332e-46b6-9963-61645f706362,rev?*%
%TF.SameCoordinates,Original*%
%TF.FileFunction,Drillmap*%
%TF.FilePolarity,Positive*%
%FSLAX45Y45*%
G04 Gerber Fmt 4.5, Leading zero omitted, Abs format (unit mm)*
G04 Created by KiCad (PCBNEW (6.0.7)) date 2022-09-05 14:44:41*
%MOMM*%
%LPD*%
G01*
G04 APERTURE LIST*
%ADD10C,0.200000*%
%ADD11C,0.076200*%
G04 APERTURE END LIST*
D10*
X11150000Y-3000000D02*
G75*
G03*
X11150000Y-3000000I-150000J0D01*
G01*
X3150000Y-11000000D02*
G75*
G03*
X3150000Y-11000000I-150000J0D01*
G01*
X2000000Y-2000000D02*
X12000000Y-2000000D01*
X12000000Y-2000000D02*
X12000000Y-12000000D01*
X12000000Y-12000000D02*
X2000000Y-12000000D01*
X2000000Y-12000000D02*
X2000000Y-2000000D01*
X11150000Y-11000000D02*
G75*
G03*
X11150000Y-11000000I-150000J0D01*
G01*
X3150000Y-3000000D02*
G75*
G03*
X3150000Y-3000000I-150000J0D01*
G01*
D11*
X4478020Y-5265140D02*
X4554220Y-5341340D01*
X4554220Y-5265140D02*
X4478020Y-5341340D01*
X4478020Y-5865140D02*
X4554220Y-5941340D01*
X4554220Y-5865140D02*
X4478020Y-5941340D01*
X6464020Y-3883660D02*
X6540220Y-3959860D01*
X6540220Y-3883660D02*
X6464020Y-3959860D01*
X7064020Y-3883660D02*
X7140220Y-3959860D01*
X7140220Y-3883660D02*
X7064020Y-3959860D01*
X9486900Y-4666740D02*
X9563100Y-4742940D01*
X9563100Y-4666740D02*
X9486900Y-4742940D01*
X9486900Y-6666740D02*
X9563100Y-6742940D01*
X9563100Y-6666740D02*
X9486900Y-6742940D01*
D10*
X2247619Y-12320476D02*
X2247619Y-12120476D01*
X2295238Y-12120476D01*
X2323810Y-12130000D01*
X2342857Y-12149048D01*
X2352381Y-12168095D01*
X2361905Y-12206190D01*
X2361905Y-12234762D01*
X2352381Y-12272857D01*
X2342857Y-12291905D01*
X2323810Y-12310952D01*
X2295238Y-12320476D01*
X2247619Y-12320476D01*
X2447619Y-12320476D02*
X2447619Y-12187143D01*
X2447619Y-12225238D02*
X2457143Y-12206190D01*
X2466667Y-12196667D01*
X2485714Y-12187143D01*
X2504762Y-12187143D01*
X2571429Y-12320476D02*
X2571429Y-12187143D01*
X2571429Y-12120476D02*
X2561905Y-12130000D01*
X2571429Y-12139524D01*
X2580952Y-12130000D01*
X2571429Y-12120476D01*
X2571429Y-12139524D01*
X2695238Y-12320476D02*
X2676190Y-12310952D01*
X2666667Y-12291905D01*
X2666667Y-12120476D01*
X2800000Y-12320476D02*
X2780952Y-12310952D01*
X2771429Y-12291905D01*
X2771429Y-12120476D01*
X3028571Y-12320476D02*
X3028571Y-12120476D01*
X3095238Y-12263333D01*
X3161905Y-12120476D01*
X3161905Y-12320476D01*
X3342857Y-12320476D02*
X3342857Y-12215714D01*
X3333333Y-12196667D01*
X3314286Y-12187143D01*
X3276190Y-12187143D01*
X3257143Y-12196667D01*
X3342857Y-12310952D02*
X3323809Y-12320476D01*
X3276190Y-12320476D01*
X3257143Y-12310952D01*
X3247619Y-12291905D01*
X3247619Y-12272857D01*
X3257143Y-12253809D01*
X3276190Y-12244286D01*
X3323809Y-12244286D01*
X3342857Y-12234762D01*
X3438095Y-12187143D02*
X3438095Y-12387143D01*
X3438095Y-12196667D02*
X3457143Y-12187143D01*
X3495238Y-12187143D01*
X3514286Y-12196667D01*
X3523809Y-12206190D01*
X3533333Y-12225238D01*
X3533333Y-12282381D01*
X3523809Y-12301428D01*
X3514286Y-12310952D01*
X3495238Y-12320476D01*
X3457143Y-12320476D01*
X3438095Y-12310952D01*
X3619048Y-12301428D02*
X3628571Y-12310952D01*
X3619048Y-12320476D01*
X3609524Y-12310952D01*
X3619048Y-12301428D01*
X3619048Y-12320476D01*
X3619048Y-12196667D02*
X3628571Y-12206190D01*
X3619048Y-12215714D01*
X3609524Y-12206190D01*
X3619048Y-12196667D01*
X3619048Y-12215714D01*
D11*
X1913800Y-12611900D02*
X1990000Y-12688100D01*
X1990000Y-12611900D02*
X1913800Y-12688100D01*
D10*
X2285714Y-12540476D02*
X2304762Y-12540476D01*
X2323810Y-12550000D01*
X2333333Y-12559524D01*
X2342857Y-12578571D01*
X2352381Y-12616667D01*
X2352381Y-12664286D01*
X2342857Y-12702381D01*
X2333333Y-12721428D01*
X2323810Y-12730952D01*
X2304762Y-12740476D01*
X2285714Y-12740476D01*
X2266667Y-12730952D01*
X2257143Y-12721428D01*
X2247619Y-12702381D01*
X2238095Y-12664286D01*
X2238095Y-12616667D01*
X2247619Y-12578571D01*
X2257143Y-12559524D01*
X2266667Y-12550000D01*
X2285714Y-12540476D01*
X2438095Y-12721428D02*
X2447619Y-12730952D01*
X2438095Y-12740476D01*
X2428571Y-12730952D01*
X2438095Y-12721428D01*
X2438095Y-12740476D01*
X2514286Y-12540476D02*
X2647619Y-12540476D01*
X2561905Y-12740476D01*
X2809524Y-12540476D02*
X2771429Y-12540476D01*
X2752381Y-12550000D01*
X2742857Y-12559524D01*
X2723810Y-12588095D01*
X2714286Y-12626190D01*
X2714286Y-12702381D01*
X2723810Y-12721428D01*
X2733333Y-12730952D01*
X2752381Y-12740476D01*
X2790476Y-12740476D01*
X2809524Y-12730952D01*
X2819048Y-12721428D01*
X2828571Y-12702381D01*
X2828571Y-12654762D01*
X2819048Y-12635714D01*
X2809524Y-12626190D01*
X2790476Y-12616667D01*
X2752381Y-12616667D01*
X2733333Y-12626190D01*
X2723810Y-12635714D01*
X2714286Y-12654762D01*
X2904762Y-12559524D02*
X2914286Y-12550000D01*
X2933333Y-12540476D01*
X2980952Y-12540476D01*
X3000000Y-12550000D01*
X3009524Y-12559524D01*
X3019048Y-12578571D01*
X3019048Y-12597619D01*
X3009524Y-12626190D01*
X2895238Y-12740476D01*
X3019048Y-12740476D01*
X3104762Y-12740476D02*
X3104762Y-12607143D01*
X3104762Y-12626190D02*
X3114286Y-12616667D01*
X3133333Y-12607143D01*
X3161905Y-12607143D01*
X3180952Y-12616667D01*
X3190476Y-12635714D01*
X3190476Y-12740476D01*
X3190476Y-12635714D02*
X3200000Y-12616667D01*
X3219048Y-12607143D01*
X3247619Y-12607143D01*
X3266667Y-12616667D01*
X3276190Y-12635714D01*
X3276190Y-12740476D01*
X3371428Y-12740476D02*
X3371428Y-12607143D01*
X3371428Y-12626190D02*
X3380952Y-12616667D01*
X3400000Y-12607143D01*
X3428571Y-12607143D01*
X3447619Y-12616667D01*
X3457143Y-12635714D01*
X3457143Y-12740476D01*
X3457143Y-12635714D02*
X3466667Y-12616667D01*
X3485714Y-12607143D01*
X3514286Y-12607143D01*
X3533333Y-12616667D01*
X3542857Y-12635714D01*
X3542857Y-12740476D01*
X3933333Y-12530952D02*
X3761905Y-12788095D01*
X4190476Y-12540476D02*
X4209524Y-12540476D01*
X4228571Y-12550000D01*
X4238095Y-12559524D01*
X4247619Y-12578571D01*
X4257143Y-12616667D01*
X4257143Y-12664286D01*
X4247619Y-12702381D01*
X4238095Y-12721428D01*
X4228571Y-12730952D01*
X4209524Y-12740476D01*
X4190476Y-12740476D01*
X4171428Y-12730952D01*
X4161905Y-12721428D01*
X4152381Y-12702381D01*
X4142857Y-12664286D01*
X4142857Y-12616667D01*
X4152381Y-12578571D01*
X4161905Y-12559524D01*
X4171428Y-12550000D01*
X4190476Y-12540476D01*
X4342857Y-12721428D02*
X4352381Y-12730952D01*
X4342857Y-12740476D01*
X4333333Y-12730952D01*
X4342857Y-12721428D01*
X4342857Y-12740476D01*
X4476190Y-12540476D02*
X4495238Y-12540476D01*
X4514286Y-12550000D01*
X4523810Y-12559524D01*
X4533333Y-12578571D01*
X4542857Y-12616667D01*
X4542857Y-12664286D01*
X4533333Y-12702381D01*
X4523810Y-12721428D01*
X4514286Y-12730952D01*
X4495238Y-12740476D01*
X4476190Y-12740476D01*
X4457143Y-12730952D01*
X4447619Y-12721428D01*
X4438095Y-12702381D01*
X4428571Y-12664286D01*
X4428571Y-12616667D01*
X4438095Y-12578571D01*
X4447619Y-12559524D01*
X4457143Y-12550000D01*
X4476190Y-12540476D01*
X4609524Y-12540476D02*
X4733333Y-12540476D01*
X4666667Y-12616667D01*
X4695238Y-12616667D01*
X4714286Y-12626190D01*
X4723810Y-12635714D01*
X4733333Y-12654762D01*
X4733333Y-12702381D01*
X4723810Y-12721428D01*
X4714286Y-12730952D01*
X4695238Y-12740476D01*
X4638095Y-12740476D01*
X4619048Y-12730952D01*
X4609524Y-12721428D01*
X4857143Y-12540476D02*
X4876190Y-12540476D01*
X4895238Y-12550000D01*
X4904762Y-12559524D01*
X4914286Y-12578571D01*
X4923810Y-12616667D01*
X4923810Y-12664286D01*
X4914286Y-12702381D01*
X4904762Y-12721428D01*
X4895238Y-12730952D01*
X4876190Y-12740476D01*
X4857143Y-12740476D01*
X4838095Y-12730952D01*
X4828571Y-12721428D01*
X4819048Y-12702381D01*
X4809524Y-12664286D01*
X4809524Y-12616667D01*
X4819048Y-12578571D01*
X4828571Y-12559524D01*
X4838095Y-12550000D01*
X4857143Y-12540476D01*
X5047619Y-12540476D02*
X5066667Y-12540476D01*
X5085714Y-12550000D01*
X5095238Y-12559524D01*
X5104762Y-12578571D01*
X5114286Y-12616667D01*
X5114286Y-12664286D01*
X5104762Y-12702381D01*
X5095238Y-12721428D01*
X5085714Y-12730952D01*
X5066667Y-12740476D01*
X5047619Y-12740476D01*
X5028571Y-12730952D01*
X5019048Y-12721428D01*
X5009524Y-12702381D01*
X5000000Y-12664286D01*
X5000000Y-12616667D01*
X5009524Y-12578571D01*
X5019048Y-12559524D01*
X5028571Y-12550000D01*
X5047619Y-12540476D01*
X5190476Y-12540476D02*
X5190476Y-12578571D01*
X5266667Y-12540476D02*
X5266667Y-12578571D01*
X5561905Y-12816667D02*
X5552381Y-12807143D01*
X5533333Y-12778571D01*
X5523810Y-12759524D01*
X5514286Y-12730952D01*
X5504762Y-12683333D01*
X5504762Y-12645238D01*
X5514286Y-12597619D01*
X5523810Y-12569048D01*
X5533333Y-12550000D01*
X5552381Y-12521428D01*
X5561905Y-12511905D01*
X5723809Y-12540476D02*
X5685714Y-12540476D01*
X5666667Y-12550000D01*
X5657143Y-12559524D01*
X5638095Y-12588095D01*
X5628571Y-12626190D01*
X5628571Y-12702381D01*
X5638095Y-12721428D01*
X5647619Y-12730952D01*
X5666667Y-12740476D01*
X5704762Y-12740476D01*
X5723809Y-12730952D01*
X5733333Y-12721428D01*
X5742857Y-12702381D01*
X5742857Y-12654762D01*
X5733333Y-12635714D01*
X5723809Y-12626190D01*
X5704762Y-12616667D01*
X5666667Y-12616667D01*
X5647619Y-12626190D01*
X5638095Y-12635714D01*
X5628571Y-12654762D01*
X5980952Y-12740476D02*
X5980952Y-12540476D01*
X6066667Y-12740476D02*
X6066667Y-12635714D01*
X6057143Y-12616667D01*
X6038095Y-12607143D01*
X6009524Y-12607143D01*
X5990476Y-12616667D01*
X5980952Y-12626190D01*
X6190476Y-12740476D02*
X6171428Y-12730952D01*
X6161905Y-12721428D01*
X6152381Y-12702381D01*
X6152381Y-12645238D01*
X6161905Y-12626190D01*
X6171428Y-12616667D01*
X6190476Y-12607143D01*
X6219048Y-12607143D01*
X6238095Y-12616667D01*
X6247619Y-12626190D01*
X6257143Y-12645238D01*
X6257143Y-12702381D01*
X6247619Y-12721428D01*
X6238095Y-12730952D01*
X6219048Y-12740476D01*
X6190476Y-12740476D01*
X6371428Y-12740476D02*
X6352381Y-12730952D01*
X6342857Y-12711905D01*
X6342857Y-12540476D01*
X6523809Y-12730952D02*
X6504762Y-12740476D01*
X6466667Y-12740476D01*
X6447619Y-12730952D01*
X6438095Y-12711905D01*
X6438095Y-12635714D01*
X6447619Y-12616667D01*
X6466667Y-12607143D01*
X6504762Y-12607143D01*
X6523809Y-12616667D01*
X6533333Y-12635714D01*
X6533333Y-12654762D01*
X6438095Y-12673809D01*
X6609524Y-12730952D02*
X6628571Y-12740476D01*
X6666667Y-12740476D01*
X6685714Y-12730952D01*
X6695238Y-12711905D01*
X6695238Y-12702381D01*
X6685714Y-12683333D01*
X6666667Y-12673809D01*
X6638095Y-12673809D01*
X6619048Y-12664286D01*
X6609524Y-12645238D01*
X6609524Y-12635714D01*
X6619048Y-12616667D01*
X6638095Y-12607143D01*
X6666667Y-12607143D01*
X6685714Y-12616667D01*
X6761905Y-12816667D02*
X6771428Y-12807143D01*
X6790476Y-12778571D01*
X6800000Y-12759524D01*
X6809524Y-12730952D01*
X6819048Y-12683333D01*
X6819048Y-12645238D01*
X6809524Y-12597619D01*
X6800000Y-12569048D01*
X6790476Y-12550000D01*
X6771428Y-12521428D01*
X6761905Y-12511905D01*
M02*
