M48
; DRILL file {KiCad (6.0.7)} date Sun Sep  4 22:45:57 2022
; FORMAT={-:-/ absolute / metric / decimal}
; #@! TF.CreationDate,2022-09-04T22:45:57+08:00
; #@! TF.GenerationSoftware,Kicad,Pcbnew,(6.0.7)
; #@! TF.FileFunction,Plated,1,2,PTH
FMAT,2
METRIC
; #@! TA.AperFunction,Plated,PTH,ComponentDrill
T1C0.762
%
G90
G05
T1
X20.67Y-68.58
X20.67Y-95.6
X26.67Y-62.58
X26.67Y-101.6
X30.048Y-26.416
X30.048Y-51.816
X32.67Y-68.58
X32.67Y-95.6
X33.02Y-72.09
X33.02Y-92.09
X37.18Y-68.58
X37.18Y-95.14
X38.91Y-21.59
X43.18Y-62.58
X43.18Y-101.14
X44.91Y-21.59
X46.99Y-29.37
X46.99Y-49.37
X49.18Y-68.58
X49.18Y-95.14
X49.53Y-72.09
X49.53Y-92.09
X49.88Y-26.32
X49.88Y-52.88
X53.69Y-68.58
X53.69Y-95.6
X55.88Y-20.32
X55.88Y-58.88
X59.69Y-62.58
X59.69Y-101.6
X61.88Y-26.32
X61.88Y-52.88
X62.23Y-29.37
X62.23Y-49.37
X65.69Y-68.58
X65.69Y-95.6
X66.04Y-72.09
X66.04Y-92.09
X67.66Y-25.86
X67.66Y-52.42
X70.2Y-68.58
X70.2Y-95.6
X73.66Y-19.86
X73.66Y-58.42
X76.2Y-62.58
X76.2Y-101.6
X79.66Y-25.86
X79.66Y-52.42
X80.01Y-29.37
X80.01Y-49.37
X82.2Y-68.58
X82.2Y-95.6
X82.55Y-72.09
X82.55Y-92.09
X84.17Y-25.86
X84.17Y-52.07
X86.71Y-68.58
X86.71Y-95.6
X90.17Y-19.86
X90.17Y-58.07
X92.71Y-62.58
X92.71Y-101.6
X96.17Y-25.86
X96.17Y-52.07
X96.52Y-29.37
X96.52Y-49.37
X98.71Y-68.58
X98.71Y-95.6
X99.06Y-72.09
X99.06Y-92.09
T0
M30
