%TF.GenerationSoftware,KiCad,Pcbnew,(6.0.7)*%
%TF.CreationDate,2022-09-04T22:45:54+08:00*%
%TF.ProjectId,6_6_2,365f365f-322e-46b6-9963-61645f706362,rev?*%
%TF.SameCoordinates,Original*%
%TF.FileFunction,Copper,L2,Bot*%
%TF.FilePolarity,Positive*%
%FSLAX46Y46*%
G04 Gerber Fmt 4.6, Leading zero omitted, Abs format (unit mm)*
G04 Created by KiCad (PCBNEW (6.0.7)) date 2022-09-04 22:45:54*
%MOMM*%
%LPD*%
G01*
G04 APERTURE LIST*
%TA.AperFunction,ComponentPad*%
%ADD10C,1.524000*%
%TD*%
G04 APERTURE END LIST*
D10*
%TO.P,U17,3,NO*%
%TO.N,Net-(U17-Pad3)*%
X82200000Y-95600000D03*
%TO.P,U17,2,NC*%
%TO.N,unconnected-(U17-Pad2)*%
X70200000Y-95600000D03*
%TO.P,U17,1,Com*%
%TO.N,Net-(A1-Pad2)*%
X76200000Y-101600000D03*
%TD*%
%TO.P,U16,3,NO*%
%TO.N,Net-(U16-Pad3)*%
X82200000Y-68580000D03*
%TO.P,U16,2,NC*%
%TO.N,unconnected-(U16-Pad2)*%
X70200000Y-68580000D03*
%TO.P,U16,1,Com*%
%TO.N,Net-(U6-Pad1)*%
X76200000Y-62580000D03*
%TD*%
%TO.P,U15,3,NO*%
%TO.N,Net-(U15-Pad3)*%
X98710000Y-95600000D03*
%TO.P,U15,2,NC*%
%TO.N,unconnected-(U15-Pad2)*%
X86710000Y-95600000D03*
%TO.P,U15,1,Com*%
%TO.N,Net-(A1-Pad2)*%
X92710000Y-101600000D03*
%TD*%
%TO.P,U14,3,NO*%
%TO.N,Net-(U14-Pad3)*%
X98710000Y-68580000D03*
%TO.P,U14,2,NC*%
%TO.N,unconnected-(U14-Pad2)*%
X86710000Y-68580000D03*
%TO.P,U14,1,Com*%
%TO.N,Net-(U6-Pad1)*%
X92710000Y-62580000D03*
%TD*%
%TO.P,U13,3,NO*%
%TO.N,Net-(U13-Pad3)*%
X49180000Y-95140000D03*
%TO.P,U13,2,NC*%
%TO.N,unconnected-(U13-Pad2)*%
X37180000Y-95140000D03*
%TO.P,U13,1,Com*%
%TO.N,Net-(A1-Pad2)*%
X43180000Y-101140000D03*
%TD*%
%TO.P,U12,3,NO*%
%TO.N,Net-(U12-Pad3)*%
X49180000Y-68580000D03*
%TO.P,U12,2,NC*%
%TO.N,unconnected-(U12-Pad2)*%
X37180000Y-68580000D03*
%TO.P,U12,1,Com*%
%TO.N,Net-(U6-Pad1)*%
X43180000Y-62580000D03*
%TD*%
%TO.P,U11,3,NO*%
%TO.N,Net-(R6-Pad2)*%
X65690000Y-95600000D03*
%TO.P,U11,2,NC*%
%TO.N,unconnected-(U11-Pad2)*%
X53690000Y-95600000D03*
%TO.P,U11,1,Com*%
%TO.N,Net-(A1-Pad2)*%
X59690000Y-101600000D03*
%TD*%
%TO.P,U10,3,NO*%
%TO.N,Net-(U10-Pad3)*%
X65690000Y-68580000D03*
%TO.P,U10,2,NC*%
%TO.N,unconnected-(U10-Pad2)*%
X53690000Y-68580000D03*
%TO.P,U10,1,Com*%
%TO.N,Net-(U6-Pad1)*%
X59690000Y-62580000D03*
%TD*%
%TO.P,U9,3,NO*%
%TO.N,Net-(U9-Pad3)*%
X32670000Y-95600000D03*
%TO.P,U9,2,NC*%
%TO.N,unconnected-(U9-Pad2)*%
X20670000Y-95600000D03*
%TO.P,U9,1,Com*%
%TO.N,Net-(A1-Pad2)*%
X26670000Y-101600000D03*
%TD*%
%TO.P,U8,3,NO*%
%TO.N,Net-(U8-Pad3)*%
X32670000Y-68580000D03*
%TO.P,U8,2,NC*%
%TO.N,unconnected-(U8-Pad2)*%
X20670000Y-68580000D03*
%TO.P,U8,1,Com*%
%TO.N,Net-(U6-Pad1)*%
X26670000Y-62580000D03*
%TD*%
%TO.P,U7,1,Com*%
%TO.N,Net-(A1-Pad2)*%
X90170000Y-58070000D03*
%TO.P,U7,2,NC*%
%TO.N,unconnected-(U7-Pad2)*%
X84170000Y-52070000D03*
%TO.P,U7,3,NO*%
%TO.N,Net-(U7-Pad3)*%
X96170000Y-52070000D03*
%TD*%
%TO.P,U6,1,Com*%
%TO.N,Net-(U6-Pad1)*%
X90170000Y-19860000D03*
%TO.P,U6,2,NC*%
%TO.N,unconnected-(U6-Pad2)*%
X84170000Y-25860000D03*
%TO.P,U6,3,NO*%
%TO.N,Net-(U6-Pad3)*%
X96170000Y-25860000D03*
%TD*%
%TO.P,U5,1,Com*%
%TO.N,Net-(A1-Pad2)*%
X73660000Y-58420000D03*
%TO.P,U5,2,NC*%
%TO.N,unconnected-(U5-Pad2)*%
X67660000Y-52420000D03*
%TO.P,U5,3,NO*%
%TO.N,Net-(R3-Pad2)*%
X79660000Y-52420000D03*
%TD*%
%TO.P,U4,1,Com*%
%TO.N,Net-(U6-Pad1)*%
X73660000Y-19860000D03*
%TO.P,U4,2,NC*%
%TO.N,unconnected-(U4-Pad2)*%
X67660000Y-25860000D03*
%TO.P,U4,3,NO*%
%TO.N,Net-(R3-Pad1)*%
X79660000Y-25860000D03*
%TD*%
%TO.P,U3,1,Com*%
%TO.N,Net-(A1-Pad2)*%
X55880000Y-58880000D03*
%TO.P,U3,2,NC*%
%TO.N,unconnected-(U3-Pad2)*%
X49880000Y-52880000D03*
%TO.P,U3,3,NO*%
%TO.N,Net-(U3-Pad3)*%
X61880000Y-52880000D03*
%TD*%
%TO.P,U2,1,Com*%
%TO.N,Net-(U6-Pad1)*%
X55880000Y-20320000D03*
%TO.P,U2,2,NC*%
%TO.N,unconnected-(U2-Pad2)*%
X49880000Y-26320000D03*
%TO.P,U2,3,NO*%
%TO.N,Net-(U2-Pad3)*%
X61880000Y-26320000D03*
%TD*%
%TO.P,U1,1,+*%
%TO.N,Net-(U1-Pad1)*%
X38910000Y-21590000D03*
%TO.P,U1,2,-*%
%TO.N,Net-(U6-Pad1)*%
X44910000Y-21590000D03*
%TD*%
%TO.P,R9,2*%
%TO.N,Net-(U17-Pad3)*%
X82550000Y-92090000D03*
%TO.P,R9,1*%
%TO.N,Net-(U16-Pad3)*%
X82550000Y-72090000D03*
%TD*%
%TO.P,R8,2*%
%TO.N,Net-(U15-Pad3)*%
X99060000Y-92090000D03*
%TO.P,R8,1*%
%TO.N,Net-(U14-Pad3)*%
X99060000Y-72090000D03*
%TD*%
%TO.P,R7,2*%
%TO.N,Net-(U13-Pad3)*%
X49530000Y-92090000D03*
%TO.P,R7,1*%
%TO.N,Net-(U12-Pad3)*%
X49530000Y-72090000D03*
%TD*%
%TO.P,R6,2*%
%TO.N,Net-(R6-Pad2)*%
X66040000Y-92090000D03*
%TO.P,R6,1*%
%TO.N,Net-(U10-Pad3)*%
X66040000Y-72090000D03*
%TD*%
%TO.P,R5,2*%
%TO.N,Net-(U9-Pad3)*%
X33020000Y-92090000D03*
%TO.P,R5,1*%
%TO.N,Net-(U8-Pad3)*%
X33020000Y-72090000D03*
%TD*%
%TO.P,R4,2*%
%TO.N,Net-(U7-Pad3)*%
X96520000Y-49370000D03*
%TO.P,R4,1*%
%TO.N,Net-(U6-Pad3)*%
X96520000Y-29370000D03*
%TD*%
%TO.P,R3,1*%
%TO.N,Net-(R3-Pad1)*%
X80010000Y-29370000D03*
%TO.P,R3,2*%
%TO.N,Net-(R3-Pad2)*%
X80010000Y-49370000D03*
%TD*%
%TO.P,R2,1*%
%TO.N,Net-(U2-Pad3)*%
X62230000Y-29370000D03*
%TO.P,R2,2*%
%TO.N,Net-(U3-Pad3)*%
X62230000Y-49370000D03*
%TD*%
%TO.P,R1,2*%
%TO.N,Net-(A1-Pad2)*%
X46990000Y-49370000D03*
%TO.P,R1,1*%
%TO.N,Net-(U1-Pad1)*%
X46990000Y-29370000D03*
%TD*%
%TO.P,A1,1,+*%
%TO.N,Net-(U1-Pad1)*%
X30048200Y-26416000D03*
%TO.P,A1,2,-*%
%TO.N,Net-(A1-Pad2)*%
X30048200Y-51816000D03*
%TD*%
M02*
