%TF.GenerationSoftware,KiCad,Pcbnew,(6.0.7)*%
%TF.CreationDate,2022-09-04T22:45:58+08:00*%
%TF.ProjectId,6_6_2,365f365f-322e-46b6-9963-61645f706362,rev?*%
%TF.SameCoordinates,Original*%
%TF.FileFunction,Drillmap*%
%TF.FilePolarity,Positive*%
%FSLAX45Y45*%
G04 Gerber Fmt 4.5, Leading zero omitted, Abs format (unit mm)*
G04 Created by KiCad (PCBNEW (6.0.7)) date 2022-09-04 22:45:58*
%MOMM*%
%LPD*%
G01*
G04 APERTURE LIST*
%ADD10C,0.200000*%
G04 APERTURE END LIST*
D10*
X10350000Y-2200000D02*
G75*
G03*
X10350000Y-2200000I-150000J0D01*
G01*
X10350000Y-10200000D02*
G75*
G03*
X10350000Y-10200000I-150000J0D01*
G01*
X2350000Y-10200000D02*
G75*
G03*
X2350000Y-10200000I-150000J0D01*
G01*
X2350000Y-2200000D02*
G75*
G03*
X2350000Y-2200000I-150000J0D01*
G01*
X1200000Y-1200000D02*
X11200000Y-1200000D01*
X11200000Y-1200000D02*
X11200000Y-11200000D01*
X11200000Y-11200000D02*
X1200000Y-11200000D01*
X1200000Y-11200000D02*
X1200000Y-1200000D01*
X1447619Y-11520476D02*
X1447619Y-11320476D01*
X1495238Y-11320476D01*
X1523809Y-11330000D01*
X1542857Y-11349048D01*
X1552381Y-11368095D01*
X1561905Y-11406190D01*
X1561905Y-11434762D01*
X1552381Y-11472857D01*
X1542857Y-11491905D01*
X1523809Y-11510952D01*
X1495238Y-11520476D01*
X1447619Y-11520476D01*
X1647619Y-11520476D02*
X1647619Y-11387143D01*
X1647619Y-11425238D02*
X1657143Y-11406190D01*
X1666667Y-11396667D01*
X1685714Y-11387143D01*
X1704762Y-11387143D01*
X1771428Y-11520476D02*
X1771428Y-11387143D01*
X1771428Y-11320476D02*
X1761905Y-11330000D01*
X1771428Y-11339524D01*
X1780952Y-11330000D01*
X1771428Y-11320476D01*
X1771428Y-11339524D01*
X1895238Y-11520476D02*
X1876190Y-11510952D01*
X1866667Y-11491905D01*
X1866667Y-11320476D01*
X2000000Y-11520476D02*
X1980952Y-11510952D01*
X1971428Y-11491905D01*
X1971428Y-11320476D01*
X2228571Y-11520476D02*
X2228571Y-11320476D01*
X2295238Y-11463333D01*
X2361905Y-11320476D01*
X2361905Y-11520476D01*
X2542857Y-11520476D02*
X2542857Y-11415714D01*
X2533333Y-11396667D01*
X2514286Y-11387143D01*
X2476190Y-11387143D01*
X2457143Y-11396667D01*
X2542857Y-11510952D02*
X2523810Y-11520476D01*
X2476190Y-11520476D01*
X2457143Y-11510952D01*
X2447619Y-11491905D01*
X2447619Y-11472857D01*
X2457143Y-11453809D01*
X2476190Y-11444286D01*
X2523810Y-11444286D01*
X2542857Y-11434762D01*
X2638095Y-11387143D02*
X2638095Y-11587143D01*
X2638095Y-11396667D02*
X2657143Y-11387143D01*
X2695238Y-11387143D01*
X2714286Y-11396667D01*
X2723810Y-11406190D01*
X2733333Y-11425238D01*
X2733333Y-11482381D01*
X2723810Y-11501428D01*
X2714286Y-11510952D01*
X2695238Y-11520476D01*
X2657143Y-11520476D01*
X2638095Y-11510952D01*
X2819048Y-11501428D02*
X2828571Y-11510952D01*
X2819048Y-11520476D01*
X2809524Y-11510952D01*
X2819048Y-11501428D01*
X2819048Y-11520476D01*
X2819048Y-11396667D02*
X2828571Y-11406190D01*
X2819048Y-11415714D01*
X2809524Y-11406190D01*
X2819048Y-11396667D01*
X2819048Y-11415714D01*
M02*
