%TF.GenerationSoftware,KiCad,Pcbnew,(6.0.7)*%
%TF.CreationDate,2022-09-04T22:45:58+08:00*%
%TF.ProjectId,6_6_2,365f365f-322e-46b6-9963-61645f706362,rev?*%
%TF.SameCoordinates,Original*%
%TF.FileFunction,Drillmap*%
%TF.FilePolarity,Positive*%
%FSLAX45Y45*%
G04 Gerber Fmt 4.5, Leading zero omitted, Abs format (unit mm)*
G04 Created by KiCad (PCBNEW (6.0.7)) date 2022-09-04 22:45:58*
%MOMM*%
%LPD*%
G01*
G04 APERTURE LIST*
%ADD10C,0.200000*%
%ADD11C,0.076200*%
G04 APERTURE END LIST*
D10*
X10350000Y-2200000D02*
G75*
G03*
X10350000Y-2200000I-150000J0D01*
G01*
X10350000Y-10200000D02*
G75*
G03*
X10350000Y-10200000I-150000J0D01*
G01*
X2350000Y-10200000D02*
G75*
G03*
X2350000Y-10200000I-150000J0D01*
G01*
X2350000Y-2200000D02*
G75*
G03*
X2350000Y-2200000I-150000J0D01*
G01*
X1200000Y-1200000D02*
X11200000Y-1200000D01*
X11200000Y-1200000D02*
X11200000Y-11200000D01*
X11200000Y-11200000D02*
X1200000Y-11200000D01*
X1200000Y-11200000D02*
X1200000Y-1200000D01*
D11*
X2028900Y-6819900D02*
X2105100Y-6896100D01*
X2105100Y-6819900D02*
X2028900Y-6896100D01*
X2028900Y-9521900D02*
X2105100Y-9598100D01*
X2105100Y-9521900D02*
X2028900Y-9598100D01*
X2628900Y-6219900D02*
X2705100Y-6296100D01*
X2705100Y-6219900D02*
X2628900Y-6296100D01*
X2628900Y-10121900D02*
X2705100Y-10198100D01*
X2705100Y-10121900D02*
X2628900Y-10198100D01*
X2966720Y-2603500D02*
X3042920Y-2679700D01*
X3042920Y-2603500D02*
X2966720Y-2679700D01*
X2966720Y-5143500D02*
X3042920Y-5219700D01*
X3042920Y-5143500D02*
X2966720Y-5219700D01*
X3228900Y-6819900D02*
X3305100Y-6896100D01*
X3305100Y-6819900D02*
X3228900Y-6896100D01*
X3228900Y-9521900D02*
X3305100Y-9598100D01*
X3305100Y-9521900D02*
X3228900Y-9598100D01*
X3263900Y-7170900D02*
X3340100Y-7247100D01*
X3340100Y-7170900D02*
X3263900Y-7247100D01*
X3263900Y-9170900D02*
X3340100Y-9247100D01*
X3340100Y-9170900D02*
X3263900Y-9247100D01*
X3679900Y-6819900D02*
X3756100Y-6896100D01*
X3756100Y-6819900D02*
X3679900Y-6896100D01*
X3679900Y-9475900D02*
X3756100Y-9552100D01*
X3756100Y-9475900D02*
X3679900Y-9552100D01*
X3852900Y-2120900D02*
X3929100Y-2197100D01*
X3929100Y-2120900D02*
X3852900Y-2197100D01*
X4279900Y-6219900D02*
X4356100Y-6296100D01*
X4356100Y-6219900D02*
X4279900Y-6296100D01*
X4279900Y-10075900D02*
X4356100Y-10152100D01*
X4356100Y-10075900D02*
X4279900Y-10152100D01*
X4452900Y-2120900D02*
X4529100Y-2197100D01*
X4529100Y-2120900D02*
X4452900Y-2197100D01*
X4660900Y-2898900D02*
X4737100Y-2975100D01*
X4737100Y-2898900D02*
X4660900Y-2975100D01*
X4660900Y-4898900D02*
X4737100Y-4975100D01*
X4737100Y-4898900D02*
X4660900Y-4975100D01*
X4879900Y-6819900D02*
X4956100Y-6896100D01*
X4956100Y-6819900D02*
X4879900Y-6896100D01*
X4879900Y-9475900D02*
X4956100Y-9552100D01*
X4956100Y-9475900D02*
X4879900Y-9552100D01*
X4914900Y-7170900D02*
X4991100Y-7247100D01*
X4991100Y-7170900D02*
X4914900Y-7247100D01*
X4914900Y-9170900D02*
X4991100Y-9247100D01*
X4991100Y-9170900D02*
X4914900Y-9247100D01*
X4949900Y-2593900D02*
X5026100Y-2670100D01*
X5026100Y-2593900D02*
X4949900Y-2670100D01*
X4949900Y-5249900D02*
X5026100Y-5326100D01*
X5026100Y-5249900D02*
X4949900Y-5326100D01*
X5330900Y-6819900D02*
X5407100Y-6896100D01*
X5407100Y-6819900D02*
X5330900Y-6896100D01*
X5330900Y-9521900D02*
X5407100Y-9598100D01*
X5407100Y-9521900D02*
X5330900Y-9598100D01*
X5549900Y-1993900D02*
X5626100Y-2070100D01*
X5626100Y-1993900D02*
X5549900Y-2070100D01*
X5549900Y-5849900D02*
X5626100Y-5926100D01*
X5626100Y-5849900D02*
X5549900Y-5926100D01*
X5930900Y-6219900D02*
X6007100Y-6296100D01*
X6007100Y-6219900D02*
X5930900Y-6296100D01*
X5930900Y-10121900D02*
X6007100Y-10198100D01*
X6007100Y-10121900D02*
X5930900Y-10198100D01*
X6149900Y-2593900D02*
X6226100Y-2670100D01*
X6226100Y-2593900D02*
X6149900Y-2670100D01*
X6149900Y-5249900D02*
X6226100Y-5326100D01*
X6226100Y-5249900D02*
X6149900Y-5326100D01*
X6184900Y-2898900D02*
X6261100Y-2975100D01*
X6261100Y-2898900D02*
X6184900Y-2975100D01*
X6184900Y-4898900D02*
X6261100Y-4975100D01*
X6261100Y-4898900D02*
X6184900Y-4975100D01*
X6530900Y-6819900D02*
X6607100Y-6896100D01*
X6607100Y-6819900D02*
X6530900Y-6896100D01*
X6530900Y-9521900D02*
X6607100Y-9598100D01*
X6607100Y-9521900D02*
X6530900Y-9598100D01*
X6565900Y-7170900D02*
X6642100Y-7247100D01*
X6642100Y-7170900D02*
X6565900Y-7247100D01*
X6565900Y-9170900D02*
X6642100Y-9247100D01*
X6642100Y-9170900D02*
X6565900Y-9247100D01*
X6727900Y-2547900D02*
X6804100Y-2624100D01*
X6804100Y-2547900D02*
X6727900Y-2624100D01*
X6727900Y-5203900D02*
X6804100Y-5280100D01*
X6804100Y-5203900D02*
X6727900Y-5280100D01*
X6981900Y-6819900D02*
X7058100Y-6896100D01*
X7058100Y-6819900D02*
X6981900Y-6896100D01*
X6981900Y-9521900D02*
X7058100Y-9598100D01*
X7058100Y-9521900D02*
X6981900Y-9598100D01*
X7327900Y-1947900D02*
X7404100Y-2024100D01*
X7404100Y-1947900D02*
X7327900Y-2024100D01*
X7327900Y-5803900D02*
X7404100Y-5880100D01*
X7404100Y-5803900D02*
X7327900Y-5880100D01*
X7581900Y-6219900D02*
X7658100Y-6296100D01*
X7658100Y-6219900D02*
X7581900Y-6296100D01*
X7581900Y-10121900D02*
X7658100Y-10198100D01*
X7658100Y-10121900D02*
X7581900Y-10198100D01*
X7927900Y-2547900D02*
X8004100Y-2624100D01*
X8004100Y-2547900D02*
X7927900Y-2624100D01*
X7927900Y-5203900D02*
X8004100Y-5280100D01*
X8004100Y-5203900D02*
X7927900Y-5280100D01*
X7962900Y-2898900D02*
X8039100Y-2975100D01*
X8039100Y-2898900D02*
X7962900Y-2975100D01*
X7962900Y-4898900D02*
X8039100Y-4975100D01*
X8039100Y-4898900D02*
X7962900Y-4975100D01*
X8181900Y-6819900D02*
X8258100Y-6896100D01*
X8258100Y-6819900D02*
X8181900Y-6896100D01*
X8181900Y-9521900D02*
X8258100Y-9598100D01*
X8258100Y-9521900D02*
X8181900Y-9598100D01*
X8216900Y-7170900D02*
X8293100Y-7247100D01*
X8293100Y-7170900D02*
X8216900Y-7247100D01*
X8216900Y-9170900D02*
X8293100Y-9247100D01*
X8293100Y-9170900D02*
X8216900Y-9247100D01*
X8378900Y-2547900D02*
X8455100Y-2624100D01*
X8455100Y-2547900D02*
X8378900Y-2624100D01*
X8378900Y-5168900D02*
X8455100Y-5245100D01*
X8455100Y-5168900D02*
X8378900Y-5245100D01*
X8632900Y-6819900D02*
X8709100Y-6896100D01*
X8709100Y-6819900D02*
X8632900Y-6896100D01*
X8632900Y-9521900D02*
X8709100Y-9598100D01*
X8709100Y-9521900D02*
X8632900Y-9598100D01*
X8978900Y-1947900D02*
X9055100Y-2024100D01*
X9055100Y-1947900D02*
X8978900Y-2024100D01*
X8978900Y-5768900D02*
X9055100Y-5845100D01*
X9055100Y-5768900D02*
X8978900Y-5845100D01*
X9232900Y-6219900D02*
X9309100Y-6296100D01*
X9309100Y-6219900D02*
X9232900Y-6296100D01*
X9232900Y-10121900D02*
X9309100Y-10198100D01*
X9309100Y-10121900D02*
X9232900Y-10198100D01*
X9578900Y-2547900D02*
X9655100Y-2624100D01*
X9655100Y-2547900D02*
X9578900Y-2624100D01*
X9578900Y-5168900D02*
X9655100Y-5245100D01*
X9655100Y-5168900D02*
X9578900Y-5245100D01*
X9613900Y-2898900D02*
X9690100Y-2975100D01*
X9690100Y-2898900D02*
X9613900Y-2975100D01*
X9613900Y-4898900D02*
X9690100Y-4975100D01*
X9690100Y-4898900D02*
X9613900Y-4975100D01*
X9832900Y-6819900D02*
X9909100Y-6896100D01*
X9909100Y-6819900D02*
X9832900Y-6896100D01*
X9832900Y-9521900D02*
X9909100Y-9598100D01*
X9909100Y-9521900D02*
X9832900Y-9598100D01*
X9867900Y-7170900D02*
X9944100Y-7247100D01*
X9944100Y-7170900D02*
X9867900Y-7247100D01*
X9867900Y-9170900D02*
X9944100Y-9247100D01*
X9944100Y-9170900D02*
X9867900Y-9247100D01*
D10*
X1447619Y-11520476D02*
X1447619Y-11320476D01*
X1495238Y-11320476D01*
X1523809Y-11330000D01*
X1542857Y-11349048D01*
X1552381Y-11368095D01*
X1561905Y-11406190D01*
X1561905Y-11434762D01*
X1552381Y-11472857D01*
X1542857Y-11491905D01*
X1523809Y-11510952D01*
X1495238Y-11520476D01*
X1447619Y-11520476D01*
X1647619Y-11520476D02*
X1647619Y-11387143D01*
X1647619Y-11425238D02*
X1657143Y-11406190D01*
X1666667Y-11396667D01*
X1685714Y-11387143D01*
X1704762Y-11387143D01*
X1771428Y-11520476D02*
X1771428Y-11387143D01*
X1771428Y-11320476D02*
X1761905Y-11330000D01*
X1771428Y-11339524D01*
X1780952Y-11330000D01*
X1771428Y-11320476D01*
X1771428Y-11339524D01*
X1895238Y-11520476D02*
X1876190Y-11510952D01*
X1866667Y-11491905D01*
X1866667Y-11320476D01*
X2000000Y-11520476D02*
X1980952Y-11510952D01*
X1971428Y-11491905D01*
X1971428Y-11320476D01*
X2228571Y-11520476D02*
X2228571Y-11320476D01*
X2295238Y-11463333D01*
X2361905Y-11320476D01*
X2361905Y-11520476D01*
X2542857Y-11520476D02*
X2542857Y-11415714D01*
X2533333Y-11396667D01*
X2514286Y-11387143D01*
X2476190Y-11387143D01*
X2457143Y-11396667D01*
X2542857Y-11510952D02*
X2523810Y-11520476D01*
X2476190Y-11520476D01*
X2457143Y-11510952D01*
X2447619Y-11491905D01*
X2447619Y-11472857D01*
X2457143Y-11453809D01*
X2476190Y-11444286D01*
X2523810Y-11444286D01*
X2542857Y-11434762D01*
X2638095Y-11387143D02*
X2638095Y-11587143D01*
X2638095Y-11396667D02*
X2657143Y-11387143D01*
X2695238Y-11387143D01*
X2714286Y-11396667D01*
X2723810Y-11406190D01*
X2733333Y-11425238D01*
X2733333Y-11482381D01*
X2723810Y-11501428D01*
X2714286Y-11510952D01*
X2695238Y-11520476D01*
X2657143Y-11520476D01*
X2638095Y-11510952D01*
X2819048Y-11501428D02*
X2828571Y-11510952D01*
X2819048Y-11520476D01*
X2809524Y-11510952D01*
X2819048Y-11501428D01*
X2819048Y-11520476D01*
X2819048Y-11396667D02*
X2828571Y-11406190D01*
X2819048Y-11415714D01*
X2809524Y-11406190D01*
X2819048Y-11396667D01*
X2819048Y-11415714D01*
D11*
X1113800Y-11811900D02*
X1190000Y-11888100D01*
X1190000Y-11811900D02*
X1113800Y-11888100D01*
D10*
X1485714Y-11740476D02*
X1504762Y-11740476D01*
X1523809Y-11750000D01*
X1533333Y-11759524D01*
X1542857Y-11778571D01*
X1552381Y-11816667D01*
X1552381Y-11864286D01*
X1542857Y-11902381D01*
X1533333Y-11921428D01*
X1523809Y-11930952D01*
X1504762Y-11940476D01*
X1485714Y-11940476D01*
X1466667Y-11930952D01*
X1457143Y-11921428D01*
X1447619Y-11902381D01*
X1438095Y-11864286D01*
X1438095Y-11816667D01*
X1447619Y-11778571D01*
X1457143Y-11759524D01*
X1466667Y-11750000D01*
X1485714Y-11740476D01*
X1638095Y-11921428D02*
X1647619Y-11930952D01*
X1638095Y-11940476D01*
X1628571Y-11930952D01*
X1638095Y-11921428D01*
X1638095Y-11940476D01*
X1714286Y-11740476D02*
X1847619Y-11740476D01*
X1761905Y-11940476D01*
X2009524Y-11740476D02*
X1971428Y-11740476D01*
X1952381Y-11750000D01*
X1942857Y-11759524D01*
X1923809Y-11788095D01*
X1914286Y-11826190D01*
X1914286Y-11902381D01*
X1923809Y-11921428D01*
X1933333Y-11930952D01*
X1952381Y-11940476D01*
X1990476Y-11940476D01*
X2009524Y-11930952D01*
X2019048Y-11921428D01*
X2028571Y-11902381D01*
X2028571Y-11854762D01*
X2019048Y-11835714D01*
X2009524Y-11826190D01*
X1990476Y-11816667D01*
X1952381Y-11816667D01*
X1933333Y-11826190D01*
X1923809Y-11835714D01*
X1914286Y-11854762D01*
X2104762Y-11759524D02*
X2114286Y-11750000D01*
X2133333Y-11740476D01*
X2180952Y-11740476D01*
X2200000Y-11750000D01*
X2209524Y-11759524D01*
X2219048Y-11778571D01*
X2219048Y-11797619D01*
X2209524Y-11826190D01*
X2095238Y-11940476D01*
X2219048Y-11940476D01*
X2304762Y-11940476D02*
X2304762Y-11807143D01*
X2304762Y-11826190D02*
X2314286Y-11816667D01*
X2333333Y-11807143D01*
X2361905Y-11807143D01*
X2380952Y-11816667D01*
X2390476Y-11835714D01*
X2390476Y-11940476D01*
X2390476Y-11835714D02*
X2400000Y-11816667D01*
X2419048Y-11807143D01*
X2447619Y-11807143D01*
X2466667Y-11816667D01*
X2476190Y-11835714D01*
X2476190Y-11940476D01*
X2571429Y-11940476D02*
X2571429Y-11807143D01*
X2571429Y-11826190D02*
X2580952Y-11816667D01*
X2600000Y-11807143D01*
X2628571Y-11807143D01*
X2647619Y-11816667D01*
X2657143Y-11835714D01*
X2657143Y-11940476D01*
X2657143Y-11835714D02*
X2666667Y-11816667D01*
X2685714Y-11807143D01*
X2714286Y-11807143D01*
X2733333Y-11816667D01*
X2742857Y-11835714D01*
X2742857Y-11940476D01*
X3133333Y-11730952D02*
X2961905Y-11988095D01*
X3390476Y-11740476D02*
X3409524Y-11740476D01*
X3428571Y-11750000D01*
X3438095Y-11759524D01*
X3447619Y-11778571D01*
X3457143Y-11816667D01*
X3457143Y-11864286D01*
X3447619Y-11902381D01*
X3438095Y-11921428D01*
X3428571Y-11930952D01*
X3409524Y-11940476D01*
X3390476Y-11940476D01*
X3371428Y-11930952D01*
X3361905Y-11921428D01*
X3352381Y-11902381D01*
X3342857Y-11864286D01*
X3342857Y-11816667D01*
X3352381Y-11778571D01*
X3361905Y-11759524D01*
X3371428Y-11750000D01*
X3390476Y-11740476D01*
X3542857Y-11921428D02*
X3552381Y-11930952D01*
X3542857Y-11940476D01*
X3533333Y-11930952D01*
X3542857Y-11921428D01*
X3542857Y-11940476D01*
X3676190Y-11740476D02*
X3695238Y-11740476D01*
X3714286Y-11750000D01*
X3723809Y-11759524D01*
X3733333Y-11778571D01*
X3742857Y-11816667D01*
X3742857Y-11864286D01*
X3733333Y-11902381D01*
X3723809Y-11921428D01*
X3714286Y-11930952D01*
X3695238Y-11940476D01*
X3676190Y-11940476D01*
X3657143Y-11930952D01*
X3647619Y-11921428D01*
X3638095Y-11902381D01*
X3628571Y-11864286D01*
X3628571Y-11816667D01*
X3638095Y-11778571D01*
X3647619Y-11759524D01*
X3657143Y-11750000D01*
X3676190Y-11740476D01*
X3809524Y-11740476D02*
X3933333Y-11740476D01*
X3866667Y-11816667D01*
X3895238Y-11816667D01*
X3914286Y-11826190D01*
X3923809Y-11835714D01*
X3933333Y-11854762D01*
X3933333Y-11902381D01*
X3923809Y-11921428D01*
X3914286Y-11930952D01*
X3895238Y-11940476D01*
X3838095Y-11940476D01*
X3819048Y-11930952D01*
X3809524Y-11921428D01*
X4057143Y-11740476D02*
X4076190Y-11740476D01*
X4095238Y-11750000D01*
X4104762Y-11759524D01*
X4114286Y-11778571D01*
X4123809Y-11816667D01*
X4123809Y-11864286D01*
X4114286Y-11902381D01*
X4104762Y-11921428D01*
X4095238Y-11930952D01*
X4076190Y-11940476D01*
X4057143Y-11940476D01*
X4038095Y-11930952D01*
X4028571Y-11921428D01*
X4019048Y-11902381D01*
X4009524Y-11864286D01*
X4009524Y-11816667D01*
X4019048Y-11778571D01*
X4028571Y-11759524D01*
X4038095Y-11750000D01*
X4057143Y-11740476D01*
X4247619Y-11740476D02*
X4266667Y-11740476D01*
X4285714Y-11750000D01*
X4295238Y-11759524D01*
X4304762Y-11778571D01*
X4314286Y-11816667D01*
X4314286Y-11864286D01*
X4304762Y-11902381D01*
X4295238Y-11921428D01*
X4285714Y-11930952D01*
X4266667Y-11940476D01*
X4247619Y-11940476D01*
X4228571Y-11930952D01*
X4219048Y-11921428D01*
X4209524Y-11902381D01*
X4200000Y-11864286D01*
X4200000Y-11816667D01*
X4209524Y-11778571D01*
X4219048Y-11759524D01*
X4228571Y-11750000D01*
X4247619Y-11740476D01*
X4390476Y-11740476D02*
X4390476Y-11778571D01*
X4466667Y-11740476D02*
X4466667Y-11778571D01*
X4761905Y-12016667D02*
X4752381Y-12007143D01*
X4733333Y-11978571D01*
X4723810Y-11959524D01*
X4714286Y-11930952D01*
X4704762Y-11883333D01*
X4704762Y-11845238D01*
X4714286Y-11797619D01*
X4723810Y-11769048D01*
X4733333Y-11750000D01*
X4752381Y-11721428D01*
X4761905Y-11711905D01*
X4819048Y-11740476D02*
X4952381Y-11740476D01*
X4866667Y-11940476D01*
X5066667Y-11740476D02*
X5085714Y-11740476D01*
X5104762Y-11750000D01*
X5114286Y-11759524D01*
X5123810Y-11778571D01*
X5133333Y-11816667D01*
X5133333Y-11864286D01*
X5123810Y-11902381D01*
X5114286Y-11921428D01*
X5104762Y-11930952D01*
X5085714Y-11940476D01*
X5066667Y-11940476D01*
X5047619Y-11930952D01*
X5038095Y-11921428D01*
X5028571Y-11902381D01*
X5019048Y-11864286D01*
X5019048Y-11816667D01*
X5028571Y-11778571D01*
X5038095Y-11759524D01*
X5047619Y-11750000D01*
X5066667Y-11740476D01*
X5371429Y-11940476D02*
X5371429Y-11740476D01*
X5457143Y-11940476D02*
X5457143Y-11835714D01*
X5447619Y-11816667D01*
X5428571Y-11807143D01*
X5400000Y-11807143D01*
X5380952Y-11816667D01*
X5371429Y-11826190D01*
X5580952Y-11940476D02*
X5561905Y-11930952D01*
X5552381Y-11921428D01*
X5542857Y-11902381D01*
X5542857Y-11845238D01*
X5552381Y-11826190D01*
X5561905Y-11816667D01*
X5580952Y-11807143D01*
X5609524Y-11807143D01*
X5628571Y-11816667D01*
X5638095Y-11826190D01*
X5647619Y-11845238D01*
X5647619Y-11902381D01*
X5638095Y-11921428D01*
X5628571Y-11930952D01*
X5609524Y-11940476D01*
X5580952Y-11940476D01*
X5761905Y-11940476D02*
X5742857Y-11930952D01*
X5733333Y-11911905D01*
X5733333Y-11740476D01*
X5914286Y-11930952D02*
X5895238Y-11940476D01*
X5857143Y-11940476D01*
X5838095Y-11930952D01*
X5828571Y-11911905D01*
X5828571Y-11835714D01*
X5838095Y-11816667D01*
X5857143Y-11807143D01*
X5895238Y-11807143D01*
X5914286Y-11816667D01*
X5923809Y-11835714D01*
X5923809Y-11854762D01*
X5828571Y-11873809D01*
X6000000Y-11930952D02*
X6019048Y-11940476D01*
X6057143Y-11940476D01*
X6076190Y-11930952D01*
X6085714Y-11911905D01*
X6085714Y-11902381D01*
X6076190Y-11883333D01*
X6057143Y-11873809D01*
X6028571Y-11873809D01*
X6009524Y-11864286D01*
X6000000Y-11845238D01*
X6000000Y-11835714D01*
X6009524Y-11816667D01*
X6028571Y-11807143D01*
X6057143Y-11807143D01*
X6076190Y-11816667D01*
X6152381Y-12016667D02*
X6161905Y-12007143D01*
X6180952Y-11978571D01*
X6190476Y-11959524D01*
X6200000Y-11930952D01*
X6209524Y-11883333D01*
X6209524Y-11845238D01*
X6200000Y-11797619D01*
X6190476Y-11769048D01*
X6180952Y-11750000D01*
X6161905Y-11721428D01*
X6152381Y-11711905D01*
M02*
