%TF.GenerationSoftware,KiCad,Pcbnew,(6.0.7)*%
%TF.CreationDate,2022-09-04T22:45:54+08:00*%
%TF.ProjectId,6_6_2,365f365f-322e-46b6-9963-61645f706362,rev?*%
%TF.SameCoordinates,Original*%
%TF.FileFunction,Legend,Top*%
%TF.FilePolarity,Positive*%
%FSLAX46Y46*%
G04 Gerber Fmt 4.6, Leading zero omitted, Abs format (unit mm)*
G04 Created by KiCad (PCBNEW (6.0.7)) date 2022-09-04 22:45:54*
%MOMM*%
%LPD*%
G01*
G04 APERTURE LIST*
%ADD10C,0.300000*%
%ADD11C,0.150000*%
%ADD12C,0.120000*%
G04 APERTURE END LIST*
D10*
X33261904Y-105211904D02*
X32309523Y-105211904D01*
X31833333Y-105450000D01*
X31595238Y-105688095D01*
X31119047Y-106402380D01*
X30880952Y-107354761D01*
X30880952Y-109259523D01*
X31119047Y-109735714D01*
X31357142Y-109973809D01*
X31833333Y-110211904D01*
X32785714Y-110211904D01*
X33261904Y-109973809D01*
X33499999Y-109735714D01*
X33738095Y-109259523D01*
X33738095Y-108069047D01*
X33499999Y-107592857D01*
X33261904Y-107354761D01*
X32785714Y-107116666D01*
X31833333Y-107116666D01*
X31357142Y-107354761D01*
X31119047Y-107592857D01*
X30880952Y-108069047D01*
X35880952Y-109735714D02*
X36119047Y-109973809D01*
X35880952Y-110211904D01*
X35642857Y-109973809D01*
X35880952Y-109735714D01*
X35880952Y-110211904D01*
X40404761Y-105211904D02*
X39452380Y-105211904D01*
X38976190Y-105450000D01*
X38738095Y-105688095D01*
X38261904Y-106402380D01*
X38023809Y-107354761D01*
X38023809Y-109259523D01*
X38261904Y-109735714D01*
X38500000Y-109973809D01*
X38976190Y-110211904D01*
X39928571Y-110211904D01*
X40404761Y-109973809D01*
X40642857Y-109735714D01*
X40880952Y-109259523D01*
X40880952Y-108069047D01*
X40642857Y-107592857D01*
X40404761Y-107354761D01*
X39928571Y-107116666D01*
X38976190Y-107116666D01*
X38500000Y-107354761D01*
X38261904Y-107592857D01*
X38023809Y-108069047D01*
X43023809Y-109735714D02*
X43261904Y-109973809D01*
X43023809Y-110211904D01*
X42785714Y-109973809D01*
X43023809Y-109735714D01*
X43023809Y-110211904D01*
X45166666Y-105688095D02*
X45404761Y-105450000D01*
X45880952Y-105211904D01*
X47071428Y-105211904D01*
X47547619Y-105450000D01*
X47785714Y-105688095D01*
X48023809Y-106164285D01*
X48023809Y-106640476D01*
X47785714Y-107354761D01*
X44928571Y-110211904D01*
X48023809Y-110211904D01*
X53261904Y-107116666D02*
X58738095Y-107116666D01*
X53261904Y-108545238D02*
X58738095Y-108545238D01*
X56119047Y-110211904D02*
X59214285Y-110211904D01*
X53261904Y-105450000D02*
X53261904Y-109021428D01*
X56119047Y-104497619D02*
X56119047Y-110211904D01*
X53261904Y-105450000D02*
X58738095Y-105450000D01*
X58738095Y-108545238D01*
X59452380Y-109021428D02*
X59214285Y-110211904D01*
X62785714Y-104735714D02*
X66833333Y-104735714D01*
X63499999Y-106878571D02*
X66357142Y-106878571D01*
X63499999Y-107830952D02*
X66357142Y-107830952D01*
X63976190Y-110211904D02*
X64928571Y-110211904D01*
X63499999Y-105926190D02*
X63499999Y-107830952D01*
X64928571Y-104973809D02*
X64690476Y-105926190D01*
X64928571Y-107830952D02*
X64928571Y-110211904D01*
X63499999Y-105926190D02*
X66357142Y-105926190D01*
X66357142Y-107830952D01*
X65880952Y-108545238D02*
X66595238Y-109259523D01*
X63738095Y-108545238D02*
X63261904Y-109497619D01*
X61119047Y-104735714D02*
X62071428Y-105211904D01*
X60642857Y-106402380D02*
X61833333Y-106878571D01*
X61833333Y-108069047D02*
X60880952Y-110211904D01*
X62785714Y-104735714D02*
X62785714Y-107592857D01*
X62309523Y-109497619D01*
X68738095Y-105450000D02*
X70880952Y-105450000D01*
X71357142Y-105450000D02*
X74214285Y-105450000D01*
X68738095Y-106640476D02*
X73500000Y-106640476D01*
X68023809Y-107592857D02*
X74214285Y-107592857D01*
X68261904Y-108545238D02*
X73976190Y-108545238D01*
X71357142Y-110211904D02*
X72547619Y-110211904D01*
X71119047Y-105926190D02*
X71119047Y-107592857D01*
X72547619Y-107592857D02*
X72547619Y-110211904D01*
X69690476Y-109021428D02*
X70404761Y-109735714D01*
X72547619Y-105450000D02*
X72547619Y-105926190D01*
X71595238Y-104973809D02*
X70642857Y-105926190D01*
X69214285Y-105450000D02*
X69690476Y-105926190D01*
X68738095Y-104497619D02*
X68261904Y-105926190D01*
X75404761Y-105450000D02*
X78738095Y-105450000D01*
X77071428Y-104497619D02*
X77071428Y-105450000D01*
X80166666Y-108783333D02*
X81595238Y-110211904D01*
X76119047Y-107592857D02*
X78023809Y-109497619D01*
X77547619Y-106164285D02*
X78261904Y-106878571D01*
X77071428Y-108783333D02*
X75404761Y-110211904D01*
X79452380Y-109735714D02*
X78261904Y-110211904D01*
X80166666Y-108545238D02*
X78738095Y-109973809D01*
X79452380Y-107116666D02*
X80642857Y-109497619D01*
X76119047Y-106164285D02*
X75642857Y-107116666D01*
X77547619Y-107116666D02*
X76595238Y-109259523D01*
X79214285Y-105926190D02*
X80166666Y-108783333D01*
X79214285Y-105926190D02*
X81357142Y-105926190D01*
X80166666Y-108783333D01*
X79452380Y-104497619D02*
X78738095Y-107116666D01*
X82785714Y-105211904D02*
X88976190Y-105211904D01*
X84928571Y-105211904D02*
X84928571Y-107354761D01*
X86595238Y-105211904D02*
X86595238Y-107354761D01*
X85642857Y-104497619D02*
X85880952Y-105211904D01*
X87547619Y-105926190D02*
X88738095Y-107116666D01*
X83976190Y-106164285D02*
X83261904Y-107116666D01*
X83976190Y-107830952D02*
X84928571Y-108783333D01*
X86357142Y-109497619D01*
X87309523Y-109973809D01*
X88976190Y-110211904D01*
X83261904Y-107830952D02*
X87785714Y-107830952D01*
X86833333Y-108783333D01*
X85404761Y-109735714D01*
X82785714Y-110211904D01*
X90166666Y-105926190D02*
X91833333Y-105926190D01*
X92071428Y-108069047D02*
X96357142Y-108069047D01*
X90404761Y-110211904D02*
X91119047Y-110211904D01*
X91119047Y-104497619D02*
X91119047Y-110211904D01*
X92785714Y-105926190D02*
X92785714Y-108069047D01*
X92547619Y-106164285D02*
X95642857Y-106164285D01*
X95642857Y-108069047D01*
X94214285Y-106164285D02*
X94214285Y-108069047D01*
X94452380Y-108783333D01*
X95880952Y-109973809D01*
X93261904Y-105211904D02*
X95404761Y-105211904D01*
X94214285Y-106402380D01*
X93500000Y-104973809D02*
X92309523Y-106164285D01*
X93500000Y-104497619D02*
X93023809Y-105688095D01*
X94214285Y-107592857D02*
X93738095Y-108783333D01*
X93023809Y-109735714D01*
X91833333Y-110211904D01*
X91833333Y-107592857D02*
X90166666Y-108069047D01*
D11*
%TO.C,U16*%
X74961904Y-66000380D02*
X74961904Y-66809904D01*
X75009523Y-66905142D01*
X75057142Y-66952761D01*
X75152380Y-67000380D01*
X75342857Y-67000380D01*
X75438095Y-66952761D01*
X75485714Y-66905142D01*
X75533333Y-66809904D01*
X75533333Y-66000380D01*
X76533333Y-67000380D02*
X75961904Y-67000380D01*
X76247619Y-67000380D02*
X76247619Y-66000380D01*
X76152380Y-66143238D01*
X76057142Y-66238476D01*
X75961904Y-66286095D01*
X77390476Y-66000380D02*
X77200000Y-66000380D01*
X77104761Y-66048000D01*
X77057142Y-66095619D01*
X76961904Y-66238476D01*
X76914285Y-66428952D01*
X76914285Y-66809904D01*
X76961904Y-66905142D01*
X77009523Y-66952761D01*
X77104761Y-67000380D01*
X77295238Y-67000380D01*
X77390476Y-66952761D01*
X77438095Y-66905142D01*
X77485714Y-66809904D01*
X77485714Y-66571809D01*
X77438095Y-66476571D01*
X77390476Y-66428952D01*
X77295238Y-66381333D01*
X77104761Y-66381333D01*
X77009523Y-66428952D01*
X76961904Y-66476571D01*
X76914285Y-66571809D01*
X80470476Y-66492380D02*
X80470476Y-65492380D01*
X81041904Y-66492380D01*
X81041904Y-65492380D01*
X81708571Y-65492380D02*
X81899047Y-65492380D01*
X81994285Y-65540000D01*
X82089523Y-65635238D01*
X82137142Y-65825714D01*
X82137142Y-66159047D01*
X82089523Y-66349523D01*
X81994285Y-66444761D01*
X81899047Y-66492380D01*
X81708571Y-66492380D01*
X81613333Y-66444761D01*
X81518095Y-66349523D01*
X81470476Y-66159047D01*
X81470476Y-65825714D01*
X81518095Y-65635238D01*
X81613333Y-65540000D01*
X81708571Y-65492380D01*
X70334285Y-66492380D02*
X70334285Y-65492380D01*
X70905714Y-66492380D01*
X70905714Y-65492380D01*
X71953333Y-66397142D02*
X71905714Y-66444761D01*
X71762857Y-66492380D01*
X71667619Y-66492380D01*
X71524761Y-66444761D01*
X71429523Y-66349523D01*
X71381904Y-66254285D01*
X71334285Y-66063809D01*
X71334285Y-65920952D01*
X71381904Y-65730476D01*
X71429523Y-65635238D01*
X71524761Y-65540000D01*
X71667619Y-65492380D01*
X71762857Y-65492380D01*
X71905714Y-65540000D01*
X71953333Y-65587619D01*
%TO.C,U14*%
X91471904Y-66000380D02*
X91471904Y-66809904D01*
X91519523Y-66905142D01*
X91567142Y-66952761D01*
X91662380Y-67000380D01*
X91852857Y-67000380D01*
X91948095Y-66952761D01*
X91995714Y-66905142D01*
X92043333Y-66809904D01*
X92043333Y-66000380D01*
X93043333Y-67000380D02*
X92471904Y-67000380D01*
X92757619Y-67000380D02*
X92757619Y-66000380D01*
X92662380Y-66143238D01*
X92567142Y-66238476D01*
X92471904Y-66286095D01*
X93900476Y-66333714D02*
X93900476Y-67000380D01*
X93662380Y-65952761D02*
X93424285Y-66667047D01*
X94043333Y-66667047D01*
X96980476Y-66492380D02*
X96980476Y-65492380D01*
X97551904Y-66492380D01*
X97551904Y-65492380D01*
X98218571Y-65492380D02*
X98409047Y-65492380D01*
X98504285Y-65540000D01*
X98599523Y-65635238D01*
X98647142Y-65825714D01*
X98647142Y-66159047D01*
X98599523Y-66349523D01*
X98504285Y-66444761D01*
X98409047Y-66492380D01*
X98218571Y-66492380D01*
X98123333Y-66444761D01*
X98028095Y-66349523D01*
X97980476Y-66159047D01*
X97980476Y-65825714D01*
X98028095Y-65635238D01*
X98123333Y-65540000D01*
X98218571Y-65492380D01*
X86844285Y-66492380D02*
X86844285Y-65492380D01*
X87415714Y-66492380D01*
X87415714Y-65492380D01*
X88463333Y-66397142D02*
X88415714Y-66444761D01*
X88272857Y-66492380D01*
X88177619Y-66492380D01*
X88034761Y-66444761D01*
X87939523Y-66349523D01*
X87891904Y-66254285D01*
X87844285Y-66063809D01*
X87844285Y-65920952D01*
X87891904Y-65730476D01*
X87939523Y-65635238D01*
X88034761Y-65540000D01*
X88177619Y-65492380D01*
X88272857Y-65492380D01*
X88415714Y-65540000D01*
X88463333Y-65587619D01*
%TO.C,U12*%
X41941904Y-66000380D02*
X41941904Y-66809904D01*
X41989523Y-66905142D01*
X42037142Y-66952761D01*
X42132380Y-67000380D01*
X42322857Y-67000380D01*
X42418095Y-66952761D01*
X42465714Y-66905142D01*
X42513333Y-66809904D01*
X42513333Y-66000380D01*
X43513333Y-67000380D02*
X42941904Y-67000380D01*
X43227619Y-67000380D02*
X43227619Y-66000380D01*
X43132380Y-66143238D01*
X43037142Y-66238476D01*
X42941904Y-66286095D01*
X43894285Y-66095619D02*
X43941904Y-66048000D01*
X44037142Y-66000380D01*
X44275238Y-66000380D01*
X44370476Y-66048000D01*
X44418095Y-66095619D01*
X44465714Y-66190857D01*
X44465714Y-66286095D01*
X44418095Y-66428952D01*
X43846666Y-67000380D01*
X44465714Y-67000380D01*
X47450476Y-66492380D02*
X47450476Y-65492380D01*
X48021904Y-66492380D01*
X48021904Y-65492380D01*
X48688571Y-65492380D02*
X48879047Y-65492380D01*
X48974285Y-65540000D01*
X49069523Y-65635238D01*
X49117142Y-65825714D01*
X49117142Y-66159047D01*
X49069523Y-66349523D01*
X48974285Y-66444761D01*
X48879047Y-66492380D01*
X48688571Y-66492380D01*
X48593333Y-66444761D01*
X48498095Y-66349523D01*
X48450476Y-66159047D01*
X48450476Y-65825714D01*
X48498095Y-65635238D01*
X48593333Y-65540000D01*
X48688571Y-65492380D01*
X37314285Y-66492380D02*
X37314285Y-65492380D01*
X37885714Y-66492380D01*
X37885714Y-65492380D01*
X38933333Y-66397142D02*
X38885714Y-66444761D01*
X38742857Y-66492380D01*
X38647619Y-66492380D01*
X38504761Y-66444761D01*
X38409523Y-66349523D01*
X38361904Y-66254285D01*
X38314285Y-66063809D01*
X38314285Y-65920952D01*
X38361904Y-65730476D01*
X38409523Y-65635238D01*
X38504761Y-65540000D01*
X38647619Y-65492380D01*
X38742857Y-65492380D01*
X38885714Y-65540000D01*
X38933333Y-65587619D01*
%TO.C,U10*%
X58451904Y-66000380D02*
X58451904Y-66809904D01*
X58499523Y-66905142D01*
X58547142Y-66952761D01*
X58642380Y-67000380D01*
X58832857Y-67000380D01*
X58928095Y-66952761D01*
X58975714Y-66905142D01*
X59023333Y-66809904D01*
X59023333Y-66000380D01*
X60023333Y-67000380D02*
X59451904Y-67000380D01*
X59737619Y-67000380D02*
X59737619Y-66000380D01*
X59642380Y-66143238D01*
X59547142Y-66238476D01*
X59451904Y-66286095D01*
X60642380Y-66000380D02*
X60737619Y-66000380D01*
X60832857Y-66048000D01*
X60880476Y-66095619D01*
X60928095Y-66190857D01*
X60975714Y-66381333D01*
X60975714Y-66619428D01*
X60928095Y-66809904D01*
X60880476Y-66905142D01*
X60832857Y-66952761D01*
X60737619Y-67000380D01*
X60642380Y-67000380D01*
X60547142Y-66952761D01*
X60499523Y-66905142D01*
X60451904Y-66809904D01*
X60404285Y-66619428D01*
X60404285Y-66381333D01*
X60451904Y-66190857D01*
X60499523Y-66095619D01*
X60547142Y-66048000D01*
X60642380Y-66000380D01*
X63960476Y-66492380D02*
X63960476Y-65492380D01*
X64531904Y-66492380D01*
X64531904Y-65492380D01*
X65198571Y-65492380D02*
X65389047Y-65492380D01*
X65484285Y-65540000D01*
X65579523Y-65635238D01*
X65627142Y-65825714D01*
X65627142Y-66159047D01*
X65579523Y-66349523D01*
X65484285Y-66444761D01*
X65389047Y-66492380D01*
X65198571Y-66492380D01*
X65103333Y-66444761D01*
X65008095Y-66349523D01*
X64960476Y-66159047D01*
X64960476Y-65825714D01*
X65008095Y-65635238D01*
X65103333Y-65540000D01*
X65198571Y-65492380D01*
X53824285Y-66492380D02*
X53824285Y-65492380D01*
X54395714Y-66492380D01*
X54395714Y-65492380D01*
X55443333Y-66397142D02*
X55395714Y-66444761D01*
X55252857Y-66492380D01*
X55157619Y-66492380D01*
X55014761Y-66444761D01*
X54919523Y-66349523D01*
X54871904Y-66254285D01*
X54824285Y-66063809D01*
X54824285Y-65920952D01*
X54871904Y-65730476D01*
X54919523Y-65635238D01*
X55014761Y-65540000D01*
X55157619Y-65492380D01*
X55252857Y-65492380D01*
X55395714Y-65540000D01*
X55443333Y-65587619D01*
%TO.C,U8*%
X25908095Y-66000380D02*
X25908095Y-66809904D01*
X25955714Y-66905142D01*
X26003333Y-66952761D01*
X26098571Y-67000380D01*
X26289047Y-67000380D01*
X26384285Y-66952761D01*
X26431904Y-66905142D01*
X26479523Y-66809904D01*
X26479523Y-66000380D01*
X27098571Y-66428952D02*
X27003333Y-66381333D01*
X26955714Y-66333714D01*
X26908095Y-66238476D01*
X26908095Y-66190857D01*
X26955714Y-66095619D01*
X27003333Y-66048000D01*
X27098571Y-66000380D01*
X27289047Y-66000380D01*
X27384285Y-66048000D01*
X27431904Y-66095619D01*
X27479523Y-66190857D01*
X27479523Y-66238476D01*
X27431904Y-66333714D01*
X27384285Y-66381333D01*
X27289047Y-66428952D01*
X27098571Y-66428952D01*
X27003333Y-66476571D01*
X26955714Y-66524190D01*
X26908095Y-66619428D01*
X26908095Y-66809904D01*
X26955714Y-66905142D01*
X27003333Y-66952761D01*
X27098571Y-67000380D01*
X27289047Y-67000380D01*
X27384285Y-66952761D01*
X27431904Y-66905142D01*
X27479523Y-66809904D01*
X27479523Y-66619428D01*
X27431904Y-66524190D01*
X27384285Y-66476571D01*
X27289047Y-66428952D01*
X30940476Y-66492380D02*
X30940476Y-65492380D01*
X31511904Y-66492380D01*
X31511904Y-65492380D01*
X32178571Y-65492380D02*
X32369047Y-65492380D01*
X32464285Y-65540000D01*
X32559523Y-65635238D01*
X32607142Y-65825714D01*
X32607142Y-66159047D01*
X32559523Y-66349523D01*
X32464285Y-66444761D01*
X32369047Y-66492380D01*
X32178571Y-66492380D01*
X32083333Y-66444761D01*
X31988095Y-66349523D01*
X31940476Y-66159047D01*
X31940476Y-65825714D01*
X31988095Y-65635238D01*
X32083333Y-65540000D01*
X32178571Y-65492380D01*
X20804285Y-66492380D02*
X20804285Y-65492380D01*
X21375714Y-66492380D01*
X21375714Y-65492380D01*
X22423333Y-66397142D02*
X22375714Y-66444761D01*
X22232857Y-66492380D01*
X22137619Y-66492380D01*
X21994761Y-66444761D01*
X21899523Y-66349523D01*
X21851904Y-66254285D01*
X21804285Y-66063809D01*
X21804285Y-65920952D01*
X21851904Y-65730476D01*
X21899523Y-65635238D01*
X21994761Y-65540000D01*
X22137619Y-65492380D01*
X22232857Y-65492380D01*
X22375714Y-65540000D01*
X22423333Y-65587619D01*
%TO.C,U6*%
X89408095Y-23280380D02*
X89408095Y-24089904D01*
X89455714Y-24185142D01*
X89503333Y-24232761D01*
X89598571Y-24280380D01*
X89789047Y-24280380D01*
X89884285Y-24232761D01*
X89931904Y-24185142D01*
X89979523Y-24089904D01*
X89979523Y-23280380D01*
X90884285Y-23280380D02*
X90693809Y-23280380D01*
X90598571Y-23328000D01*
X90550952Y-23375619D01*
X90455714Y-23518476D01*
X90408095Y-23708952D01*
X90408095Y-24089904D01*
X90455714Y-24185142D01*
X90503333Y-24232761D01*
X90598571Y-24280380D01*
X90789047Y-24280380D01*
X90884285Y-24232761D01*
X90931904Y-24185142D01*
X90979523Y-24089904D01*
X90979523Y-23851809D01*
X90931904Y-23756571D01*
X90884285Y-23708952D01*
X90789047Y-23661333D01*
X90598571Y-23661333D01*
X90503333Y-23708952D01*
X90455714Y-23756571D01*
X90408095Y-23851809D01*
X84304285Y-23772380D02*
X84304285Y-22772380D01*
X84875714Y-23772380D01*
X84875714Y-22772380D01*
X85923333Y-23677142D02*
X85875714Y-23724761D01*
X85732857Y-23772380D01*
X85637619Y-23772380D01*
X85494761Y-23724761D01*
X85399523Y-23629523D01*
X85351904Y-23534285D01*
X85304285Y-23343809D01*
X85304285Y-23200952D01*
X85351904Y-23010476D01*
X85399523Y-22915238D01*
X85494761Y-22820000D01*
X85637619Y-22772380D01*
X85732857Y-22772380D01*
X85875714Y-22820000D01*
X85923333Y-22867619D01*
X94440476Y-23772380D02*
X94440476Y-22772380D01*
X95011904Y-23772380D01*
X95011904Y-22772380D01*
X95678571Y-22772380D02*
X95869047Y-22772380D01*
X95964285Y-22820000D01*
X96059523Y-22915238D01*
X96107142Y-23105714D01*
X96107142Y-23439047D01*
X96059523Y-23629523D01*
X95964285Y-23724761D01*
X95869047Y-23772380D01*
X95678571Y-23772380D01*
X95583333Y-23724761D01*
X95488095Y-23629523D01*
X95440476Y-23439047D01*
X95440476Y-23105714D01*
X95488095Y-22915238D01*
X95583333Y-22820000D01*
X95678571Y-22772380D01*
%TO.C,U4*%
X72898095Y-23280380D02*
X72898095Y-24089904D01*
X72945714Y-24185142D01*
X72993333Y-24232761D01*
X73088571Y-24280380D01*
X73279047Y-24280380D01*
X73374285Y-24232761D01*
X73421904Y-24185142D01*
X73469523Y-24089904D01*
X73469523Y-23280380D01*
X74374285Y-23613714D02*
X74374285Y-24280380D01*
X74136190Y-23232761D02*
X73898095Y-23947047D01*
X74517142Y-23947047D01*
X67794285Y-23772380D02*
X67794285Y-22772380D01*
X68365714Y-23772380D01*
X68365714Y-22772380D01*
X69413333Y-23677142D02*
X69365714Y-23724761D01*
X69222857Y-23772380D01*
X69127619Y-23772380D01*
X68984761Y-23724761D01*
X68889523Y-23629523D01*
X68841904Y-23534285D01*
X68794285Y-23343809D01*
X68794285Y-23200952D01*
X68841904Y-23010476D01*
X68889523Y-22915238D01*
X68984761Y-22820000D01*
X69127619Y-22772380D01*
X69222857Y-22772380D01*
X69365714Y-22820000D01*
X69413333Y-22867619D01*
X77930476Y-23772380D02*
X77930476Y-22772380D01*
X78501904Y-23772380D01*
X78501904Y-22772380D01*
X79168571Y-22772380D02*
X79359047Y-22772380D01*
X79454285Y-22820000D01*
X79549523Y-22915238D01*
X79597142Y-23105714D01*
X79597142Y-23439047D01*
X79549523Y-23629523D01*
X79454285Y-23724761D01*
X79359047Y-23772380D01*
X79168571Y-23772380D01*
X79073333Y-23724761D01*
X78978095Y-23629523D01*
X78930476Y-23439047D01*
X78930476Y-23105714D01*
X78978095Y-22915238D01*
X79073333Y-22820000D01*
X79168571Y-22772380D01*
%TO.C,U2*%
X55118095Y-23740380D02*
X55118095Y-24549904D01*
X55165714Y-24645142D01*
X55213333Y-24692761D01*
X55308571Y-24740380D01*
X55499047Y-24740380D01*
X55594285Y-24692761D01*
X55641904Y-24645142D01*
X55689523Y-24549904D01*
X55689523Y-23740380D01*
X56118095Y-23835619D02*
X56165714Y-23788000D01*
X56260952Y-23740380D01*
X56499047Y-23740380D01*
X56594285Y-23788000D01*
X56641904Y-23835619D01*
X56689523Y-23930857D01*
X56689523Y-24026095D01*
X56641904Y-24168952D01*
X56070476Y-24740380D01*
X56689523Y-24740380D01*
X50014285Y-24232380D02*
X50014285Y-23232380D01*
X50585714Y-24232380D01*
X50585714Y-23232380D01*
X51633333Y-24137142D02*
X51585714Y-24184761D01*
X51442857Y-24232380D01*
X51347619Y-24232380D01*
X51204761Y-24184761D01*
X51109523Y-24089523D01*
X51061904Y-23994285D01*
X51014285Y-23803809D01*
X51014285Y-23660952D01*
X51061904Y-23470476D01*
X51109523Y-23375238D01*
X51204761Y-23280000D01*
X51347619Y-23232380D01*
X51442857Y-23232380D01*
X51585714Y-23280000D01*
X51633333Y-23327619D01*
X60150476Y-24232380D02*
X60150476Y-23232380D01*
X60721904Y-24232380D01*
X60721904Y-23232380D01*
X61388571Y-23232380D02*
X61579047Y-23232380D01*
X61674285Y-23280000D01*
X61769523Y-23375238D01*
X61817142Y-23565714D01*
X61817142Y-23899047D01*
X61769523Y-24089523D01*
X61674285Y-24184761D01*
X61579047Y-24232380D01*
X61388571Y-24232380D01*
X61293333Y-24184761D01*
X61198095Y-24089523D01*
X61150476Y-23899047D01*
X61150476Y-23565714D01*
X61198095Y-23375238D01*
X61293333Y-23280000D01*
X61388571Y-23232380D01*
%TO.C,U1*%
X40267142Y-23875714D02*
X42695714Y-23875714D01*
X42981428Y-23732857D01*
X43124285Y-23590000D01*
X43267142Y-23304285D01*
X43267142Y-22732857D01*
X43124285Y-22447142D01*
X42981428Y-22304285D01*
X42695714Y-22161428D01*
X40267142Y-22161428D01*
X43267142Y-19161428D02*
X43267142Y-20875714D01*
X43267142Y-20018571D02*
X40267142Y-20018571D01*
X40695714Y-20304285D01*
X40981428Y-20590000D01*
X41124285Y-20875714D01*
%TO.C,R9*%
X86161619Y-81923333D02*
X86637809Y-81590000D01*
X86161619Y-81351904D02*
X87161619Y-81351904D01*
X87161619Y-81732857D01*
X87114000Y-81828095D01*
X87066380Y-81875714D01*
X86971142Y-81923333D01*
X86828285Y-81923333D01*
X86733047Y-81875714D01*
X86685428Y-81828095D01*
X86637809Y-81732857D01*
X86637809Y-81351904D01*
X86161619Y-82399523D02*
X86161619Y-82590000D01*
X86209238Y-82685238D01*
X86256857Y-82732857D01*
X86399714Y-82828095D01*
X86590190Y-82875714D01*
X86971142Y-82875714D01*
X87066380Y-82828095D01*
X87114000Y-82780476D01*
X87161619Y-82685238D01*
X87161619Y-82494761D01*
X87114000Y-82399523D01*
X87066380Y-82351904D01*
X86971142Y-82304285D01*
X86733047Y-82304285D01*
X86637809Y-82351904D01*
X86590190Y-82399523D01*
X86542571Y-82494761D01*
X86542571Y-82685238D01*
X86590190Y-82780476D01*
X86637809Y-82828095D01*
X86733047Y-82875714D01*
%TO.C,R8*%
X102671619Y-81923333D02*
X103147809Y-81590000D01*
X102671619Y-81351904D02*
X103671619Y-81351904D01*
X103671619Y-81732857D01*
X103624000Y-81828095D01*
X103576380Y-81875714D01*
X103481142Y-81923333D01*
X103338285Y-81923333D01*
X103243047Y-81875714D01*
X103195428Y-81828095D01*
X103147809Y-81732857D01*
X103147809Y-81351904D01*
X103243047Y-82494761D02*
X103290666Y-82399523D01*
X103338285Y-82351904D01*
X103433523Y-82304285D01*
X103481142Y-82304285D01*
X103576380Y-82351904D01*
X103624000Y-82399523D01*
X103671619Y-82494761D01*
X103671619Y-82685238D01*
X103624000Y-82780476D01*
X103576380Y-82828095D01*
X103481142Y-82875714D01*
X103433523Y-82875714D01*
X103338285Y-82828095D01*
X103290666Y-82780476D01*
X103243047Y-82685238D01*
X103243047Y-82494761D01*
X103195428Y-82399523D01*
X103147809Y-82351904D01*
X103052571Y-82304285D01*
X102862095Y-82304285D01*
X102766857Y-82351904D01*
X102719238Y-82399523D01*
X102671619Y-82494761D01*
X102671619Y-82685238D01*
X102719238Y-82780476D01*
X102766857Y-82828095D01*
X102862095Y-82875714D01*
X103052571Y-82875714D01*
X103147809Y-82828095D01*
X103195428Y-82780476D01*
X103243047Y-82685238D01*
%TO.C,R7*%
X53141619Y-81923333D02*
X53617809Y-81590000D01*
X53141619Y-81351904D02*
X54141619Y-81351904D01*
X54141619Y-81732857D01*
X54094000Y-81828095D01*
X54046380Y-81875714D01*
X53951142Y-81923333D01*
X53808285Y-81923333D01*
X53713047Y-81875714D01*
X53665428Y-81828095D01*
X53617809Y-81732857D01*
X53617809Y-81351904D01*
X54141619Y-82256666D02*
X54141619Y-82923333D01*
X53141619Y-82494761D01*
%TO.C,R6*%
X69651619Y-81923333D02*
X70127809Y-81590000D01*
X69651619Y-81351904D02*
X70651619Y-81351904D01*
X70651619Y-81732857D01*
X70604000Y-81828095D01*
X70556380Y-81875714D01*
X70461142Y-81923333D01*
X70318285Y-81923333D01*
X70223047Y-81875714D01*
X70175428Y-81828095D01*
X70127809Y-81732857D01*
X70127809Y-81351904D01*
X70651619Y-82780476D02*
X70651619Y-82590000D01*
X70604000Y-82494761D01*
X70556380Y-82447142D01*
X70413523Y-82351904D01*
X70223047Y-82304285D01*
X69842095Y-82304285D01*
X69746857Y-82351904D01*
X69699238Y-82399523D01*
X69651619Y-82494761D01*
X69651619Y-82685238D01*
X69699238Y-82780476D01*
X69746857Y-82828095D01*
X69842095Y-82875714D01*
X70080190Y-82875714D01*
X70175428Y-82828095D01*
X70223047Y-82780476D01*
X70270666Y-82685238D01*
X70270666Y-82494761D01*
X70223047Y-82399523D01*
X70175428Y-82351904D01*
X70080190Y-82304285D01*
%TO.C,R5*%
X36631619Y-81923333D02*
X37107809Y-81590000D01*
X36631619Y-81351904D02*
X37631619Y-81351904D01*
X37631619Y-81732857D01*
X37584000Y-81828095D01*
X37536380Y-81875714D01*
X37441142Y-81923333D01*
X37298285Y-81923333D01*
X37203047Y-81875714D01*
X37155428Y-81828095D01*
X37107809Y-81732857D01*
X37107809Y-81351904D01*
X37631619Y-82828095D02*
X37631619Y-82351904D01*
X37155428Y-82304285D01*
X37203047Y-82351904D01*
X37250666Y-82447142D01*
X37250666Y-82685238D01*
X37203047Y-82780476D01*
X37155428Y-82828095D01*
X37060190Y-82875714D01*
X36822095Y-82875714D01*
X36726857Y-82828095D01*
X36679238Y-82780476D01*
X36631619Y-82685238D01*
X36631619Y-82447142D01*
X36679238Y-82351904D01*
X36726857Y-82304285D01*
%TO.C,R4*%
X26011619Y-80653333D02*
X26487809Y-80320000D01*
X26011619Y-80081904D02*
X27011619Y-80081904D01*
X27011619Y-80462857D01*
X26964000Y-80558095D01*
X26916380Y-80605714D01*
X26821142Y-80653333D01*
X26678285Y-80653333D01*
X26583047Y-80605714D01*
X26535428Y-80558095D01*
X26487809Y-80462857D01*
X26487809Y-80081904D01*
X26678285Y-81510476D02*
X26011619Y-81510476D01*
X27059238Y-81272380D02*
X26344952Y-81034285D01*
X26344952Y-81653333D01*
%TO.C,R3*%
X83621619Y-39203333D02*
X84097809Y-38870000D01*
X83621619Y-38631904D02*
X84621619Y-38631904D01*
X84621619Y-39012857D01*
X84574000Y-39108095D01*
X84526380Y-39155714D01*
X84431142Y-39203333D01*
X84288285Y-39203333D01*
X84193047Y-39155714D01*
X84145428Y-39108095D01*
X84097809Y-39012857D01*
X84097809Y-38631904D01*
X84621619Y-39536666D02*
X84621619Y-40155714D01*
X84240666Y-39822380D01*
X84240666Y-39965238D01*
X84193047Y-40060476D01*
X84145428Y-40108095D01*
X84050190Y-40155714D01*
X83812095Y-40155714D01*
X83716857Y-40108095D01*
X83669238Y-40060476D01*
X83621619Y-39965238D01*
X83621619Y-39679523D01*
X83669238Y-39584285D01*
X83716857Y-39536666D01*
%TO.C,R2*%
X65841619Y-39203333D02*
X66317809Y-38870000D01*
X65841619Y-38631904D02*
X66841619Y-38631904D01*
X66841619Y-39012857D01*
X66794000Y-39108095D01*
X66746380Y-39155714D01*
X66651142Y-39203333D01*
X66508285Y-39203333D01*
X66413047Y-39155714D01*
X66365428Y-39108095D01*
X66317809Y-39012857D01*
X66317809Y-38631904D01*
X66746380Y-39584285D02*
X66794000Y-39631904D01*
X66841619Y-39727142D01*
X66841619Y-39965238D01*
X66794000Y-40060476D01*
X66746380Y-40108095D01*
X66651142Y-40155714D01*
X66555904Y-40155714D01*
X66413047Y-40108095D01*
X65841619Y-39536666D01*
X65841619Y-40155714D01*
%TO.C,R1*%
X50601619Y-39203333D02*
X51077809Y-38870000D01*
X50601619Y-38631904D02*
X51601619Y-38631904D01*
X51601619Y-39012857D01*
X51554000Y-39108095D01*
X51506380Y-39155714D01*
X51411142Y-39203333D01*
X51268285Y-39203333D01*
X51173047Y-39155714D01*
X51125428Y-39108095D01*
X51077809Y-39012857D01*
X51077809Y-38631904D01*
X50601619Y-40155714D02*
X50601619Y-39584285D01*
X50601619Y-39870000D02*
X51601619Y-39870000D01*
X51458761Y-39774761D01*
X51363523Y-39679523D01*
X51315904Y-39584285D01*
%TO.C,A1*%
X37501533Y-28241714D02*
X37501533Y-28717904D01*
X37215819Y-28146476D02*
X38215819Y-28479809D01*
X37215819Y-28813142D01*
X37215819Y-29670285D02*
X37215819Y-29098857D01*
X37215819Y-29384571D02*
X38215819Y-29384571D01*
X38072961Y-29289333D01*
X37977723Y-29194095D01*
X37930104Y-29098857D01*
X31373819Y-26050952D02*
X32373819Y-26050952D01*
X31754771Y-26527142D02*
X31754771Y-27289047D01*
X31373819Y-26908095D02*
X32135723Y-26908095D01*
X31119819Y-51196952D02*
X32119819Y-51196952D01*
X31500771Y-51673142D02*
X31500771Y-52435047D01*
D12*
%TO.C,U16*%
X75438000Y-63246000D02*
X71120000Y-67818000D01*
X76962000Y-63246000D02*
X81280000Y-67818000D01*
%TO.C,U14*%
X91948000Y-63246000D02*
X87630000Y-67818000D01*
X93472000Y-63246000D02*
X97790000Y-67818000D01*
%TO.C,U12*%
X42418000Y-63246000D02*
X38100000Y-67818000D01*
X43942000Y-63246000D02*
X48260000Y-67818000D01*
%TO.C,U10*%
X58928000Y-63246000D02*
X54610000Y-67818000D01*
X60452000Y-63246000D02*
X64770000Y-67818000D01*
%TO.C,U8*%
X25908000Y-63246000D02*
X21590000Y-67818000D01*
X27432000Y-63246000D02*
X31750000Y-67818000D01*
%TO.C,U6*%
X90932000Y-20526000D02*
X95250000Y-25098000D01*
X89408000Y-20526000D02*
X85090000Y-25098000D01*
%TO.C,U4*%
X74422000Y-20526000D02*
X78740000Y-25098000D01*
X72898000Y-20526000D02*
X68580000Y-25098000D01*
%TO.C,U2*%
X56642000Y-20986000D02*
X60960000Y-25558000D01*
X55118000Y-20986000D02*
X50800000Y-25558000D01*
%TO.C,U1*%
X47910000Y-21590000D02*
G75*
G03*
X47910000Y-21590000I-6000000J0D01*
G01*
%TO.C,R9*%
X85550000Y-74090000D02*
X79550000Y-74090000D01*
X79550000Y-74090000D02*
X79550000Y-90090000D01*
X79550000Y-90090000D02*
X85550000Y-90090000D01*
X85550000Y-90090000D02*
X85550000Y-74090000D01*
X82550000Y-90090000D02*
X82550000Y-91234000D01*
X82550000Y-74090000D02*
X82550000Y-72946000D01*
%TO.C,R8*%
X102060000Y-74090000D02*
X96060000Y-74090000D01*
X96060000Y-74090000D02*
X96060000Y-90090000D01*
X96060000Y-90090000D02*
X102060000Y-90090000D01*
X102060000Y-90090000D02*
X102060000Y-74090000D01*
X99060000Y-90090000D02*
X99060000Y-91234000D01*
X99060000Y-74090000D02*
X99060000Y-72946000D01*
%TO.C,R7*%
X52530000Y-74090000D02*
X46530000Y-74090000D01*
X46530000Y-74090000D02*
X46530000Y-90090000D01*
X46530000Y-90090000D02*
X52530000Y-90090000D01*
X52530000Y-90090000D02*
X52530000Y-74090000D01*
X49530000Y-90090000D02*
X49530000Y-91234000D01*
X49530000Y-74090000D02*
X49530000Y-72946000D01*
%TO.C,R6*%
X69040000Y-74090000D02*
X63040000Y-74090000D01*
X63040000Y-74090000D02*
X63040000Y-90090000D01*
X63040000Y-90090000D02*
X69040000Y-90090000D01*
X69040000Y-90090000D02*
X69040000Y-74090000D01*
X66040000Y-90090000D02*
X66040000Y-91234000D01*
X66040000Y-74090000D02*
X66040000Y-72946000D01*
%TO.C,R5*%
X36020000Y-74090000D02*
X30020000Y-74090000D01*
X30020000Y-74090000D02*
X30020000Y-90090000D01*
X30020000Y-90090000D02*
X36020000Y-90090000D01*
X36020000Y-90090000D02*
X36020000Y-74090000D01*
X33020000Y-90090000D02*
X33020000Y-91234000D01*
X33020000Y-74090000D02*
X33020000Y-72946000D01*
%TO.C,R4*%
X99520000Y-31370000D02*
X93520000Y-31370000D01*
X93520000Y-31370000D02*
X93520000Y-47370000D01*
X93520000Y-47370000D02*
X99520000Y-47370000D01*
X99520000Y-47370000D02*
X99520000Y-31370000D01*
X96520000Y-47370000D02*
X96520000Y-48514000D01*
X96520000Y-31370000D02*
X96520000Y-30226000D01*
%TO.C,R3*%
X80010000Y-31370000D02*
X80010000Y-30226000D01*
X80010000Y-47370000D02*
X80010000Y-48514000D01*
X83010000Y-31370000D02*
X77010000Y-31370000D01*
X77010000Y-31370000D02*
X77010000Y-47370000D01*
X77010000Y-47370000D02*
X83010000Y-47370000D01*
X83010000Y-47370000D02*
X83010000Y-31370000D01*
%TO.C,R2*%
X62230000Y-31370000D02*
X62230000Y-30226000D01*
X62230000Y-47370000D02*
X62230000Y-48514000D01*
X65230000Y-31370000D02*
X59230000Y-31370000D01*
X59230000Y-31370000D02*
X59230000Y-47370000D01*
X59230000Y-47370000D02*
X65230000Y-47370000D01*
X65230000Y-47370000D02*
X65230000Y-31370000D01*
%TO.C,R1*%
X49990000Y-31370000D02*
X43990000Y-31370000D01*
X43990000Y-31370000D02*
X43990000Y-47370000D01*
X43990000Y-47370000D02*
X49990000Y-47370000D01*
X49990000Y-47370000D02*
X49990000Y-31370000D01*
X46990000Y-47370000D02*
X46990000Y-48514000D01*
X46990000Y-31370000D02*
X46990000Y-30226000D01*
%TO.C,A1*%
X30048200Y-29116000D02*
X30048200Y-49116000D01*
X40048200Y-39116000D02*
G75*
G03*
X40048200Y-39116000I-10000000J0D01*
G01*
%TD*%
M02*
