M48
; DRILL file {KiCad (6.0.7)} date Mon Sep  5 15:07:58 2022
; FORMAT={-:-/ absolute / metric / decimal}
; #@! TF.CreationDate,2022-09-05T15:07:58+08:00
; #@! TF.GenerationSoftware,Kicad,Pcbnew,(6.0.7)
; #@! TF.FileFunction,Plated,1,2,PTH
FMAT,2
METRIC
; #@! TA.AperFunction,Plated,PTH,ComponentDrill
T1C0.762
%
G90
G05
T1
X29.54Y-54.105
X29.54Y-60.105
X29.56Y-46.64
X29.56Y-67.66
X35.56Y-40.64
X35.56Y-73.66
X41.56Y-46.64
X41.56Y-67.66
X45.138Y-83.944
X46.705Y-67.539
X46.761Y-46.99
X46.761Y-53.391
X46.761Y-59.391
X47.328Y-30.886
X52.705Y-73.539
X52.761Y-40.99
X58.705Y-67.539
X58.761Y-46.99
X65.138Y-83.944
X67.31Y-47.074
X67.31Y-67.074
X67.328Y-30.886
X69.273Y-83.947
X69.832Y-30.886
X82.443Y-67.818
X82.55Y-53.34
X82.55Y-59.34
X82.9Y-46.64
X88.443Y-73.818
X88.9Y-40.64
X89.273Y-83.947
X89.832Y-30.886
X94.443Y-67.818
X94.9Y-46.64
X99.562Y-46.815
X99.949Y-54.252
X99.949Y-60.252
X100.02Y-67.92
X105.562Y-40.815
X106.02Y-73.92
X111.562Y-46.815
X112.02Y-67.92
T0
M30
