%TF.GenerationSoftware,KiCad,Pcbnew,(6.0.7)*%
%TF.CreationDate,2022-09-05T15:07:55+08:00*%
%TF.ProjectId,6_5,365f352e-6b69-4636-9164-5f7063625858,rev?*%
%TF.SameCoordinates,Original*%
%TF.FileFunction,Copper,L1,Top*%
%TF.FilePolarity,Positive*%
%FSLAX46Y46*%
G04 Gerber Fmt 4.6, Leading zero omitted, Abs format (unit mm)*
G04 Created by KiCad (PCBNEW (6.0.7)) date 2022-09-05 15:07:55*
%MOMM*%
%LPD*%
G01*
G04 APERTURE LIST*
%TA.AperFunction,NonConductor*%
%ADD10C,0.200000*%
%TD*%
%TA.AperFunction,ComponentPad*%
%ADD11C,1.524000*%
%TD*%
%TA.AperFunction,Conductor*%
%ADD12C,0.250000*%
%TD*%
G04 APERTURE END LIST*
D10*
X191160400Y-114833400D02*
X191160400Y-114833400D01*
X191160400Y-114833400D02*
X191160400Y-114833400D01*
X191160400Y-114833400D02*
X191160400Y-114833400D01*
X191160400Y-114833400D02*
X191160400Y-114833400D01*
D11*
%TO.P,ES2,1,+*%
%TO.N,Net-(U6-Pad3)*%
X82550000Y-53340000D03*
%TO.P,ES2,2,-*%
%TO.N,Net-(U7-Pad3)*%
X82550000Y-59340000D03*
%TD*%
%TO.P,U7,1,Com*%
%TO.N,Net-(R5-Pad2)*%
X88442800Y-73818000D03*
%TO.P,U7,2,NC*%
%TO.N,unconnected-(U7-Pad2)*%
X94442800Y-67818000D03*
%TO.P,U7,3,NO*%
%TO.N,Net-(U7-Pad3)*%
X82442800Y-67818000D03*
%TD*%
%TO.P,MM1,1,+*%
%TO.N,Net-(U3-Pad3)*%
X46761400Y-53390800D03*
%TO.P,MM1,2,-*%
%TO.N,Net-(U4-Pad3)*%
X46761400Y-59390800D03*
%TD*%
%TO.P,R1,1*%
%TO.N,Net-(R1-Pad1)*%
X47327800Y-30886400D03*
%TO.P,R1,2*%
%TO.N,Net-(R2-Pad1)*%
X67327800Y-30886400D03*
%TD*%
%TO.P,R4,1*%
%TO.N,Net-(R4-Pad1)*%
X45137800Y-83944200D03*
%TO.P,R4,2*%
%TO.N,Net-(R4-Pad2)*%
X65137800Y-83944200D03*
%TD*%
%TO.P,U10,1,Com*%
%TO.N,Net-(R5-Pad2)*%
X106019600Y-73919600D03*
%TO.P,U10,2,NC*%
%TO.N,unconnected-(U10-Pad2)*%
X112019600Y-67919600D03*
%TO.P,U10,3,NO*%
%TO.N,Net-(U10-Pad3)*%
X100019600Y-67919600D03*
%TD*%
%TO.P,Es1,1,+*%
%TO.N,Net-(U1-Pad3)*%
X29540200Y-54104800D03*
%TO.P,Es1,2,-*%
%TO.N,Net-(U2-Pad3)*%
X29540200Y-60104800D03*
%TD*%
%TO.P,U2,1,Com*%
%TO.N,Net-(R4-Pad1)*%
X35560000Y-73660000D03*
%TO.P,U2,2,NC*%
%TO.N,unconnected-(U2-Pad2)*%
X41560000Y-67660000D03*
%TO.P,U2,3,NO*%
%TO.N,Net-(U2-Pad3)*%
X29560000Y-67660000D03*
%TD*%
%TO.P,MM2,1,+*%
%TO.N,Net-(U8-Pad1)*%
X99949000Y-54251600D03*
%TO.P,MM2,2,-*%
%TO.N,Net-(U10-Pad3)*%
X99949000Y-60251600D03*
%TD*%
%TO.P,R3,1*%
%TO.N,Net-(R2-Pad1)*%
X67310000Y-47073800D03*
%TO.P,R3,2*%
%TO.N,Net-(R4-Pad2)*%
X67310000Y-67073800D03*
%TD*%
%TO.P,R2,1*%
%TO.N,Net-(R2-Pad1)*%
X69832200Y-30886400D03*
%TO.P,R2,2*%
%TO.N,Net-(R2-Pad2)*%
X89832200Y-30886400D03*
%TD*%
%TO.P,U4,1,Com*%
%TO.N,Net-(R4-Pad1)*%
X52705000Y-73538600D03*
%TO.P,U4,2,NC*%
%TO.N,unconnected-(U4-Pad2)*%
X58705000Y-67538600D03*
%TO.P,U4,3,NO*%
%TO.N,Net-(U4-Pad3)*%
X46705000Y-67538600D03*
%TD*%
%TO.P,R5,1*%
%TO.N,Net-(R4-Pad2)*%
X69273400Y-83947000D03*
%TO.P,R5,2*%
%TO.N,Net-(R5-Pad2)*%
X89273400Y-83947000D03*
%TD*%
%TO.P,U3,1,Com*%
%TO.N,Net-(R1-Pad1)*%
X52761400Y-40990000D03*
%TO.P,U3,2,NC*%
%TO.N,unconnected-(U3-Pad2)*%
X58761400Y-46990000D03*
%TO.P,U3,3,NO*%
%TO.N,Net-(U3-Pad3)*%
X46761400Y-46990000D03*
%TD*%
%TO.P,U6,1,Com*%
%TO.N,Net-(R2-Pad2)*%
X88900000Y-40640000D03*
%TO.P,U6,2,NC*%
%TO.N,unconnected-(U6-Pad2)*%
X94900000Y-46640000D03*
%TO.P,U6,3,NO*%
%TO.N,Net-(U6-Pad3)*%
X82900000Y-46640000D03*
%TD*%
%TO.P,U1,1,Com*%
%TO.N,Net-(R1-Pad1)*%
X35560000Y-40640000D03*
%TO.P,U1,2,NC*%
%TO.N,unconnected-(U1-Pad2)*%
X41560000Y-46640000D03*
%TO.P,U1,3,NO*%
%TO.N,Net-(U1-Pad3)*%
X29560000Y-46640000D03*
%TD*%
%TO.P,U9,1,Com*%
%TO.N,Net-(R2-Pad2)*%
X105562400Y-40815000D03*
%TO.P,U9,2,NC*%
%TO.N,unconnected-(U9-Pad2)*%
X111562400Y-46815000D03*
%TO.P,U9,3,NO*%
%TO.N,Net-(U8-Pad1)*%
X99562400Y-46815000D03*
%TD*%
D12*
%TO.N,Net-(R1-Pad1)*%
X47327800Y-30886400D02*
X47327800Y-39072800D01*
X49245000Y-40990000D02*
X52761400Y-40990000D01*
X47327800Y-39072800D02*
X49245000Y-40990000D01*
X35560000Y-34290000D02*
X35560000Y-40640000D01*
X38963600Y-30886400D02*
X35560000Y-34290000D01*
X47327800Y-30886400D02*
X38963600Y-30886400D01*
%TO.N,Net-(R2-Pad1)*%
X67327800Y-30886400D02*
X67327800Y-47056000D01*
X67327800Y-47056000D02*
X67310000Y-47073800D01*
X67327800Y-30886400D02*
X69832200Y-30886400D01*
%TO.N,Net-(R2-Pad2)*%
X88900000Y-40640000D02*
X105387400Y-40640000D01*
X89832200Y-39707800D02*
X88900000Y-40640000D01*
X89832200Y-30886400D02*
X89832200Y-39707800D01*
X105387400Y-40640000D02*
X105562400Y-40815000D01*
%TO.N,Net-(R4-Pad2)*%
X67310000Y-81983600D02*
X69273400Y-83947000D01*
X69270600Y-83944200D02*
X69273400Y-83947000D01*
X65137800Y-83944200D02*
X69270600Y-83944200D01*
X67310000Y-67073800D02*
X67310000Y-81983600D01*
%TO.N,Net-(R4-Pad1)*%
X36954200Y-83944200D02*
X45137800Y-83944200D01*
X35636200Y-73640200D02*
X35636200Y-82626200D01*
X46476400Y-73538600D02*
X52705000Y-73538600D01*
X45137800Y-74877200D02*
X46476400Y-73538600D01*
X45137800Y-83944200D02*
X45137800Y-74877200D01*
X35636200Y-82626200D02*
X36954200Y-83944200D01*
%TO.N,Net-(R5-Pad2)*%
X89273400Y-83947000D02*
X89273400Y-74648600D01*
X89273400Y-74648600D02*
X88442800Y-73818000D01*
X88544400Y-73919600D02*
X88442800Y-73818000D01*
X106019600Y-73919600D02*
X88544400Y-73919600D01*
%TO.N,Net-(U1-Pad3)*%
X29560000Y-46640000D02*
X29560000Y-54085000D01*
%TO.N,Net-(U2-Pad3)*%
X29540200Y-67544200D02*
X29636200Y-67640200D01*
X29540200Y-60104800D02*
X29540200Y-67544200D01*
%TO.N,Net-(U3-Pad3)*%
X46761400Y-46990000D02*
X46761400Y-53390800D01*
%TO.N,Net-(U4-Pad3)*%
X46761400Y-59390800D02*
X46761400Y-67482200D01*
X46761400Y-67482200D02*
X46705000Y-67538600D01*
%TO.N,Net-(U6-Pad3)*%
X82900000Y-52990000D02*
X82550000Y-53340000D01*
X82900000Y-46640000D02*
X82900000Y-52990000D01*
%TO.N,Net-(U7-Pad3)*%
X82473800Y-59667400D02*
X82473800Y-67787000D01*
%TO.N,Net-(U8-Pad1)*%
X99562400Y-46815000D02*
X99562400Y-54742600D01*
%TO.N,Net-(U10-Pad3)*%
X99949000Y-67849000D02*
X100019600Y-67919600D01*
X99949000Y-60251600D02*
X99949000Y-67849000D01*
%TD*%
M02*
