%TF.GenerationSoftware,KiCad,Pcbnew,(6.0.7)*%
%TF.CreationDate,2022-09-05T15:07:55+08:00*%
%TF.ProjectId,6_5,365f352e-6b69-4636-9164-5f7063625858,rev?*%
%TF.SameCoordinates,Original*%
%TF.FileFunction,Legend,Top*%
%TF.FilePolarity,Positive*%
%FSLAX46Y46*%
G04 Gerber Fmt 4.6, Leading zero omitted, Abs format (unit mm)*
G04 Created by KiCad (PCBNEW (6.0.7)) date 2022-09-05 15:07:55*
%MOMM*%
%LPD*%
G01*
G04 APERTURE LIST*
%ADD10C,0.300000*%
%ADD11C,0.150000*%
%ADD12C,0.120000*%
G04 APERTURE END LIST*
D10*
X51732685Y-98963504D02*
X50780304Y-98963504D01*
X50304114Y-99201600D01*
X50066019Y-99439695D01*
X49589828Y-100153980D01*
X49351733Y-101106361D01*
X49351733Y-103011123D01*
X49589828Y-103487314D01*
X49827923Y-103725409D01*
X50304114Y-103963504D01*
X51256495Y-103963504D01*
X51732685Y-103725409D01*
X51970780Y-103487314D01*
X52208876Y-103011123D01*
X52208876Y-101820647D01*
X51970780Y-101344457D01*
X51732685Y-101106361D01*
X51256495Y-100868266D01*
X50304114Y-100868266D01*
X49827923Y-101106361D01*
X49589828Y-101344457D01*
X49351733Y-101820647D01*
X54351733Y-103487314D02*
X54589828Y-103725409D01*
X54351733Y-103963504D01*
X54113638Y-103725409D01*
X54351733Y-103487314D01*
X54351733Y-103963504D01*
X59113638Y-98963504D02*
X56732685Y-98963504D01*
X56494590Y-101344457D01*
X56732685Y-101106361D01*
X57208876Y-100868266D01*
X58399352Y-100868266D01*
X58875542Y-101106361D01*
X59113638Y-101344457D01*
X59351733Y-101820647D01*
X59351733Y-103011123D01*
X59113638Y-103487314D01*
X58875542Y-103725409D01*
X58399352Y-103963504D01*
X57208876Y-103963504D01*
X56732685Y-103725409D01*
X56494590Y-103487314D01*
X64827923Y-98963504D02*
X70542209Y-98963504D01*
X65780304Y-102534933D02*
X69113638Y-102534933D01*
X64589828Y-103963504D02*
X70780304Y-103963504D01*
X66494590Y-98963504D02*
X65780304Y-102773028D01*
X66256495Y-100392076D02*
X69351733Y-100392076D01*
X69113638Y-101582552D01*
X68875542Y-103963504D01*
X73161257Y-99677790D02*
X77685066Y-99677790D01*
X73161257Y-100868266D02*
X77685066Y-100868266D01*
X76494590Y-103963504D02*
X77685066Y-103963504D01*
X73161257Y-98725409D02*
X73161257Y-100868266D01*
X73161257Y-98725409D02*
X77685066Y-98725409D01*
X77685066Y-100868266D01*
X75066019Y-101820647D02*
X73161257Y-103725409D01*
X72685066Y-103725409D01*
X73161257Y-101820647D02*
X78161257Y-101820647D01*
X77923161Y-103963504D01*
X74113638Y-100868266D02*
X72923161Y-102058742D01*
X71970780Y-102534933D01*
X76494590Y-101820647D02*
X76018400Y-102773028D01*
X75066019Y-103963504D01*
X80542209Y-100392076D02*
X84589828Y-100392076D01*
X82923161Y-101820647D02*
X84827923Y-101820647D01*
X79589828Y-99201600D02*
X79589828Y-100153980D01*
X82685066Y-100392076D02*
X82685066Y-103725409D01*
X79589828Y-99201600D02*
X85304114Y-99201600D01*
X85304114Y-100153980D01*
X82446971Y-98249219D02*
X82446971Y-99201600D01*
X80780304Y-101344457D02*
X79827923Y-103725409D01*
X80542209Y-102534933D02*
X81732685Y-103487314D01*
X84113638Y-103963504D01*
X85542209Y-103963504D01*
X86732685Y-98963504D02*
X88637447Y-98963504D01*
X89351733Y-99915885D02*
X92685066Y-99915885D01*
X86732685Y-100868266D02*
X88637447Y-100868266D01*
X89351733Y-101344457D02*
X92685066Y-101344457D01*
X89351733Y-102534933D02*
X92446971Y-102534933D01*
X88637447Y-103963504D02*
X92923161Y-103963504D01*
X87685066Y-98963504D02*
X87685066Y-103011123D01*
X89351733Y-98725409D02*
X89351733Y-101344457D01*
X91018400Y-98725409D02*
X91018400Y-103963504D01*
X89351733Y-98725409D02*
X92685066Y-98725409D01*
X92685066Y-101344457D01*
X88637447Y-103011123D02*
X86732685Y-103249219D01*
D11*
%TO.C,ES2*%
X79202400Y-56125714D02*
X80202400Y-56125714D01*
X80630971Y-57697142D02*
X79202400Y-57697142D01*
X79202400Y-54697142D01*
X80630971Y-54697142D01*
X81773828Y-57554285D02*
X82202400Y-57697142D01*
X82916685Y-57697142D01*
X83202400Y-57554285D01*
X83345257Y-57411428D01*
X83488114Y-57125714D01*
X83488114Y-56840000D01*
X83345257Y-56554285D01*
X83202400Y-56411428D01*
X82916685Y-56268571D01*
X82345257Y-56125714D01*
X82059542Y-55982857D01*
X81916685Y-55840000D01*
X81773828Y-55554285D01*
X81773828Y-55268571D01*
X81916685Y-54982857D01*
X82059542Y-54840000D01*
X82345257Y-54697142D01*
X83059542Y-54697142D01*
X83488114Y-54840000D01*
X84630971Y-54982857D02*
X84773828Y-54840000D01*
X85059542Y-54697142D01*
X85773828Y-54697142D01*
X86059542Y-54840000D01*
X86202400Y-54982857D01*
X86345257Y-55268571D01*
X86345257Y-55554285D01*
X86202400Y-55982857D01*
X84488114Y-57697142D01*
X86345257Y-57697142D01*
X79565619Y-52744380D02*
X79898952Y-53744380D01*
X80232285Y-52744380D01*
X80565619Y-53363428D02*
X81327523Y-53363428D01*
X80946571Y-53744380D02*
X80946571Y-52982476D01*
X79819619Y-58840380D02*
X80152952Y-59840380D01*
X80486285Y-58840380D01*
X80819619Y-59459428D02*
X81581523Y-59459428D01*
%TO.C,U7*%
X87680895Y-66259980D02*
X87680895Y-67069504D01*
X87728514Y-67164742D01*
X87776133Y-67212361D01*
X87871371Y-67259980D01*
X88061847Y-67259980D01*
X88157085Y-67212361D01*
X88204704Y-67164742D01*
X88252323Y-67069504D01*
X88252323Y-66259980D01*
X88633276Y-66259980D02*
X89299942Y-66259980D01*
X88871371Y-67259980D01*
X81613476Y-70584580D02*
X81613476Y-69584580D01*
X82184904Y-70584580D01*
X82184904Y-69584580D01*
X82851571Y-69584580D02*
X83042047Y-69584580D01*
X83137285Y-69632200D01*
X83232523Y-69727438D01*
X83280142Y-69917914D01*
X83280142Y-70251247D01*
X83232523Y-70441723D01*
X83137285Y-70536961D01*
X83042047Y-70584580D01*
X82851571Y-70584580D01*
X82756333Y-70536961D01*
X82661095Y-70441723D01*
X82613476Y-70251247D01*
X82613476Y-69917914D01*
X82661095Y-69727438D01*
X82756333Y-69632200D01*
X82851571Y-69584580D01*
X93956285Y-70508380D02*
X93956285Y-69508380D01*
X94527714Y-70508380D01*
X94527714Y-69508380D01*
X95575333Y-70413142D02*
X95527714Y-70460761D01*
X95384857Y-70508380D01*
X95289619Y-70508380D01*
X95146761Y-70460761D01*
X95051523Y-70365523D01*
X95003904Y-70270285D01*
X94956285Y-70079809D01*
X94956285Y-69936952D01*
X95003904Y-69746476D01*
X95051523Y-69651238D01*
X95146761Y-69556000D01*
X95289619Y-69508380D01*
X95384857Y-69508380D01*
X95527714Y-69556000D01*
X95575333Y-69603619D01*
%TO.C,MM1*%
X42618542Y-57747942D02*
X42618542Y-54747942D01*
X43618542Y-56890800D01*
X44618542Y-54747942D01*
X44618542Y-57747942D01*
X46047114Y-57747942D02*
X46047114Y-54747942D01*
X47047114Y-56890800D01*
X48047114Y-54747942D01*
X48047114Y-57747942D01*
X51047114Y-57747942D02*
X49332828Y-57747942D01*
X50189971Y-57747942D02*
X50189971Y-54747942D01*
X49904257Y-55176514D01*
X49618542Y-55462228D01*
X49332828Y-55605085D01*
%TO.C,R1*%
X57161133Y-27274780D02*
X56827800Y-26798590D01*
X56589704Y-27274780D02*
X56589704Y-26274780D01*
X56970657Y-26274780D01*
X57065895Y-26322400D01*
X57113514Y-26370019D01*
X57161133Y-26465257D01*
X57161133Y-26608114D01*
X57113514Y-26703352D01*
X57065895Y-26750971D01*
X56970657Y-26798590D01*
X56589704Y-26798590D01*
X58113514Y-27274780D02*
X57542085Y-27274780D01*
X57827800Y-27274780D02*
X57827800Y-26274780D01*
X57732561Y-26417638D01*
X57637323Y-26512876D01*
X57542085Y-26560495D01*
%TO.C,R4*%
X54971133Y-80332580D02*
X54637800Y-79856390D01*
X54399704Y-80332580D02*
X54399704Y-79332580D01*
X54780657Y-79332580D01*
X54875895Y-79380200D01*
X54923514Y-79427819D01*
X54971133Y-79523057D01*
X54971133Y-79665914D01*
X54923514Y-79761152D01*
X54875895Y-79808771D01*
X54780657Y-79856390D01*
X54399704Y-79856390D01*
X55828276Y-79665914D02*
X55828276Y-80332580D01*
X55590180Y-79284961D02*
X55352085Y-79999247D01*
X55971133Y-79999247D01*
%TO.C,U10*%
X104792704Y-66361580D02*
X104792704Y-67171104D01*
X104840323Y-67266342D01*
X104887942Y-67313961D01*
X104983180Y-67361580D01*
X105173657Y-67361580D01*
X105268895Y-67313961D01*
X105316514Y-67266342D01*
X105364133Y-67171104D01*
X105364133Y-66361580D01*
X106364133Y-67361580D02*
X105792704Y-67361580D01*
X106078419Y-67361580D02*
X106078419Y-66361580D01*
X105983180Y-66504438D01*
X105887942Y-66599676D01*
X105792704Y-66647295D01*
X106983180Y-66361580D02*
X107078419Y-66361580D01*
X107173657Y-66409200D01*
X107221276Y-66456819D01*
X107268895Y-66552057D01*
X107316514Y-66742533D01*
X107316514Y-66980628D01*
X107268895Y-67171104D01*
X107221276Y-67266342D01*
X107173657Y-67313961D01*
X107078419Y-67361580D01*
X106983180Y-67361580D01*
X106887942Y-67313961D01*
X106840323Y-67266342D01*
X106792704Y-67171104D01*
X106745085Y-66980628D01*
X106745085Y-66742533D01*
X106792704Y-66552057D01*
X106840323Y-66456819D01*
X106887942Y-66409200D01*
X106983180Y-66361580D01*
X101749123Y-70007219D02*
X101749123Y-71007219D01*
X101177695Y-70007219D01*
X101177695Y-71007219D01*
X100511028Y-71007219D02*
X100320552Y-71007219D01*
X100225314Y-70959600D01*
X100130076Y-70864361D01*
X100082457Y-70673885D01*
X100082457Y-70340552D01*
X100130076Y-70150076D01*
X100225314Y-70054838D01*
X100320552Y-70007219D01*
X100511028Y-70007219D01*
X100606266Y-70054838D01*
X100701504Y-70150076D01*
X100749123Y-70340552D01*
X100749123Y-70673885D01*
X100701504Y-70864361D01*
X100606266Y-70959600D01*
X100511028Y-71007219D01*
X111885314Y-70007219D02*
X111885314Y-71007219D01*
X111313885Y-70007219D01*
X111313885Y-71007219D01*
X110266266Y-70102457D02*
X110313885Y-70054838D01*
X110456742Y-70007219D01*
X110551980Y-70007219D01*
X110694838Y-70054838D01*
X110790076Y-70150076D01*
X110837695Y-70245314D01*
X110885314Y-70435790D01*
X110885314Y-70578647D01*
X110837695Y-70769123D01*
X110790076Y-70864361D01*
X110694838Y-70959600D01*
X110551980Y-71007219D01*
X110456742Y-71007219D01*
X110313885Y-70959600D01*
X110266266Y-70911980D01*
%TO.C,Es1*%
X25873485Y-56707114D02*
X26873485Y-56707114D01*
X27302057Y-58278542D02*
X25873485Y-58278542D01*
X25873485Y-55278542D01*
X27302057Y-55278542D01*
X28444914Y-58135685D02*
X28730628Y-58278542D01*
X29302057Y-58278542D01*
X29587771Y-58135685D01*
X29730628Y-57849971D01*
X29730628Y-57707114D01*
X29587771Y-57421400D01*
X29302057Y-57278542D01*
X28873485Y-57278542D01*
X28587771Y-57135685D01*
X28444914Y-56849971D01*
X28444914Y-56707114D01*
X28587771Y-56421400D01*
X28873485Y-56278542D01*
X29302057Y-56278542D01*
X29587771Y-56421400D01*
X32587771Y-58278542D02*
X30873485Y-58278542D01*
X31730628Y-58278542D02*
X31730628Y-55278542D01*
X31444914Y-55707114D01*
X31159200Y-55992828D01*
X30873485Y-56135685D01*
X26555819Y-53509180D02*
X26889152Y-54509180D01*
X27222485Y-53509180D01*
X27555819Y-54128228D02*
X28317723Y-54128228D01*
X27936771Y-54509180D02*
X27936771Y-53747276D01*
X26809819Y-59605180D02*
X27143152Y-60605180D01*
X27476485Y-59605180D01*
X27809819Y-60224228D02*
X28571723Y-60224228D01*
%TO.C,U2*%
X34809295Y-66113180D02*
X34809295Y-66922704D01*
X34856914Y-67017942D01*
X34904533Y-67065561D01*
X34999771Y-67113180D01*
X35190247Y-67113180D01*
X35285485Y-67065561D01*
X35333104Y-67017942D01*
X35380723Y-66922704D01*
X35380723Y-66113180D01*
X35809295Y-66208419D02*
X35856914Y-66160800D01*
X35952152Y-66113180D01*
X36190247Y-66113180D01*
X36285485Y-66160800D01*
X36333104Y-66208419D01*
X36380723Y-66303657D01*
X36380723Y-66398895D01*
X36333104Y-66541752D01*
X35761676Y-67113180D01*
X36380723Y-67113180D01*
X31289523Y-69747619D02*
X31289523Y-70747619D01*
X30718095Y-69747619D01*
X30718095Y-70747619D01*
X30051428Y-70747619D02*
X29860952Y-70747619D01*
X29765714Y-70700000D01*
X29670476Y-70604761D01*
X29622857Y-70414285D01*
X29622857Y-70080952D01*
X29670476Y-69890476D01*
X29765714Y-69795238D01*
X29860952Y-69747619D01*
X30051428Y-69747619D01*
X30146666Y-69795238D01*
X30241904Y-69890476D01*
X30289523Y-70080952D01*
X30289523Y-70414285D01*
X30241904Y-70604761D01*
X30146666Y-70700000D01*
X30051428Y-70747619D01*
X41425714Y-69747619D02*
X41425714Y-70747619D01*
X40854285Y-69747619D01*
X40854285Y-70747619D01*
X39806666Y-69842857D02*
X39854285Y-69795238D01*
X39997142Y-69747619D01*
X40092380Y-69747619D01*
X40235238Y-69795238D01*
X40330476Y-69890476D01*
X40378095Y-69985714D01*
X40425714Y-70176190D01*
X40425714Y-70319047D01*
X40378095Y-70509523D01*
X40330476Y-70604761D01*
X40235238Y-70700000D01*
X40092380Y-70747619D01*
X39997142Y-70747619D01*
X39854285Y-70700000D01*
X39806666Y-70652380D01*
%TO.C,MM2*%
X95806142Y-58608742D02*
X95806142Y-55608742D01*
X96806142Y-57751600D01*
X97806142Y-55608742D01*
X97806142Y-58608742D01*
X99234714Y-58608742D02*
X99234714Y-55608742D01*
X100234714Y-57751600D01*
X101234714Y-55608742D01*
X101234714Y-58608742D01*
X102520428Y-55894457D02*
X102663285Y-55751600D01*
X102949000Y-55608742D01*
X103663285Y-55608742D01*
X103949000Y-55751600D01*
X104091857Y-55894457D01*
X104234714Y-56180171D01*
X104234714Y-56465885D01*
X104091857Y-56894457D01*
X102377571Y-58608742D01*
X104234714Y-58608742D01*
%TO.C,R3*%
X70921619Y-56907133D02*
X71397809Y-56573800D01*
X70921619Y-56335704D02*
X71921619Y-56335704D01*
X71921619Y-56716657D01*
X71874000Y-56811895D01*
X71826380Y-56859514D01*
X71731142Y-56907133D01*
X71588285Y-56907133D01*
X71493047Y-56859514D01*
X71445428Y-56811895D01*
X71397809Y-56716657D01*
X71397809Y-56335704D01*
X71921619Y-57240466D02*
X71921619Y-57859514D01*
X71540666Y-57526180D01*
X71540666Y-57669038D01*
X71493047Y-57764276D01*
X71445428Y-57811895D01*
X71350190Y-57859514D01*
X71112095Y-57859514D01*
X71016857Y-57811895D01*
X70969238Y-57764276D01*
X70921619Y-57669038D01*
X70921619Y-57383323D01*
X70969238Y-57288085D01*
X71016857Y-57240466D01*
%TO.C,R2*%
X79665533Y-27274780D02*
X79332200Y-26798590D01*
X79094104Y-27274780D02*
X79094104Y-26274780D01*
X79475057Y-26274780D01*
X79570295Y-26322400D01*
X79617914Y-26370019D01*
X79665533Y-26465257D01*
X79665533Y-26608114D01*
X79617914Y-26703352D01*
X79570295Y-26750971D01*
X79475057Y-26798590D01*
X79094104Y-26798590D01*
X80046485Y-26370019D02*
X80094104Y-26322400D01*
X80189342Y-26274780D01*
X80427438Y-26274780D01*
X80522676Y-26322400D01*
X80570295Y-26370019D01*
X80617914Y-26465257D01*
X80617914Y-26560495D01*
X80570295Y-26703352D01*
X79998866Y-27274780D01*
X80617914Y-27274780D01*
%TO.C,U4*%
X51954295Y-65991780D02*
X51954295Y-66801304D01*
X52001914Y-66896542D01*
X52049533Y-66944161D01*
X52144771Y-66991780D01*
X52335247Y-66991780D01*
X52430485Y-66944161D01*
X52478104Y-66896542D01*
X52525723Y-66801304D01*
X52525723Y-65991780D01*
X53430485Y-66325114D02*
X53430485Y-66991780D01*
X53192390Y-65944161D02*
X52954295Y-66658447D01*
X53573342Y-66658447D01*
X58570714Y-69626219D02*
X58570714Y-70626219D01*
X57999285Y-69626219D01*
X57999285Y-70626219D01*
X56951666Y-69721457D02*
X56999285Y-69673838D01*
X57142142Y-69626219D01*
X57237380Y-69626219D01*
X57380238Y-69673838D01*
X57475476Y-69769076D01*
X57523095Y-69864314D01*
X57570714Y-70054790D01*
X57570714Y-70197647D01*
X57523095Y-70388123D01*
X57475476Y-70483361D01*
X57380238Y-70578600D01*
X57237380Y-70626219D01*
X57142142Y-70626219D01*
X56999285Y-70578600D01*
X56951666Y-70530980D01*
X48434523Y-69626219D02*
X48434523Y-70626219D01*
X47863095Y-69626219D01*
X47863095Y-70626219D01*
X47196428Y-70626219D02*
X47005952Y-70626219D01*
X46910714Y-70578600D01*
X46815476Y-70483361D01*
X46767857Y-70292885D01*
X46767857Y-69959552D01*
X46815476Y-69769076D01*
X46910714Y-69673838D01*
X47005952Y-69626219D01*
X47196428Y-69626219D01*
X47291666Y-69673838D01*
X47386904Y-69769076D01*
X47434523Y-69959552D01*
X47434523Y-70292885D01*
X47386904Y-70483361D01*
X47291666Y-70578600D01*
X47196428Y-70626219D01*
%TO.C,R5*%
X79106733Y-80335380D02*
X78773400Y-79859190D01*
X78535304Y-80335380D02*
X78535304Y-79335380D01*
X78916257Y-79335380D01*
X79011495Y-79383000D01*
X79059114Y-79430619D01*
X79106733Y-79525857D01*
X79106733Y-79668714D01*
X79059114Y-79763952D01*
X79011495Y-79811571D01*
X78916257Y-79859190D01*
X78535304Y-79859190D01*
X80011495Y-79335380D02*
X79535304Y-79335380D01*
X79487685Y-79811571D01*
X79535304Y-79763952D01*
X79630542Y-79716333D01*
X79868638Y-79716333D01*
X79963876Y-79763952D01*
X80011495Y-79811571D01*
X80059114Y-79906809D01*
X80059114Y-80144904D01*
X80011495Y-80240142D01*
X79963876Y-80287761D01*
X79868638Y-80335380D01*
X79630542Y-80335380D01*
X79535304Y-80287761D01*
X79487685Y-80240142D01*
D12*
%TO.C,ES2*%
X88550000Y-56340000D02*
G75*
G03*
X88550000Y-56340000I-6000000J0D01*
G01*
%TO.C,U7*%
X89204800Y-73152000D02*
X93522800Y-68580000D01*
X87680800Y-73152000D02*
X83362800Y-68580000D01*
%TO.C,MM1*%
X52761400Y-56390800D02*
G75*
G03*
X52761400Y-56390800I-6000000J0D01*
G01*
%TO.C,R1*%
X49327800Y-27886400D02*
X65327800Y-27886400D01*
X65327800Y-27886400D02*
X65327800Y-33886400D01*
X65327800Y-33886400D02*
X49327800Y-33886400D01*
X49327800Y-33886400D02*
X49327800Y-27886400D01*
%TO.C,R4*%
X47137800Y-80944200D02*
X63137800Y-80944200D01*
X63137800Y-80944200D02*
X63137800Y-86944200D01*
X63137800Y-86944200D02*
X47137800Y-86944200D01*
X47137800Y-86944200D02*
X47137800Y-80944200D01*
%TO.C,U10*%
X105257600Y-73253600D02*
X100939600Y-68681600D01*
X106781600Y-73253600D02*
X111099600Y-68681600D01*
%TO.C,Es1*%
X35540200Y-57104800D02*
G75*
G03*
X35540200Y-57104800I-6000000J0D01*
G01*
%TO.C,U2*%
X34798000Y-72994000D02*
X30480000Y-68422000D01*
X36322000Y-72994000D02*
X40640000Y-68422000D01*
%TO.C,MM2*%
X105949000Y-57251600D02*
G75*
G03*
X105949000Y-57251600I-6000000J0D01*
G01*
%TO.C,R3*%
X70310000Y-49073800D02*
X64310000Y-49073800D01*
X64310000Y-49073800D02*
X64310000Y-65073800D01*
X64310000Y-65073800D02*
X70310000Y-65073800D01*
X70310000Y-65073800D02*
X70310000Y-49073800D01*
%TO.C,R2*%
X71832200Y-27886400D02*
X87832200Y-27886400D01*
X87832200Y-27886400D02*
X87832200Y-33886400D01*
X87832200Y-33886400D02*
X71832200Y-33886400D01*
X71832200Y-33886400D02*
X71832200Y-27886400D01*
%TO.C,U4*%
X53467000Y-72872600D02*
X57785000Y-68300600D01*
X51943000Y-72872600D02*
X47625000Y-68300600D01*
%TO.C,R5*%
X71273400Y-80947000D02*
X87273400Y-80947000D01*
X87273400Y-80947000D02*
X87273400Y-86947000D01*
X87273400Y-86947000D02*
X71273400Y-86947000D01*
X71273400Y-86947000D02*
X71273400Y-80947000D01*
%TD*%
M02*
