%TF.GenerationSoftware,KiCad,Pcbnew,(6.0.7)*%
%TF.CreationDate,2022-09-05T15:07:59+08:00*%
%TF.ProjectId,6_5,365f352e-6b69-4636-9164-5f7063625858,rev?*%
%TF.SameCoordinates,Original*%
%TF.FileFunction,Drillmap*%
%TF.FilePolarity,Positive*%
%FSLAX45Y45*%
G04 Gerber Fmt 4.5, Leading zero omitted, Abs format (unit mm)*
G04 Created by KiCad (PCBNEW (6.0.7)) date 2022-09-05 15:07:59*
%MOMM*%
%LPD*%
G01*
G04 APERTURE LIST*
%ADD10C,0.200000*%
%ADD11C,0.076200*%
G04 APERTURE END LIST*
D10*
X11150000Y-3000000D02*
G75*
G03*
X11150000Y-3000000I-150000J0D01*
G01*
X2000000Y-2000000D02*
X12000000Y-2000000D01*
X12000000Y-2000000D02*
X12000000Y-12000000D01*
X12000000Y-12000000D02*
X2000000Y-12000000D01*
X2000000Y-12000000D02*
X2000000Y-2000000D01*
X3150000Y-11000000D02*
G75*
G03*
X3150000Y-11000000I-150000J0D01*
G01*
X11150000Y-11000000D02*
G75*
G03*
X11150000Y-11000000I-150000J0D01*
G01*
X3150000Y-3000000D02*
G75*
G03*
X3150000Y-3000000I-150000J0D01*
G01*
D11*
X2915920Y-5372380D02*
X2992120Y-5448580D01*
X2992120Y-5372380D02*
X2915920Y-5448580D01*
X2915920Y-5972380D02*
X2992120Y-6048580D01*
X2992120Y-5972380D02*
X2915920Y-6048580D01*
X2917900Y-4625900D02*
X2994100Y-4702100D01*
X2994100Y-4625900D02*
X2917900Y-4702100D01*
X2917900Y-6727900D02*
X2994100Y-6804100D01*
X2994100Y-6727900D02*
X2917900Y-6804100D01*
X3517900Y-4025900D02*
X3594100Y-4102100D01*
X3594100Y-4025900D02*
X3517900Y-4102100D01*
X3517900Y-7327900D02*
X3594100Y-7404100D01*
X3594100Y-7327900D02*
X3517900Y-7404100D01*
X4117900Y-4625900D02*
X4194100Y-4702100D01*
X4194100Y-4625900D02*
X4117900Y-4702100D01*
X4117900Y-6727900D02*
X4194100Y-6804100D01*
X4194100Y-6727900D02*
X4117900Y-6804100D01*
X4475680Y-8356320D02*
X4551880Y-8432520D01*
X4551880Y-8356320D02*
X4475680Y-8432520D01*
X4632400Y-6715760D02*
X4708600Y-6791960D01*
X4708600Y-6715760D02*
X4632400Y-6791960D01*
X4638040Y-4660900D02*
X4714240Y-4737100D01*
X4714240Y-4660900D02*
X4638040Y-4737100D01*
X4638040Y-5300980D02*
X4714240Y-5377180D01*
X4714240Y-5300980D02*
X4638040Y-5377180D01*
X4638040Y-5900980D02*
X4714240Y-5977180D01*
X4714240Y-5900980D02*
X4638040Y-5977180D01*
X4694680Y-3050540D02*
X4770880Y-3126740D01*
X4770880Y-3050540D02*
X4694680Y-3126740D01*
X5232400Y-7315760D02*
X5308600Y-7391960D01*
X5308600Y-7315760D02*
X5232400Y-7391960D01*
X5238040Y-4060900D02*
X5314240Y-4137100D01*
X5314240Y-4060900D02*
X5238040Y-4137100D01*
X5832400Y-6715760D02*
X5908600Y-6791960D01*
X5908600Y-6715760D02*
X5832400Y-6791960D01*
X5838040Y-4660900D02*
X5914240Y-4737100D01*
X5914240Y-4660900D02*
X5838040Y-4737100D01*
X6475680Y-8356320D02*
X6551880Y-8432520D01*
X6551880Y-8356320D02*
X6475680Y-8432520D01*
X6692900Y-4669280D02*
X6769100Y-4745480D01*
X6769100Y-4669280D02*
X6692900Y-4745480D01*
X6692900Y-6669280D02*
X6769100Y-6745480D01*
X6769100Y-6669280D02*
X6692900Y-6745480D01*
X6694680Y-3050540D02*
X6770880Y-3126740D01*
X6770880Y-3050540D02*
X6694680Y-3126740D01*
X6889240Y-8356600D02*
X6965440Y-8432800D01*
X6965440Y-8356600D02*
X6889240Y-8432800D01*
X6945120Y-3050540D02*
X7021320Y-3126740D01*
X7021320Y-3050540D02*
X6945120Y-3126740D01*
X8206180Y-6743700D02*
X8282380Y-6819900D01*
X8282380Y-6743700D02*
X8206180Y-6819900D01*
X8216900Y-5295900D02*
X8293100Y-5372100D01*
X8293100Y-5295900D02*
X8216900Y-5372100D01*
X8216900Y-5895900D02*
X8293100Y-5972100D01*
X8293100Y-5895900D02*
X8216900Y-5972100D01*
X8251900Y-4625900D02*
X8328100Y-4702100D01*
X8328100Y-4625900D02*
X8251900Y-4702100D01*
X8806180Y-7343700D02*
X8882380Y-7419900D01*
X8882380Y-7343700D02*
X8806180Y-7419900D01*
X8851900Y-4025900D02*
X8928100Y-4102100D01*
X8928100Y-4025900D02*
X8851900Y-4102100D01*
X8889240Y-8356600D02*
X8965440Y-8432800D01*
X8965440Y-8356600D02*
X8889240Y-8432800D01*
X8945120Y-3050540D02*
X9021320Y-3126740D01*
X9021320Y-3050540D02*
X8945120Y-3126740D01*
X9406180Y-6743700D02*
X9482380Y-6819900D01*
X9482380Y-6743700D02*
X9406180Y-6819900D01*
X9451900Y-4625900D02*
X9528100Y-4702100D01*
X9528100Y-4625900D02*
X9451900Y-4702100D01*
X9918140Y-4643400D02*
X9994340Y-4719600D01*
X9994340Y-4643400D02*
X9918140Y-4719600D01*
X9956800Y-5387060D02*
X10033000Y-5463260D01*
X10033000Y-5387060D02*
X9956800Y-5463260D01*
X9956800Y-5987060D02*
X10033000Y-6063260D01*
X10033000Y-5987060D02*
X9956800Y-6063260D01*
X9963860Y-6753860D02*
X10040060Y-6830060D01*
X10040060Y-6753860D02*
X9963860Y-6830060D01*
X10518140Y-4043400D02*
X10594340Y-4119600D01*
X10594340Y-4043400D02*
X10518140Y-4119600D01*
X10563860Y-7353860D02*
X10640060Y-7430060D01*
X10640060Y-7353860D02*
X10563860Y-7430060D01*
X11118140Y-4643400D02*
X11194340Y-4719600D01*
X11194340Y-4643400D02*
X11118140Y-4719600D01*
X11163860Y-6753860D02*
X11240060Y-6830060D01*
X11240060Y-6753860D02*
X11163860Y-6830060D01*
D10*
X2247619Y-12320476D02*
X2247619Y-12120476D01*
X2295238Y-12120476D01*
X2323810Y-12130000D01*
X2342857Y-12149048D01*
X2352381Y-12168095D01*
X2361905Y-12206190D01*
X2361905Y-12234762D01*
X2352381Y-12272857D01*
X2342857Y-12291905D01*
X2323810Y-12310952D01*
X2295238Y-12320476D01*
X2247619Y-12320476D01*
X2447619Y-12320476D02*
X2447619Y-12187143D01*
X2447619Y-12225238D02*
X2457143Y-12206190D01*
X2466667Y-12196667D01*
X2485714Y-12187143D01*
X2504762Y-12187143D01*
X2571429Y-12320476D02*
X2571429Y-12187143D01*
X2571429Y-12120476D02*
X2561905Y-12130000D01*
X2571429Y-12139524D01*
X2580952Y-12130000D01*
X2571429Y-12120476D01*
X2571429Y-12139524D01*
X2695238Y-12320476D02*
X2676190Y-12310952D01*
X2666667Y-12291905D01*
X2666667Y-12120476D01*
X2800000Y-12320476D02*
X2780952Y-12310952D01*
X2771429Y-12291905D01*
X2771429Y-12120476D01*
X3028571Y-12320476D02*
X3028571Y-12120476D01*
X3095238Y-12263333D01*
X3161905Y-12120476D01*
X3161905Y-12320476D01*
X3342857Y-12320476D02*
X3342857Y-12215714D01*
X3333333Y-12196667D01*
X3314286Y-12187143D01*
X3276190Y-12187143D01*
X3257143Y-12196667D01*
X3342857Y-12310952D02*
X3323809Y-12320476D01*
X3276190Y-12320476D01*
X3257143Y-12310952D01*
X3247619Y-12291905D01*
X3247619Y-12272857D01*
X3257143Y-12253809D01*
X3276190Y-12244286D01*
X3323809Y-12244286D01*
X3342857Y-12234762D01*
X3438095Y-12187143D02*
X3438095Y-12387143D01*
X3438095Y-12196667D02*
X3457143Y-12187143D01*
X3495238Y-12187143D01*
X3514286Y-12196667D01*
X3523809Y-12206190D01*
X3533333Y-12225238D01*
X3533333Y-12282381D01*
X3523809Y-12301428D01*
X3514286Y-12310952D01*
X3495238Y-12320476D01*
X3457143Y-12320476D01*
X3438095Y-12310952D01*
X3619048Y-12301428D02*
X3628571Y-12310952D01*
X3619048Y-12320476D01*
X3609524Y-12310952D01*
X3619048Y-12301428D01*
X3619048Y-12320476D01*
X3619048Y-12196667D02*
X3628571Y-12206190D01*
X3619048Y-12215714D01*
X3609524Y-12206190D01*
X3619048Y-12196667D01*
X3619048Y-12215714D01*
D11*
X1913800Y-12611900D02*
X1990000Y-12688100D01*
X1990000Y-12611900D02*
X1913800Y-12688100D01*
D10*
X2285714Y-12540476D02*
X2304762Y-12540476D01*
X2323810Y-12550000D01*
X2333333Y-12559524D01*
X2342857Y-12578571D01*
X2352381Y-12616667D01*
X2352381Y-12664286D01*
X2342857Y-12702381D01*
X2333333Y-12721428D01*
X2323810Y-12730952D01*
X2304762Y-12740476D01*
X2285714Y-12740476D01*
X2266667Y-12730952D01*
X2257143Y-12721428D01*
X2247619Y-12702381D01*
X2238095Y-12664286D01*
X2238095Y-12616667D01*
X2247619Y-12578571D01*
X2257143Y-12559524D01*
X2266667Y-12550000D01*
X2285714Y-12540476D01*
X2438095Y-12721428D02*
X2447619Y-12730952D01*
X2438095Y-12740476D01*
X2428571Y-12730952D01*
X2438095Y-12721428D01*
X2438095Y-12740476D01*
X2514286Y-12540476D02*
X2647619Y-12540476D01*
X2561905Y-12740476D01*
X2809524Y-12540476D02*
X2771429Y-12540476D01*
X2752381Y-12550000D01*
X2742857Y-12559524D01*
X2723810Y-12588095D01*
X2714286Y-12626190D01*
X2714286Y-12702381D01*
X2723810Y-12721428D01*
X2733333Y-12730952D01*
X2752381Y-12740476D01*
X2790476Y-12740476D01*
X2809524Y-12730952D01*
X2819048Y-12721428D01*
X2828571Y-12702381D01*
X2828571Y-12654762D01*
X2819048Y-12635714D01*
X2809524Y-12626190D01*
X2790476Y-12616667D01*
X2752381Y-12616667D01*
X2733333Y-12626190D01*
X2723810Y-12635714D01*
X2714286Y-12654762D01*
X2904762Y-12559524D02*
X2914286Y-12550000D01*
X2933333Y-12540476D01*
X2980952Y-12540476D01*
X3000000Y-12550000D01*
X3009524Y-12559524D01*
X3019048Y-12578571D01*
X3019048Y-12597619D01*
X3009524Y-12626190D01*
X2895238Y-12740476D01*
X3019048Y-12740476D01*
X3104762Y-12740476D02*
X3104762Y-12607143D01*
X3104762Y-12626190D02*
X3114286Y-12616667D01*
X3133333Y-12607143D01*
X3161905Y-12607143D01*
X3180952Y-12616667D01*
X3190476Y-12635714D01*
X3190476Y-12740476D01*
X3190476Y-12635714D02*
X3200000Y-12616667D01*
X3219048Y-12607143D01*
X3247619Y-12607143D01*
X3266667Y-12616667D01*
X3276190Y-12635714D01*
X3276190Y-12740476D01*
X3371428Y-12740476D02*
X3371428Y-12607143D01*
X3371428Y-12626190D02*
X3380952Y-12616667D01*
X3400000Y-12607143D01*
X3428571Y-12607143D01*
X3447619Y-12616667D01*
X3457143Y-12635714D01*
X3457143Y-12740476D01*
X3457143Y-12635714D02*
X3466667Y-12616667D01*
X3485714Y-12607143D01*
X3514286Y-12607143D01*
X3533333Y-12616667D01*
X3542857Y-12635714D01*
X3542857Y-12740476D01*
X3933333Y-12530952D02*
X3761905Y-12788095D01*
X4190476Y-12540476D02*
X4209524Y-12540476D01*
X4228571Y-12550000D01*
X4238095Y-12559524D01*
X4247619Y-12578571D01*
X4257143Y-12616667D01*
X4257143Y-12664286D01*
X4247619Y-12702381D01*
X4238095Y-12721428D01*
X4228571Y-12730952D01*
X4209524Y-12740476D01*
X4190476Y-12740476D01*
X4171428Y-12730952D01*
X4161905Y-12721428D01*
X4152381Y-12702381D01*
X4142857Y-12664286D01*
X4142857Y-12616667D01*
X4152381Y-12578571D01*
X4161905Y-12559524D01*
X4171428Y-12550000D01*
X4190476Y-12540476D01*
X4342857Y-12721428D02*
X4352381Y-12730952D01*
X4342857Y-12740476D01*
X4333333Y-12730952D01*
X4342857Y-12721428D01*
X4342857Y-12740476D01*
X4476190Y-12540476D02*
X4495238Y-12540476D01*
X4514286Y-12550000D01*
X4523810Y-12559524D01*
X4533333Y-12578571D01*
X4542857Y-12616667D01*
X4542857Y-12664286D01*
X4533333Y-12702381D01*
X4523810Y-12721428D01*
X4514286Y-12730952D01*
X4495238Y-12740476D01*
X4476190Y-12740476D01*
X4457143Y-12730952D01*
X4447619Y-12721428D01*
X4438095Y-12702381D01*
X4428571Y-12664286D01*
X4428571Y-12616667D01*
X4438095Y-12578571D01*
X4447619Y-12559524D01*
X4457143Y-12550000D01*
X4476190Y-12540476D01*
X4609524Y-12540476D02*
X4733333Y-12540476D01*
X4666667Y-12616667D01*
X4695238Y-12616667D01*
X4714286Y-12626190D01*
X4723810Y-12635714D01*
X4733333Y-12654762D01*
X4733333Y-12702381D01*
X4723810Y-12721428D01*
X4714286Y-12730952D01*
X4695238Y-12740476D01*
X4638095Y-12740476D01*
X4619048Y-12730952D01*
X4609524Y-12721428D01*
X4857143Y-12540476D02*
X4876190Y-12540476D01*
X4895238Y-12550000D01*
X4904762Y-12559524D01*
X4914286Y-12578571D01*
X4923810Y-12616667D01*
X4923810Y-12664286D01*
X4914286Y-12702381D01*
X4904762Y-12721428D01*
X4895238Y-12730952D01*
X4876190Y-12740476D01*
X4857143Y-12740476D01*
X4838095Y-12730952D01*
X4828571Y-12721428D01*
X4819048Y-12702381D01*
X4809524Y-12664286D01*
X4809524Y-12616667D01*
X4819048Y-12578571D01*
X4828571Y-12559524D01*
X4838095Y-12550000D01*
X4857143Y-12540476D01*
X5047619Y-12540476D02*
X5066667Y-12540476D01*
X5085714Y-12550000D01*
X5095238Y-12559524D01*
X5104762Y-12578571D01*
X5114286Y-12616667D01*
X5114286Y-12664286D01*
X5104762Y-12702381D01*
X5095238Y-12721428D01*
X5085714Y-12730952D01*
X5066667Y-12740476D01*
X5047619Y-12740476D01*
X5028571Y-12730952D01*
X5019048Y-12721428D01*
X5009524Y-12702381D01*
X5000000Y-12664286D01*
X5000000Y-12616667D01*
X5009524Y-12578571D01*
X5019048Y-12559524D01*
X5028571Y-12550000D01*
X5047619Y-12540476D01*
X5190476Y-12540476D02*
X5190476Y-12578571D01*
X5266667Y-12540476D02*
X5266667Y-12578571D01*
X5561905Y-12816667D02*
X5552381Y-12807143D01*
X5533333Y-12778571D01*
X5523810Y-12759524D01*
X5514286Y-12730952D01*
X5504762Y-12683333D01*
X5504762Y-12645238D01*
X5514286Y-12597619D01*
X5523810Y-12569048D01*
X5533333Y-12550000D01*
X5552381Y-12521428D01*
X5561905Y-12511905D01*
X5723809Y-12607143D02*
X5723809Y-12740476D01*
X5676190Y-12530952D02*
X5628571Y-12673809D01*
X5752381Y-12673809D01*
X5819048Y-12559524D02*
X5828571Y-12550000D01*
X5847619Y-12540476D01*
X5895238Y-12540476D01*
X5914286Y-12550000D01*
X5923809Y-12559524D01*
X5933333Y-12578571D01*
X5933333Y-12597619D01*
X5923809Y-12626190D01*
X5809524Y-12740476D01*
X5933333Y-12740476D01*
X6171428Y-12740476D02*
X6171428Y-12540476D01*
X6257143Y-12740476D02*
X6257143Y-12635714D01*
X6247619Y-12616667D01*
X6228571Y-12607143D01*
X6200000Y-12607143D01*
X6180952Y-12616667D01*
X6171428Y-12626190D01*
X6380952Y-12740476D02*
X6361905Y-12730952D01*
X6352381Y-12721428D01*
X6342857Y-12702381D01*
X6342857Y-12645238D01*
X6352381Y-12626190D01*
X6361905Y-12616667D01*
X6380952Y-12607143D01*
X6409524Y-12607143D01*
X6428571Y-12616667D01*
X6438095Y-12626190D01*
X6447619Y-12645238D01*
X6447619Y-12702381D01*
X6438095Y-12721428D01*
X6428571Y-12730952D01*
X6409524Y-12740476D01*
X6380952Y-12740476D01*
X6561905Y-12740476D02*
X6542857Y-12730952D01*
X6533333Y-12711905D01*
X6533333Y-12540476D01*
X6714286Y-12730952D02*
X6695238Y-12740476D01*
X6657143Y-12740476D01*
X6638095Y-12730952D01*
X6628571Y-12711905D01*
X6628571Y-12635714D01*
X6638095Y-12616667D01*
X6657143Y-12607143D01*
X6695238Y-12607143D01*
X6714286Y-12616667D01*
X6723809Y-12635714D01*
X6723809Y-12654762D01*
X6628571Y-12673809D01*
X6800000Y-12730952D02*
X6819048Y-12740476D01*
X6857143Y-12740476D01*
X6876190Y-12730952D01*
X6885714Y-12711905D01*
X6885714Y-12702381D01*
X6876190Y-12683333D01*
X6857143Y-12673809D01*
X6828571Y-12673809D01*
X6809524Y-12664286D01*
X6800000Y-12645238D01*
X6800000Y-12635714D01*
X6809524Y-12616667D01*
X6828571Y-12607143D01*
X6857143Y-12607143D01*
X6876190Y-12616667D01*
X6952381Y-12816667D02*
X6961905Y-12807143D01*
X6980952Y-12778571D01*
X6990476Y-12759524D01*
X7000000Y-12730952D01*
X7009524Y-12683333D01*
X7009524Y-12645238D01*
X7000000Y-12597619D01*
X6990476Y-12569048D01*
X6980952Y-12550000D01*
X6961905Y-12521428D01*
X6952381Y-12511905D01*
M02*
