%TF.GenerationSoftware,KiCad,Pcbnew,(6.0.7)*%
%TF.CreationDate,2022-09-05T15:15:48+08:00*%
%TF.ProjectId,6_7_2,365f375f-322e-46b6-9963-61645f706362,rev?*%
%TF.SameCoordinates,Original*%
%TF.FileFunction,Legend,Top*%
%TF.FilePolarity,Positive*%
%FSLAX46Y46*%
G04 Gerber Fmt 4.6, Leading zero omitted, Abs format (unit mm)*
G04 Created by KiCad (PCBNEW (6.0.7)) date 2022-09-05 15:15:48*
%MOMM*%
%LPD*%
G01*
G04 APERTURE LIST*
%ADD10C,0.300000*%
%ADD11C,0.150000*%
%ADD12C,0.120000*%
G04 APERTURE END LIST*
D10*
X27895028Y-90784704D02*
X26942647Y-90784704D01*
X26466457Y-91022800D01*
X26228361Y-91260895D01*
X25752171Y-91975180D01*
X25514076Y-92927561D01*
X25514076Y-94832323D01*
X25752171Y-95308514D01*
X25990266Y-95546609D01*
X26466457Y-95784704D01*
X27418838Y-95784704D01*
X27895028Y-95546609D01*
X28133123Y-95308514D01*
X28371219Y-94832323D01*
X28371219Y-93641847D01*
X28133123Y-93165657D01*
X27895028Y-92927561D01*
X27418838Y-92689466D01*
X26466457Y-92689466D01*
X25990266Y-92927561D01*
X25752171Y-93165657D01*
X25514076Y-93641847D01*
X30514076Y-95308514D02*
X30752171Y-95546609D01*
X30514076Y-95784704D01*
X30275980Y-95546609D01*
X30514076Y-95308514D01*
X30514076Y-95784704D01*
X32418838Y-90784704D02*
X35752171Y-90784704D01*
X33609314Y-95784704D01*
X37656933Y-95308514D02*
X37895028Y-95546609D01*
X37656933Y-95784704D01*
X37418838Y-95546609D01*
X37656933Y-95308514D01*
X37656933Y-95784704D01*
X39799790Y-91260895D02*
X40037885Y-91022800D01*
X40514076Y-90784704D01*
X41704552Y-90784704D01*
X42180742Y-91022800D01*
X42418838Y-91260895D01*
X42656933Y-91737085D01*
X42656933Y-92213276D01*
X42418838Y-92927561D01*
X39561695Y-95784704D01*
X42656933Y-95784704D01*
X48371219Y-90784704D02*
X51466457Y-90784704D01*
X47895028Y-91498990D02*
X53847409Y-91498990D01*
X48371219Y-92689466D02*
X51466457Y-92689466D01*
X48371219Y-93403752D02*
X51466457Y-93403752D01*
X48133123Y-94118038D02*
X51466457Y-94118038D01*
X47895028Y-94832323D02*
X51704552Y-94832323D01*
X48371219Y-91975180D02*
X48371219Y-93403752D01*
X49085504Y-93403752D02*
X49085504Y-94594228D01*
X49799790Y-91975180D02*
X49799790Y-93403752D01*
X49799790Y-90070419D02*
X49799790Y-91498990D01*
X50514076Y-93403752D02*
X50514076Y-94594228D01*
X48371219Y-91975180D02*
X51466457Y-91975180D01*
X51466457Y-93403752D01*
X50275980Y-95070419D02*
X50752171Y-95546609D01*
X52656933Y-90308514D02*
X53371219Y-91022800D01*
X49085504Y-95070419D02*
X48371219Y-95784704D01*
X52180742Y-90070419D02*
X52180742Y-92213276D01*
X52895028Y-95546609D01*
X53847409Y-95784704D01*
X54085504Y-95070419D01*
X53609314Y-92451371D02*
X52895028Y-94594228D01*
X51942647Y-95784704D01*
X58133123Y-91498990D02*
X61466457Y-91498990D01*
X58371219Y-92689466D02*
X61228361Y-92689466D01*
X58371219Y-93879942D02*
X61228361Y-93879942D01*
X58371219Y-95308514D02*
X61466457Y-95308514D01*
X58371219Y-91022800D02*
X58371219Y-95784704D01*
X60037885Y-91260895D02*
X60037885Y-95308514D01*
X59561695Y-90308514D02*
X60037885Y-91022800D01*
X57180742Y-91737085D02*
X56704552Y-92451371D01*
X55275980Y-93879942D01*
X58371219Y-91260895D02*
X57418838Y-92213276D01*
X56466457Y-90308514D02*
X55514076Y-92451371D01*
X58609314Y-90308514D02*
X57895028Y-91975180D01*
X56942647Y-92213276D02*
X55275980Y-92451371D01*
X57180742Y-93641847D02*
X55275980Y-93879942D01*
X57418838Y-94832323D02*
X55275980Y-95070419D01*
X62656933Y-91022800D02*
X68847409Y-91022800D01*
X64085504Y-93403752D02*
X67418838Y-93403752D01*
X63847409Y-94356133D02*
X67656933Y-94356133D01*
X67180742Y-95784704D02*
X68371219Y-95784704D01*
X63133123Y-91975180D02*
X63133123Y-95784704D01*
X65752171Y-90070419D02*
X65752171Y-91975180D01*
X65752171Y-93403752D02*
X65752171Y-95784704D01*
X63133123Y-91975180D02*
X68371219Y-91975180D01*
X68371219Y-95784704D01*
X64561695Y-92451371D02*
X64799790Y-92927561D01*
X66704552Y-92451371D02*
X66466457Y-93403752D01*
X70752171Y-91022800D02*
X72895028Y-91022800D01*
X73371219Y-91022800D02*
X76228361Y-91022800D01*
X70752171Y-92213276D02*
X75514076Y-92213276D01*
X70037885Y-93165657D02*
X76228361Y-93165657D01*
X70275980Y-94118038D02*
X75990266Y-94118038D01*
X73371219Y-95784704D02*
X74561695Y-95784704D01*
X73133123Y-91498990D02*
X73133123Y-93165657D01*
X74561695Y-93165657D02*
X74561695Y-95784704D01*
X71704552Y-94594228D02*
X72418838Y-95308514D01*
X74561695Y-91022800D02*
X74561695Y-91498990D01*
X73609314Y-90546609D02*
X72656933Y-91498990D01*
X71228361Y-91022800D02*
X71704552Y-91498990D01*
X70752171Y-90070419D02*
X70275980Y-91498990D01*
X77418838Y-91022800D02*
X80752171Y-91022800D01*
X79085504Y-90070419D02*
X79085504Y-91022800D01*
X82180742Y-94356133D02*
X83609314Y-95784704D01*
X78133123Y-93165657D02*
X80037885Y-95070419D01*
X79561695Y-91737085D02*
X80275980Y-92451371D01*
X79085504Y-94356133D02*
X77418838Y-95784704D01*
X81466457Y-95308514D02*
X80275980Y-95784704D01*
X82180742Y-94118038D02*
X80752171Y-95546609D01*
X81466457Y-92689466D02*
X82656933Y-95070419D01*
X78133123Y-91737085D02*
X77656933Y-92689466D01*
X79561695Y-92689466D02*
X78609314Y-94832323D01*
X81228361Y-91498990D02*
X82180742Y-94356133D01*
X81228361Y-91498990D02*
X83371219Y-91498990D01*
X82180742Y-94356133D01*
X81466457Y-90070419D02*
X80752171Y-92689466D01*
X84799790Y-92689466D02*
X90275980Y-92689466D01*
X84799790Y-94118038D02*
X90275980Y-94118038D01*
X87656933Y-95784704D02*
X90752171Y-95784704D01*
X84799790Y-91022800D02*
X84799790Y-94594228D01*
X87656933Y-90070419D02*
X87656933Y-95784704D01*
X84799790Y-91022800D02*
X90275980Y-91022800D01*
X90275980Y-94118038D01*
X90990266Y-94594228D02*
X90752171Y-95784704D01*
X92418838Y-91975180D02*
X94561695Y-91975180D01*
X93609314Y-93403752D02*
X94561695Y-93403752D01*
X95514076Y-95546609D02*
X97895028Y-95546609D01*
X92418838Y-90308514D02*
X92418838Y-91975180D01*
X92656933Y-93165657D02*
X92656933Y-95308514D01*
X93609314Y-91975180D02*
X93609314Y-95070419D01*
X92418838Y-90308514D02*
X94561695Y-90308514D01*
X94561695Y-91975180D01*
X95514076Y-93403752D02*
X95514076Y-95784704D01*
X95514076Y-93641847D02*
X98133123Y-93641847D01*
X97895028Y-95784704D01*
X95514076Y-91260895D02*
X94799790Y-91975180D01*
X95752171Y-91022800D02*
X95990266Y-91975180D01*
X97418838Y-93403752D01*
X98371219Y-93641847D01*
X95990266Y-90070419D02*
X95275980Y-91737085D01*
X95752171Y-90784704D02*
X97656933Y-90784704D01*
X97180742Y-91975180D01*
X95752171Y-93165657D01*
X94561695Y-93641847D01*
X94561695Y-94832323D02*
X92180742Y-95308514D01*
D11*
%TO.C,V1*%
X32783376Y-31103580D02*
X33116709Y-32103580D01*
X33450042Y-31103580D01*
X34307185Y-32103580D02*
X33735757Y-32103580D01*
X34021471Y-32103580D02*
X34021471Y-31103580D01*
X33926233Y-31246438D01*
X33830995Y-31341676D01*
X33735757Y-31389295D01*
X35180519Y-28817580D02*
X35513852Y-29817580D01*
X35847185Y-28817580D01*
X36180519Y-29436628D02*
X36942423Y-29436628D01*
X36561471Y-29817580D02*
X36561471Y-29055676D01*
X35434519Y-34913580D02*
X35767852Y-35913580D01*
X36101185Y-34913580D01*
X36434519Y-35532628D02*
X37196423Y-35532628D01*
%TO.C,U1*%
X75790442Y-38483514D02*
X78219014Y-38483514D01*
X78504728Y-38340657D01*
X78647585Y-38197800D01*
X78790442Y-37912085D01*
X78790442Y-37340657D01*
X78647585Y-37054942D01*
X78504728Y-36912085D01*
X78219014Y-36769228D01*
X75790442Y-36769228D01*
X78790442Y-33769228D02*
X78790442Y-35483514D01*
X78790442Y-34626371D02*
X75790442Y-34626371D01*
X76219014Y-34912085D01*
X76504728Y-35197800D01*
X76647585Y-35483514D01*
%TO.C,R1*%
X41598719Y-56198733D02*
X42074909Y-55865400D01*
X41598719Y-55627304D02*
X42598719Y-55627304D01*
X42598719Y-56008257D01*
X42551100Y-56103495D01*
X42503480Y-56151114D01*
X42408242Y-56198733D01*
X42265385Y-56198733D01*
X42170147Y-56151114D01*
X42122528Y-56103495D01*
X42074909Y-56008257D01*
X42074909Y-55627304D01*
X41598719Y-57151114D02*
X41598719Y-56579685D01*
X41598719Y-56865400D02*
X42598719Y-56865400D01*
X42455861Y-56770161D01*
X42360623Y-56674923D01*
X42313004Y-56579685D01*
%TO.C,R2*%
X93973519Y-52058533D02*
X94449709Y-51725200D01*
X93973519Y-51487104D02*
X94973519Y-51487104D01*
X94973519Y-51868057D01*
X94925900Y-51963295D01*
X94878280Y-52010914D01*
X94783042Y-52058533D01*
X94640185Y-52058533D01*
X94544947Y-52010914D01*
X94497328Y-51963295D01*
X94449709Y-51868057D01*
X94449709Y-51487104D01*
X94878280Y-52439485D02*
X94925900Y-52487104D01*
X94973519Y-52582342D01*
X94973519Y-52820438D01*
X94925900Y-52915676D01*
X94878280Y-52963295D01*
X94783042Y-53010914D01*
X94687804Y-53010914D01*
X94544947Y-52963295D01*
X93973519Y-52391866D01*
X93973519Y-53010914D01*
D12*
%TO.C,V1*%
X44164900Y-32413200D02*
G75*
G03*
X44164900Y-32413200I-6000000J0D01*
G01*
%TO.C,U1*%
X83433300Y-36197800D02*
G75*
G03*
X83433300Y-36197800I-6000000J0D01*
G01*
%TO.C,R1*%
X37987100Y-48365400D02*
X37987100Y-47221400D01*
X37987100Y-64365400D02*
X37987100Y-65509400D01*
X40987100Y-48365400D02*
X34987100Y-48365400D01*
X34987100Y-48365400D02*
X34987100Y-64365400D01*
X34987100Y-64365400D02*
X40987100Y-64365400D01*
X40987100Y-64365400D02*
X40987100Y-48365400D01*
%TO.C,R2*%
X95441900Y-57305200D02*
X85281900Y-46637200D01*
X90361900Y-44225200D02*
X90361900Y-43081200D01*
X90361900Y-60225200D02*
X90361900Y-61369200D01*
X95441900Y-57305200D02*
X94425900Y-57051200D01*
X95187900Y-56289200D02*
X95441900Y-57305200D01*
X93361900Y-44225200D02*
X87361900Y-44225200D01*
X87361900Y-44225200D02*
X87361900Y-60225200D01*
X87361900Y-60225200D02*
X93361900Y-60225200D01*
X93361900Y-60225200D02*
X93361900Y-44225200D01*
%TD*%
M02*
