M48
; DRILL file {KiCad (6.0.7)} date Mon Sep  5 15:10:38 2022
; FORMAT={-:-/ absolute / metric / decimal}
; #@! TF.CreationDate,2022-09-05T15:10:38+08:00
; #@! TF.GenerationSoftware,Kicad,Pcbnew,(6.0.7)
; #@! TF.FileFunction,Plated,1,2,PTH
FMAT,2
METRIC
; #@! TA.AperFunction,Plated,PTH,ComponentDrill
T1C0.762
%
G90
G05
T1
X21.59Y-28.75
X21.59Y-34.75
X28.75Y-20.32
X33.655Y-32.545
X33.655Y-52.545
X34.75Y-20.32
X39.085Y-65.405
X39.085Y-91.615
X40.99Y-21.59
X40.99Y-49.88
X45.085Y-59.405
X45.085Y-97.615
X46.99Y-15.59
X46.99Y-55.88
X50.8Y-68.915
X50.8Y-88.915
X51.085Y-65.405
X51.085Y-91.615
X52.99Y-21.59
X52.99Y-49.88
X53.34Y-25.1
X53.34Y-45.1
X54.96Y-65.055
X54.96Y-91.155
X55.595Y-49.88
X56.23Y-21.59
X60.96Y-59.055
X60.96Y-97.155
X61.595Y-55.88
X62.23Y-15.59
X66.96Y-65.055
X66.96Y-91.155
X67.31Y-25.1
X67.31Y-45.1
X67.31Y-68.28
X67.31Y-88.28
X67.595Y-49.88
X68.23Y-21.59
X70.2Y-91.615
X70.835Y-21.59
X70.835Y-49.42
X70.835Y-65.055
X76.2Y-97.615
X76.835Y-15.59
X76.835Y-55.42
X76.835Y-59.055
X81.915Y-68.28
X81.915Y-88.28
X82.2Y-91.615
X82.55Y-25.1
X82.55Y-45.1
X82.835Y-21.59
X82.835Y-49.42
X82.835Y-65.055
X85.44Y-21.59
X85.44Y-49.88
X86.075Y-65.055
X86.075Y-91.615
X91.44Y-15.59
X91.44Y-55.88
X92.075Y-59.055
X92.075Y-97.615
X96.52Y-25.1
X96.52Y-45.1
X97.44Y-21.59
X97.44Y-49.88
X97.79Y-68.28
X97.79Y-88.28
X98.075Y-65.055
X98.075Y-91.615
T0
M30
