%TF.GenerationSoftware,KiCad,Pcbnew,(6.0.7)*%
%TF.CreationDate,2022-09-05T15:10:35+08:00*%
%TF.ProjectId,6_6,365f362e-6b69-4636-9164-5f7063625858,rev?*%
%TF.SameCoordinates,Original*%
%TF.FileFunction,Legend,Top*%
%TF.FilePolarity,Positive*%
%FSLAX46Y46*%
G04 Gerber Fmt 4.6, Leading zero omitted, Abs format (unit mm)*
G04 Created by KiCad (PCBNEW (6.0.7)) date 2022-09-05 15:10:35*
%MOMM*%
%LPD*%
G01*
G04 APERTURE LIST*
%ADD10C,0.300000*%
%ADD11C,0.150000*%
%ADD12C,0.120000*%
G04 APERTURE END LIST*
D10*
X31991904Y-102036904D02*
X31039523Y-102036904D01*
X30563333Y-102275000D01*
X30325238Y-102513095D01*
X29849047Y-103227380D01*
X29610952Y-104179761D01*
X29610952Y-106084523D01*
X29849047Y-106560714D01*
X30087142Y-106798809D01*
X30563333Y-107036904D01*
X31515714Y-107036904D01*
X31991904Y-106798809D01*
X32229999Y-106560714D01*
X32468095Y-106084523D01*
X32468095Y-104894047D01*
X32229999Y-104417857D01*
X31991904Y-104179761D01*
X31515714Y-103941666D01*
X30563333Y-103941666D01*
X30087142Y-104179761D01*
X29849047Y-104417857D01*
X29610952Y-104894047D01*
X34610952Y-106560714D02*
X34849047Y-106798809D01*
X34610952Y-107036904D01*
X34372857Y-106798809D01*
X34610952Y-106560714D01*
X34610952Y-107036904D01*
X39134761Y-102036904D02*
X38182380Y-102036904D01*
X37706190Y-102275000D01*
X37468095Y-102513095D01*
X36991904Y-103227380D01*
X36753809Y-104179761D01*
X36753809Y-106084523D01*
X36991904Y-106560714D01*
X37230000Y-106798809D01*
X37706190Y-107036904D01*
X38658571Y-107036904D01*
X39134761Y-106798809D01*
X39372857Y-106560714D01*
X39610952Y-106084523D01*
X39610952Y-104894047D01*
X39372857Y-104417857D01*
X39134761Y-104179761D01*
X38658571Y-103941666D01*
X37706190Y-103941666D01*
X37230000Y-104179761D01*
X36991904Y-104417857D01*
X36753809Y-104894047D01*
X41753809Y-106560714D02*
X41991904Y-106798809D01*
X41753809Y-107036904D01*
X41515714Y-106798809D01*
X41753809Y-106560714D01*
X41753809Y-107036904D01*
X46753809Y-107036904D02*
X43896666Y-107036904D01*
X45325238Y-107036904D02*
X45325238Y-102036904D01*
X44849047Y-102751190D01*
X44372857Y-103227380D01*
X43896666Y-103465476D01*
X51991904Y-103941666D02*
X57468095Y-103941666D01*
X51991904Y-105370238D02*
X57468095Y-105370238D01*
X54849047Y-107036904D02*
X57944285Y-107036904D01*
X51991904Y-102275000D02*
X51991904Y-105846428D01*
X54849047Y-101322619D02*
X54849047Y-107036904D01*
X51991904Y-102275000D02*
X57468095Y-102275000D01*
X57468095Y-105370238D01*
X58182380Y-105846428D02*
X57944285Y-107036904D01*
X59849047Y-101798809D02*
X65563333Y-101798809D01*
X60801428Y-103941666D02*
X65087142Y-103941666D01*
X60325238Y-106798809D02*
X65563333Y-106798809D01*
X62944285Y-102513095D02*
X62944285Y-106798809D01*
X64134761Y-104894047D02*
X64849047Y-105846428D01*
X59849047Y-101798809D02*
X59849047Y-104894047D01*
X59610952Y-107036904D01*
X68896666Y-101560714D02*
X72944285Y-101560714D01*
X69610952Y-103703571D02*
X72468095Y-103703571D01*
X69610952Y-104655952D02*
X72468095Y-104655952D01*
X70087142Y-107036904D02*
X71039523Y-107036904D01*
X69610952Y-102751190D02*
X69610952Y-104655952D01*
X71039523Y-101798809D02*
X70801428Y-102751190D01*
X71039523Y-104655952D02*
X71039523Y-107036904D01*
X69610952Y-102751190D02*
X72468095Y-102751190D01*
X72468095Y-104655952D01*
X71991904Y-105370238D02*
X72706190Y-106084523D01*
X69849047Y-105370238D02*
X69372857Y-106322619D01*
X67230000Y-101560714D02*
X68182380Y-102036904D01*
X66753809Y-103227380D02*
X67944285Y-103703571D01*
X67944285Y-104894047D02*
X66991904Y-107036904D01*
X68896666Y-101560714D02*
X68896666Y-104417857D01*
X68420476Y-106322619D01*
X78658571Y-101322619D02*
X78658571Y-107036904D01*
X77706190Y-103227380D02*
X79372857Y-104894047D01*
X80325238Y-105370238D01*
X75801428Y-101560714D02*
X74849047Y-103227380D01*
X74134761Y-104179761D01*
X74849047Y-103703571D02*
X76277619Y-104894047D01*
X75563333Y-102513095D02*
X77230000Y-102513095D01*
X76515714Y-104894047D01*
X75801428Y-105846428D01*
X74610952Y-107036904D01*
X84372857Y-102275000D02*
X87468095Y-102275000D01*
X81753809Y-102989285D02*
X83658571Y-102989285D01*
X83896666Y-103465476D02*
X87706190Y-103465476D01*
X83896666Y-104655952D02*
X87706190Y-104655952D01*
X85563333Y-107036904D02*
X86753809Y-107036904D01*
X82944285Y-101322619D02*
X82944285Y-107036904D01*
X85801428Y-101322619D02*
X85801428Y-103465476D01*
X86753809Y-103465476D02*
X86753809Y-107036904D01*
X84610952Y-105370238D02*
X85325238Y-106084523D01*
X83896666Y-104417857D02*
X81515714Y-104894047D01*
X81991904Y-101798809D02*
X81515714Y-103941666D01*
X91753809Y-102989285D02*
X95087142Y-102989285D01*
X91515714Y-104655952D02*
X94849047Y-104655952D01*
X91039523Y-106798809D02*
X95087142Y-106798809D01*
X90087142Y-101322619D02*
X90087142Y-107036904D01*
X93182380Y-101322619D02*
X93182380Y-106798809D01*
X90563333Y-102513095D02*
X90801428Y-103465476D01*
X89134761Y-102751190D02*
X89134761Y-104179761D01*
X91991904Y-101798809D02*
X91277619Y-103703571D01*
D11*
%TO.C,U2*%
X46228095Y-19010380D02*
X46228095Y-19819904D01*
X46275714Y-19915142D01*
X46323333Y-19962761D01*
X46418571Y-20010380D01*
X46609047Y-20010380D01*
X46704285Y-19962761D01*
X46751904Y-19915142D01*
X46799523Y-19819904D01*
X46799523Y-19010380D01*
X47228095Y-19105619D02*
X47275714Y-19058000D01*
X47370952Y-19010380D01*
X47609047Y-19010380D01*
X47704285Y-19058000D01*
X47751904Y-19105619D01*
X47799523Y-19200857D01*
X47799523Y-19296095D01*
X47751904Y-19438952D01*
X47180476Y-20010380D01*
X47799523Y-20010380D01*
X41124285Y-19502380D02*
X41124285Y-18502380D01*
X41695714Y-19502380D01*
X41695714Y-18502380D01*
X42743333Y-19407142D02*
X42695714Y-19454761D01*
X42552857Y-19502380D01*
X42457619Y-19502380D01*
X42314761Y-19454761D01*
X42219523Y-19359523D01*
X42171904Y-19264285D01*
X42124285Y-19073809D01*
X42124285Y-18930952D01*
X42171904Y-18740476D01*
X42219523Y-18645238D01*
X42314761Y-18550000D01*
X42457619Y-18502380D01*
X42552857Y-18502380D01*
X42695714Y-18550000D01*
X42743333Y-18597619D01*
X51260476Y-19502380D02*
X51260476Y-18502380D01*
X51831904Y-19502380D01*
X51831904Y-18502380D01*
X52498571Y-18502380D02*
X52689047Y-18502380D01*
X52784285Y-18550000D01*
X52879523Y-18645238D01*
X52927142Y-18835714D01*
X52927142Y-19169047D01*
X52879523Y-19359523D01*
X52784285Y-19454761D01*
X52689047Y-19502380D01*
X52498571Y-19502380D01*
X52403333Y-19454761D01*
X52308095Y-19359523D01*
X52260476Y-19169047D01*
X52260476Y-18835714D01*
X52308095Y-18645238D01*
X52403333Y-18550000D01*
X52498571Y-18502380D01*
%TO.C,U17*%
X90836904Y-62475380D02*
X90836904Y-63284904D01*
X90884523Y-63380142D01*
X90932142Y-63427761D01*
X91027380Y-63475380D01*
X91217857Y-63475380D01*
X91313095Y-63427761D01*
X91360714Y-63380142D01*
X91408333Y-63284904D01*
X91408333Y-62475380D01*
X92408333Y-63475380D02*
X91836904Y-63475380D01*
X92122619Y-63475380D02*
X92122619Y-62475380D01*
X92027380Y-62618238D01*
X91932142Y-62713476D01*
X91836904Y-62761095D01*
X92741666Y-62475380D02*
X93408333Y-62475380D01*
X92979761Y-63475380D01*
X96345476Y-62967380D02*
X96345476Y-61967380D01*
X96916904Y-62967380D01*
X96916904Y-61967380D01*
X97583571Y-61967380D02*
X97774047Y-61967380D01*
X97869285Y-62015000D01*
X97964523Y-62110238D01*
X98012142Y-62300714D01*
X98012142Y-62634047D01*
X97964523Y-62824523D01*
X97869285Y-62919761D01*
X97774047Y-62967380D01*
X97583571Y-62967380D01*
X97488333Y-62919761D01*
X97393095Y-62824523D01*
X97345476Y-62634047D01*
X97345476Y-62300714D01*
X97393095Y-62110238D01*
X97488333Y-62015000D01*
X97583571Y-61967380D01*
X86209285Y-62967380D02*
X86209285Y-61967380D01*
X86780714Y-62967380D01*
X86780714Y-61967380D01*
X87828333Y-62872142D02*
X87780714Y-62919761D01*
X87637857Y-62967380D01*
X87542619Y-62967380D01*
X87399761Y-62919761D01*
X87304523Y-62824523D01*
X87256904Y-62729285D01*
X87209285Y-62538809D01*
X87209285Y-62395952D01*
X87256904Y-62205476D01*
X87304523Y-62110238D01*
X87399761Y-62015000D01*
X87542619Y-61967380D01*
X87637857Y-61967380D01*
X87780714Y-62015000D01*
X87828333Y-62062619D01*
%TO.C,R7*%
X63698380Y-78446666D02*
X63222190Y-78780000D01*
X63698380Y-79018095D02*
X62698380Y-79018095D01*
X62698380Y-78637142D01*
X62746000Y-78541904D01*
X62793619Y-78494285D01*
X62888857Y-78446666D01*
X63031714Y-78446666D01*
X63126952Y-78494285D01*
X63174571Y-78541904D01*
X63222190Y-78637142D01*
X63222190Y-79018095D01*
X62698380Y-78113333D02*
X62698380Y-77446666D01*
X63698380Y-77875238D01*
%TO.C,R3*%
X70921619Y-34933333D02*
X71397809Y-34600000D01*
X70921619Y-34361904D02*
X71921619Y-34361904D01*
X71921619Y-34742857D01*
X71874000Y-34838095D01*
X71826380Y-34885714D01*
X71731142Y-34933333D01*
X71588285Y-34933333D01*
X71493047Y-34885714D01*
X71445428Y-34838095D01*
X71397809Y-34742857D01*
X71397809Y-34361904D01*
X71921619Y-35266666D02*
X71921619Y-35885714D01*
X71540666Y-35552380D01*
X71540666Y-35695238D01*
X71493047Y-35790476D01*
X71445428Y-35838095D01*
X71350190Y-35885714D01*
X71112095Y-35885714D01*
X71016857Y-35838095D01*
X70969238Y-35790476D01*
X70921619Y-35695238D01*
X70921619Y-35409523D01*
X70969238Y-35314285D01*
X71016857Y-35266666D01*
%TO.C,U11*%
X43846904Y-62825380D02*
X43846904Y-63634904D01*
X43894523Y-63730142D01*
X43942142Y-63777761D01*
X44037380Y-63825380D01*
X44227857Y-63825380D01*
X44323095Y-63777761D01*
X44370714Y-63730142D01*
X44418333Y-63634904D01*
X44418333Y-62825380D01*
X45418333Y-63825380D02*
X44846904Y-63825380D01*
X45132619Y-63825380D02*
X45132619Y-62825380D01*
X45037380Y-62968238D01*
X44942142Y-63063476D01*
X44846904Y-63111095D01*
X46370714Y-63825380D02*
X45799285Y-63825380D01*
X46085000Y-63825380D02*
X46085000Y-62825380D01*
X45989761Y-62968238D01*
X45894523Y-63063476D01*
X45799285Y-63111095D01*
X39219285Y-63317380D02*
X39219285Y-62317380D01*
X39790714Y-63317380D01*
X39790714Y-62317380D01*
X40838333Y-63222142D02*
X40790714Y-63269761D01*
X40647857Y-63317380D01*
X40552619Y-63317380D01*
X40409761Y-63269761D01*
X40314523Y-63174523D01*
X40266904Y-63079285D01*
X40219285Y-62888809D01*
X40219285Y-62745952D01*
X40266904Y-62555476D01*
X40314523Y-62460238D01*
X40409761Y-62365000D01*
X40552619Y-62317380D01*
X40647857Y-62317380D01*
X40790714Y-62365000D01*
X40838333Y-62412619D01*
X49355476Y-63317380D02*
X49355476Y-62317380D01*
X49926904Y-63317380D01*
X49926904Y-62317380D01*
X50593571Y-62317380D02*
X50784047Y-62317380D01*
X50879285Y-62365000D01*
X50974523Y-62460238D01*
X51022142Y-62650714D01*
X51022142Y-62984047D01*
X50974523Y-63174523D01*
X50879285Y-63269761D01*
X50784047Y-63317380D01*
X50593571Y-63317380D01*
X50498333Y-63269761D01*
X50403095Y-63174523D01*
X50355476Y-62984047D01*
X50355476Y-62650714D01*
X50403095Y-62460238D01*
X50498333Y-62365000D01*
X50593571Y-62317380D01*
%TO.C,U6*%
X76073095Y-19010380D02*
X76073095Y-19819904D01*
X76120714Y-19915142D01*
X76168333Y-19962761D01*
X76263571Y-20010380D01*
X76454047Y-20010380D01*
X76549285Y-19962761D01*
X76596904Y-19915142D01*
X76644523Y-19819904D01*
X76644523Y-19010380D01*
X77549285Y-19010380D02*
X77358809Y-19010380D01*
X77263571Y-19058000D01*
X77215952Y-19105619D01*
X77120714Y-19248476D01*
X77073095Y-19438952D01*
X77073095Y-19819904D01*
X77120714Y-19915142D01*
X77168333Y-19962761D01*
X77263571Y-20010380D01*
X77454047Y-20010380D01*
X77549285Y-19962761D01*
X77596904Y-19915142D01*
X77644523Y-19819904D01*
X77644523Y-19581809D01*
X77596904Y-19486571D01*
X77549285Y-19438952D01*
X77454047Y-19391333D01*
X77263571Y-19391333D01*
X77168333Y-19438952D01*
X77120714Y-19486571D01*
X77073095Y-19581809D01*
X70969285Y-19502380D02*
X70969285Y-18502380D01*
X71540714Y-19502380D01*
X71540714Y-18502380D01*
X72588333Y-19407142D02*
X72540714Y-19454761D01*
X72397857Y-19502380D01*
X72302619Y-19502380D01*
X72159761Y-19454761D01*
X72064523Y-19359523D01*
X72016904Y-19264285D01*
X71969285Y-19073809D01*
X71969285Y-18930952D01*
X72016904Y-18740476D01*
X72064523Y-18645238D01*
X72159761Y-18550000D01*
X72302619Y-18502380D01*
X72397857Y-18502380D01*
X72540714Y-18550000D01*
X72588333Y-18597619D01*
X81105476Y-19502380D02*
X81105476Y-18502380D01*
X81676904Y-19502380D01*
X81676904Y-18502380D01*
X82343571Y-18502380D02*
X82534047Y-18502380D01*
X82629285Y-18550000D01*
X82724523Y-18645238D01*
X82772142Y-18835714D01*
X82772142Y-19169047D01*
X82724523Y-19359523D01*
X82629285Y-19454761D01*
X82534047Y-19502380D01*
X82343571Y-19502380D01*
X82248333Y-19454761D01*
X82153095Y-19359523D01*
X82105476Y-19169047D01*
X82105476Y-18835714D01*
X82153095Y-18645238D01*
X82248333Y-18550000D01*
X82343571Y-18502380D01*
%TO.C,U15*%
X75596904Y-62475380D02*
X75596904Y-63284904D01*
X75644523Y-63380142D01*
X75692142Y-63427761D01*
X75787380Y-63475380D01*
X75977857Y-63475380D01*
X76073095Y-63427761D01*
X76120714Y-63380142D01*
X76168333Y-63284904D01*
X76168333Y-62475380D01*
X77168333Y-63475380D02*
X76596904Y-63475380D01*
X76882619Y-63475380D02*
X76882619Y-62475380D01*
X76787380Y-62618238D01*
X76692142Y-62713476D01*
X76596904Y-62761095D01*
X78073095Y-62475380D02*
X77596904Y-62475380D01*
X77549285Y-62951571D01*
X77596904Y-62903952D01*
X77692142Y-62856333D01*
X77930238Y-62856333D01*
X78025476Y-62903952D01*
X78073095Y-62951571D01*
X78120714Y-63046809D01*
X78120714Y-63284904D01*
X78073095Y-63380142D01*
X78025476Y-63427761D01*
X77930238Y-63475380D01*
X77692142Y-63475380D01*
X77596904Y-63427761D01*
X77549285Y-63380142D01*
X81105476Y-62967380D02*
X81105476Y-61967380D01*
X81676904Y-62967380D01*
X81676904Y-61967380D01*
X82343571Y-61967380D02*
X82534047Y-61967380D01*
X82629285Y-62015000D01*
X82724523Y-62110238D01*
X82772142Y-62300714D01*
X82772142Y-62634047D01*
X82724523Y-62824523D01*
X82629285Y-62919761D01*
X82534047Y-62967380D01*
X82343571Y-62967380D01*
X82248333Y-62919761D01*
X82153095Y-62824523D01*
X82105476Y-62634047D01*
X82105476Y-62300714D01*
X82153095Y-62110238D01*
X82248333Y-62015000D01*
X82343571Y-61967380D01*
X70969285Y-62967380D02*
X70969285Y-61967380D01*
X71540714Y-62967380D01*
X71540714Y-61967380D01*
X72588333Y-62872142D02*
X72540714Y-62919761D01*
X72397857Y-62967380D01*
X72302619Y-62967380D01*
X72159761Y-62919761D01*
X72064523Y-62824523D01*
X72016904Y-62729285D01*
X71969285Y-62538809D01*
X71969285Y-62395952D01*
X72016904Y-62205476D01*
X72064523Y-62110238D01*
X72159761Y-62015000D01*
X72302619Y-61967380D01*
X72397857Y-61967380D01*
X72540714Y-62015000D01*
X72588333Y-62062619D01*
%TO.C,R4*%
X86161619Y-34933333D02*
X86637809Y-34600000D01*
X86161619Y-34361904D02*
X87161619Y-34361904D01*
X87161619Y-34742857D01*
X87114000Y-34838095D01*
X87066380Y-34885714D01*
X86971142Y-34933333D01*
X86828285Y-34933333D01*
X86733047Y-34885714D01*
X86685428Y-34838095D01*
X86637809Y-34742857D01*
X86637809Y-34361904D01*
X86828285Y-35790476D02*
X86161619Y-35790476D01*
X87209238Y-35552380D02*
X86494952Y-35314285D01*
X86494952Y-35933333D01*
%TO.C,U1*%
X30107142Y-22605714D02*
X32535714Y-22605714D01*
X32821428Y-22462857D01*
X32964285Y-22320000D01*
X33107142Y-22034285D01*
X33107142Y-21462857D01*
X32964285Y-21177142D01*
X32821428Y-21034285D01*
X32535714Y-20891428D01*
X30107142Y-20891428D01*
X33107142Y-17891428D02*
X33107142Y-19605714D01*
X33107142Y-18748571D02*
X30107142Y-18748571D01*
X30535714Y-19034285D01*
X30821428Y-19320000D01*
X30964285Y-19605714D01*
%TO.C,R6*%
X47188380Y-79081666D02*
X46712190Y-79415000D01*
X47188380Y-79653095D02*
X46188380Y-79653095D01*
X46188380Y-79272142D01*
X46236000Y-79176904D01*
X46283619Y-79129285D01*
X46378857Y-79081666D01*
X46521714Y-79081666D01*
X46616952Y-79129285D01*
X46664571Y-79176904D01*
X46712190Y-79272142D01*
X46712190Y-79653095D01*
X46188380Y-78224523D02*
X46188380Y-78415000D01*
X46236000Y-78510238D01*
X46283619Y-78557857D01*
X46426476Y-78653095D01*
X46616952Y-78700714D01*
X46997904Y-78700714D01*
X47093142Y-78653095D01*
X47140761Y-78605476D01*
X47188380Y-78510238D01*
X47188380Y-78319761D01*
X47140761Y-78224523D01*
X47093142Y-78176904D01*
X46997904Y-78129285D01*
X46759809Y-78129285D01*
X46664571Y-78176904D01*
X46616952Y-78224523D01*
X46569333Y-78319761D01*
X46569333Y-78510238D01*
X46616952Y-78605476D01*
X46664571Y-78653095D01*
X46759809Y-78700714D01*
%TO.C,U4*%
X61468095Y-19010380D02*
X61468095Y-19819904D01*
X61515714Y-19915142D01*
X61563333Y-19962761D01*
X61658571Y-20010380D01*
X61849047Y-20010380D01*
X61944285Y-19962761D01*
X61991904Y-19915142D01*
X62039523Y-19819904D01*
X62039523Y-19010380D01*
X62944285Y-19343714D02*
X62944285Y-20010380D01*
X62706190Y-18962761D02*
X62468095Y-19677047D01*
X63087142Y-19677047D01*
X56364285Y-19502380D02*
X56364285Y-18502380D01*
X56935714Y-19502380D01*
X56935714Y-18502380D01*
X57983333Y-19407142D02*
X57935714Y-19454761D01*
X57792857Y-19502380D01*
X57697619Y-19502380D01*
X57554761Y-19454761D01*
X57459523Y-19359523D01*
X57411904Y-19264285D01*
X57364285Y-19073809D01*
X57364285Y-18930952D01*
X57411904Y-18740476D01*
X57459523Y-18645238D01*
X57554761Y-18550000D01*
X57697619Y-18502380D01*
X57792857Y-18502380D01*
X57935714Y-18550000D01*
X57983333Y-18597619D01*
X66500476Y-19502380D02*
X66500476Y-18502380D01*
X67071904Y-19502380D01*
X67071904Y-18502380D01*
X67738571Y-18502380D02*
X67929047Y-18502380D01*
X68024285Y-18550000D01*
X68119523Y-18645238D01*
X68167142Y-18835714D01*
X68167142Y-19169047D01*
X68119523Y-19359523D01*
X68024285Y-19454761D01*
X67929047Y-19502380D01*
X67738571Y-19502380D01*
X67643333Y-19454761D01*
X67548095Y-19359523D01*
X67500476Y-19169047D01*
X67500476Y-18835714D01*
X67548095Y-18645238D01*
X67643333Y-18550000D01*
X67738571Y-18502380D01*
%TO.C,R5*%
X100131619Y-34933333D02*
X100607809Y-34600000D01*
X100131619Y-34361904D02*
X101131619Y-34361904D01*
X101131619Y-34742857D01*
X101084000Y-34838095D01*
X101036380Y-34885714D01*
X100941142Y-34933333D01*
X100798285Y-34933333D01*
X100703047Y-34885714D01*
X100655428Y-34838095D01*
X100607809Y-34742857D01*
X100607809Y-34361904D01*
X101131619Y-35838095D02*
X101131619Y-35361904D01*
X100655428Y-35314285D01*
X100703047Y-35361904D01*
X100750666Y-35457142D01*
X100750666Y-35695238D01*
X100703047Y-35790476D01*
X100655428Y-35838095D01*
X100560190Y-35885714D01*
X100322095Y-35885714D01*
X100226857Y-35838095D01*
X100179238Y-35790476D01*
X100131619Y-35695238D01*
X100131619Y-35457142D01*
X100179238Y-35361904D01*
X100226857Y-35314285D01*
%TO.C,V1*%
X16208476Y-30440380D02*
X16541809Y-31440380D01*
X16875142Y-30440380D01*
X17732285Y-31440380D02*
X17160857Y-31440380D01*
X17446571Y-31440380D02*
X17446571Y-30440380D01*
X17351333Y-30583238D01*
X17256095Y-30678476D01*
X17160857Y-30726095D01*
X18859619Y-34250380D02*
X19192952Y-35250380D01*
X19526285Y-34250380D01*
X19859619Y-34869428D02*
X20621523Y-34869428D01*
X18605619Y-28154380D02*
X18938952Y-29154380D01*
X19272285Y-28154380D01*
X19605619Y-28773428D02*
X20367523Y-28773428D01*
X19986571Y-29154380D02*
X19986571Y-28392476D01*
%TO.C,R8*%
X78303380Y-78446666D02*
X77827190Y-78780000D01*
X78303380Y-79018095D02*
X77303380Y-79018095D01*
X77303380Y-78637142D01*
X77351000Y-78541904D01*
X77398619Y-78494285D01*
X77493857Y-78446666D01*
X77636714Y-78446666D01*
X77731952Y-78494285D01*
X77779571Y-78541904D01*
X77827190Y-78637142D01*
X77827190Y-79018095D01*
X77731952Y-77875238D02*
X77684333Y-77970476D01*
X77636714Y-78018095D01*
X77541476Y-78065714D01*
X77493857Y-78065714D01*
X77398619Y-78018095D01*
X77351000Y-77970476D01*
X77303380Y-77875238D01*
X77303380Y-77684761D01*
X77351000Y-77589523D01*
X77398619Y-77541904D01*
X77493857Y-77494285D01*
X77541476Y-77494285D01*
X77636714Y-77541904D01*
X77684333Y-77589523D01*
X77731952Y-77684761D01*
X77731952Y-77875238D01*
X77779571Y-77970476D01*
X77827190Y-78018095D01*
X77922428Y-78065714D01*
X78112904Y-78065714D01*
X78208142Y-78018095D01*
X78255761Y-77970476D01*
X78303380Y-77875238D01*
X78303380Y-77684761D01*
X78255761Y-77589523D01*
X78208142Y-77541904D01*
X78112904Y-77494285D01*
X77922428Y-77494285D01*
X77827190Y-77541904D01*
X77779571Y-77589523D01*
X77731952Y-77684761D01*
%TO.C,R2*%
X56951619Y-34933333D02*
X57427809Y-34600000D01*
X56951619Y-34361904D02*
X57951619Y-34361904D01*
X57951619Y-34742857D01*
X57904000Y-34838095D01*
X57856380Y-34885714D01*
X57761142Y-34933333D01*
X57618285Y-34933333D01*
X57523047Y-34885714D01*
X57475428Y-34838095D01*
X57427809Y-34742857D01*
X57427809Y-34361904D01*
X57856380Y-35314285D02*
X57904000Y-35361904D01*
X57951619Y-35457142D01*
X57951619Y-35695238D01*
X57904000Y-35790476D01*
X57856380Y-35838095D01*
X57761142Y-35885714D01*
X57665904Y-35885714D01*
X57523047Y-35838095D01*
X56951619Y-35266666D01*
X56951619Y-35885714D01*
%TO.C,R9*%
X94178380Y-78446666D02*
X93702190Y-78780000D01*
X94178380Y-79018095D02*
X93178380Y-79018095D01*
X93178380Y-78637142D01*
X93226000Y-78541904D01*
X93273619Y-78494285D01*
X93368857Y-78446666D01*
X93511714Y-78446666D01*
X93606952Y-78494285D01*
X93654571Y-78541904D01*
X93702190Y-78637142D01*
X93702190Y-79018095D01*
X94178380Y-77970476D02*
X94178380Y-77780000D01*
X94130761Y-77684761D01*
X94083142Y-77637142D01*
X93940285Y-77541904D01*
X93749809Y-77494285D01*
X93368857Y-77494285D01*
X93273619Y-77541904D01*
X93226000Y-77589523D01*
X93178380Y-77684761D01*
X93178380Y-77875238D01*
X93226000Y-77970476D01*
X93273619Y-78018095D01*
X93368857Y-78065714D01*
X93606952Y-78065714D01*
X93702190Y-78018095D01*
X93749809Y-77970476D01*
X93797428Y-77875238D01*
X93797428Y-77684761D01*
X93749809Y-77589523D01*
X93702190Y-77541904D01*
X93606952Y-77494285D01*
%TO.C,U13*%
X59721904Y-62475380D02*
X59721904Y-63284904D01*
X59769523Y-63380142D01*
X59817142Y-63427761D01*
X59912380Y-63475380D01*
X60102857Y-63475380D01*
X60198095Y-63427761D01*
X60245714Y-63380142D01*
X60293333Y-63284904D01*
X60293333Y-62475380D01*
X61293333Y-63475380D02*
X60721904Y-63475380D01*
X61007619Y-63475380D02*
X61007619Y-62475380D01*
X60912380Y-62618238D01*
X60817142Y-62713476D01*
X60721904Y-62761095D01*
X61626666Y-62475380D02*
X62245714Y-62475380D01*
X61912380Y-62856333D01*
X62055238Y-62856333D01*
X62150476Y-62903952D01*
X62198095Y-62951571D01*
X62245714Y-63046809D01*
X62245714Y-63284904D01*
X62198095Y-63380142D01*
X62150476Y-63427761D01*
X62055238Y-63475380D01*
X61769523Y-63475380D01*
X61674285Y-63427761D01*
X61626666Y-63380142D01*
X55094285Y-62967380D02*
X55094285Y-61967380D01*
X55665714Y-62967380D01*
X55665714Y-61967380D01*
X56713333Y-62872142D02*
X56665714Y-62919761D01*
X56522857Y-62967380D01*
X56427619Y-62967380D01*
X56284761Y-62919761D01*
X56189523Y-62824523D01*
X56141904Y-62729285D01*
X56094285Y-62538809D01*
X56094285Y-62395952D01*
X56141904Y-62205476D01*
X56189523Y-62110238D01*
X56284761Y-62015000D01*
X56427619Y-61967380D01*
X56522857Y-61967380D01*
X56665714Y-62015000D01*
X56713333Y-62062619D01*
X65230476Y-62967380D02*
X65230476Y-61967380D01*
X65801904Y-62967380D01*
X65801904Y-61967380D01*
X66468571Y-61967380D02*
X66659047Y-61967380D01*
X66754285Y-62015000D01*
X66849523Y-62110238D01*
X66897142Y-62300714D01*
X66897142Y-62634047D01*
X66849523Y-62824523D01*
X66754285Y-62919761D01*
X66659047Y-62967380D01*
X66468571Y-62967380D01*
X66373333Y-62919761D01*
X66278095Y-62824523D01*
X66230476Y-62634047D01*
X66230476Y-62300714D01*
X66278095Y-62110238D01*
X66373333Y-62015000D01*
X66468571Y-61967380D01*
%TO.C,R1*%
X37266619Y-42378333D02*
X37742809Y-42045000D01*
X37266619Y-41806904D02*
X38266619Y-41806904D01*
X38266619Y-42187857D01*
X38219000Y-42283095D01*
X38171380Y-42330714D01*
X38076142Y-42378333D01*
X37933285Y-42378333D01*
X37838047Y-42330714D01*
X37790428Y-42283095D01*
X37742809Y-42187857D01*
X37742809Y-41806904D01*
X37266619Y-43330714D02*
X37266619Y-42759285D01*
X37266619Y-43045000D02*
X38266619Y-43045000D01*
X38123761Y-42949761D01*
X38028523Y-42854523D01*
X37980904Y-42759285D01*
%TO.C,U8*%
X90678095Y-19010380D02*
X90678095Y-19819904D01*
X90725714Y-19915142D01*
X90773333Y-19962761D01*
X90868571Y-20010380D01*
X91059047Y-20010380D01*
X91154285Y-19962761D01*
X91201904Y-19915142D01*
X91249523Y-19819904D01*
X91249523Y-19010380D01*
X91868571Y-19438952D02*
X91773333Y-19391333D01*
X91725714Y-19343714D01*
X91678095Y-19248476D01*
X91678095Y-19200857D01*
X91725714Y-19105619D01*
X91773333Y-19058000D01*
X91868571Y-19010380D01*
X92059047Y-19010380D01*
X92154285Y-19058000D01*
X92201904Y-19105619D01*
X92249523Y-19200857D01*
X92249523Y-19248476D01*
X92201904Y-19343714D01*
X92154285Y-19391333D01*
X92059047Y-19438952D01*
X91868571Y-19438952D01*
X91773333Y-19486571D01*
X91725714Y-19534190D01*
X91678095Y-19629428D01*
X91678095Y-19819904D01*
X91725714Y-19915142D01*
X91773333Y-19962761D01*
X91868571Y-20010380D01*
X92059047Y-20010380D01*
X92154285Y-19962761D01*
X92201904Y-19915142D01*
X92249523Y-19819904D01*
X92249523Y-19629428D01*
X92201904Y-19534190D01*
X92154285Y-19486571D01*
X92059047Y-19438952D01*
X85574285Y-19502380D02*
X85574285Y-18502380D01*
X86145714Y-19502380D01*
X86145714Y-18502380D01*
X87193333Y-19407142D02*
X87145714Y-19454761D01*
X87002857Y-19502380D01*
X86907619Y-19502380D01*
X86764761Y-19454761D01*
X86669523Y-19359523D01*
X86621904Y-19264285D01*
X86574285Y-19073809D01*
X86574285Y-18930952D01*
X86621904Y-18740476D01*
X86669523Y-18645238D01*
X86764761Y-18550000D01*
X86907619Y-18502380D01*
X87002857Y-18502380D01*
X87145714Y-18550000D01*
X87193333Y-18597619D01*
X95710476Y-19502380D02*
X95710476Y-18502380D01*
X96281904Y-19502380D01*
X96281904Y-18502380D01*
X96948571Y-18502380D02*
X97139047Y-18502380D01*
X97234285Y-18550000D01*
X97329523Y-18645238D01*
X97377142Y-18835714D01*
X97377142Y-19169047D01*
X97329523Y-19359523D01*
X97234285Y-19454761D01*
X97139047Y-19502380D01*
X96948571Y-19502380D01*
X96853333Y-19454761D01*
X96758095Y-19359523D01*
X96710476Y-19169047D01*
X96710476Y-18835714D01*
X96758095Y-18645238D01*
X96853333Y-18550000D01*
X96948571Y-18502380D01*
D12*
%TO.C,U2*%
X46228000Y-16256000D02*
X41910000Y-20828000D01*
X47752000Y-16256000D02*
X52070000Y-20828000D01*
%TO.C,U17*%
X92837000Y-59721000D02*
X97155000Y-64293000D01*
X91313000Y-59721000D02*
X86995000Y-64293000D01*
%TO.C,R7*%
X64310000Y-86280000D02*
X70310000Y-86280000D01*
X70310000Y-86280000D02*
X70310000Y-70280000D01*
X70310000Y-70280000D02*
X64310000Y-70280000D01*
X64310000Y-70280000D02*
X64310000Y-86280000D01*
%TO.C,R3*%
X70310000Y-27100000D02*
X64310000Y-27100000D01*
X64310000Y-27100000D02*
X64310000Y-43100000D01*
X64310000Y-43100000D02*
X70310000Y-43100000D01*
X70310000Y-43100000D02*
X70310000Y-27100000D01*
%TO.C,U11*%
X45847000Y-60071000D02*
X50165000Y-64643000D01*
X44323000Y-60071000D02*
X40005000Y-64643000D01*
%TO.C,U6*%
X77597000Y-16256000D02*
X81915000Y-20828000D01*
X76073000Y-16256000D02*
X71755000Y-20828000D01*
%TO.C,U15*%
X77597000Y-59721000D02*
X81915000Y-64293000D01*
X76073000Y-59721000D02*
X71755000Y-64293000D01*
%TO.C,R4*%
X85550000Y-27100000D02*
X79550000Y-27100000D01*
X79550000Y-27100000D02*
X79550000Y-43100000D01*
X79550000Y-43100000D02*
X85550000Y-43100000D01*
X85550000Y-43100000D02*
X85550000Y-27100000D01*
%TO.C,U1*%
X37750000Y-20320000D02*
G75*
G03*
X37750000Y-20320000I-6000000J0D01*
G01*
%TO.C,R6*%
X47800000Y-86915000D02*
X53800000Y-86915000D01*
X53800000Y-86915000D02*
X53800000Y-70915000D01*
X53800000Y-70915000D02*
X47800000Y-70915000D01*
X47800000Y-70915000D02*
X47800000Y-86915000D01*
%TO.C,U4*%
X61468000Y-16256000D02*
X57150000Y-20828000D01*
X62992000Y-16256000D02*
X67310000Y-20828000D01*
%TO.C,R5*%
X99520000Y-27100000D02*
X93520000Y-27100000D01*
X93520000Y-27100000D02*
X93520000Y-43100000D01*
X93520000Y-43100000D02*
X99520000Y-43100000D01*
X99520000Y-43100000D02*
X99520000Y-27100000D01*
%TO.C,V1*%
X27590000Y-31750000D02*
G75*
G03*
X27590000Y-31750000I-6000000J0D01*
G01*
%TO.C,R8*%
X78915000Y-86280000D02*
X84915000Y-86280000D01*
X84915000Y-86280000D02*
X84915000Y-70280000D01*
X84915000Y-70280000D02*
X78915000Y-70280000D01*
X78915000Y-70280000D02*
X78915000Y-86280000D01*
%TO.C,R2*%
X56340000Y-27100000D02*
X50340000Y-27100000D01*
X50340000Y-27100000D02*
X50340000Y-43100000D01*
X50340000Y-43100000D02*
X56340000Y-43100000D01*
X56340000Y-43100000D02*
X56340000Y-27100000D01*
%TO.C,R9*%
X94790000Y-86280000D02*
X100790000Y-86280000D01*
X100790000Y-86280000D02*
X100790000Y-70280000D01*
X100790000Y-70280000D02*
X94790000Y-70280000D01*
X94790000Y-70280000D02*
X94790000Y-86280000D01*
%TO.C,U13*%
X60198000Y-59721000D02*
X55880000Y-64293000D01*
X61722000Y-59721000D02*
X66040000Y-64293000D01*
%TO.C,R1*%
X36655000Y-34545000D02*
X30655000Y-34545000D01*
X30655000Y-34545000D02*
X30655000Y-50545000D01*
X30655000Y-50545000D02*
X36655000Y-50545000D01*
X36655000Y-50545000D02*
X36655000Y-34545000D01*
%TO.C,U8*%
X90678000Y-16256000D02*
X86360000Y-20828000D01*
X92202000Y-16256000D02*
X96520000Y-20828000D01*
%TD*%
M02*
