%TF.GenerationSoftware,KiCad,Pcbnew,(6.0.7)*%
%TF.CreationDate,2022-09-05T15:10:35+08:00*%
%TF.ProjectId,6_6,365f362e-6b69-4636-9164-5f7063625858,rev?*%
%TF.SameCoordinates,Original*%
%TF.FileFunction,Legend,Bot*%
%TF.FilePolarity,Positive*%
%FSLAX46Y46*%
G04 Gerber Fmt 4.6, Leading zero omitted, Abs format (unit mm)*
G04 Created by KiCad (PCBNEW (6.0.7)) date 2022-09-05 15:10:35*
%MOMM*%
%LPD*%
G01*
G04 APERTURE LIST*
%ADD10C,0.150000*%
%ADD11C,0.120000*%
G04 APERTURE END LIST*
D10*
%TO.C,U14*%
X74961904Y-94194619D02*
X74961904Y-93385095D01*
X75009523Y-93289857D01*
X75057142Y-93242238D01*
X75152380Y-93194619D01*
X75342857Y-93194619D01*
X75438095Y-93242238D01*
X75485714Y-93289857D01*
X75533333Y-93385095D01*
X75533333Y-94194619D01*
X76533333Y-93194619D02*
X75961904Y-93194619D01*
X76247619Y-93194619D02*
X76247619Y-94194619D01*
X76152380Y-94051761D01*
X76057142Y-93956523D01*
X75961904Y-93908904D01*
X77390476Y-93861285D02*
X77390476Y-93194619D01*
X77152380Y-94242238D02*
X76914285Y-93527952D01*
X77533333Y-93527952D01*
X80470476Y-93702619D02*
X80470476Y-94702619D01*
X81041904Y-93702619D01*
X81041904Y-94702619D01*
X81708571Y-94702619D02*
X81899047Y-94702619D01*
X81994285Y-94655000D01*
X82089523Y-94559761D01*
X82137142Y-94369285D01*
X82137142Y-94035952D01*
X82089523Y-93845476D01*
X81994285Y-93750238D01*
X81899047Y-93702619D01*
X81708571Y-93702619D01*
X81613333Y-93750238D01*
X81518095Y-93845476D01*
X81470476Y-94035952D01*
X81470476Y-94369285D01*
X81518095Y-94559761D01*
X81613333Y-94655000D01*
X81708571Y-94702619D01*
X70334285Y-93702619D02*
X70334285Y-94702619D01*
X70905714Y-93702619D01*
X70905714Y-94702619D01*
X71953333Y-93797857D02*
X71905714Y-93750238D01*
X71762857Y-93702619D01*
X71667619Y-93702619D01*
X71524761Y-93750238D01*
X71429523Y-93845476D01*
X71381904Y-93940714D01*
X71334285Y-94131190D01*
X71334285Y-94274047D01*
X71381904Y-94464523D01*
X71429523Y-94559761D01*
X71524761Y-94655000D01*
X71667619Y-94702619D01*
X71762857Y-94702619D01*
X71905714Y-94655000D01*
X71953333Y-94607380D01*
%TO.C,U5*%
X60833095Y-52459619D02*
X60833095Y-51650095D01*
X60880714Y-51554857D01*
X60928333Y-51507238D01*
X61023571Y-51459619D01*
X61214047Y-51459619D01*
X61309285Y-51507238D01*
X61356904Y-51554857D01*
X61404523Y-51650095D01*
X61404523Y-52459619D01*
X62356904Y-52459619D02*
X61880714Y-52459619D01*
X61833095Y-51983428D01*
X61880714Y-52031047D01*
X61975952Y-52078666D01*
X62214047Y-52078666D01*
X62309285Y-52031047D01*
X62356904Y-51983428D01*
X62404523Y-51888190D01*
X62404523Y-51650095D01*
X62356904Y-51554857D01*
X62309285Y-51507238D01*
X62214047Y-51459619D01*
X61975952Y-51459619D01*
X61880714Y-51507238D01*
X61833095Y-51554857D01*
X65865476Y-51967619D02*
X65865476Y-52967619D01*
X66436904Y-51967619D01*
X66436904Y-52967619D01*
X67103571Y-52967619D02*
X67294047Y-52967619D01*
X67389285Y-52920000D01*
X67484523Y-52824761D01*
X67532142Y-52634285D01*
X67532142Y-52300952D01*
X67484523Y-52110476D01*
X67389285Y-52015238D01*
X67294047Y-51967619D01*
X67103571Y-51967619D01*
X67008333Y-52015238D01*
X66913095Y-52110476D01*
X66865476Y-52300952D01*
X66865476Y-52634285D01*
X66913095Y-52824761D01*
X67008333Y-52920000D01*
X67103571Y-52967619D01*
X55729285Y-51967619D02*
X55729285Y-52967619D01*
X56300714Y-51967619D01*
X56300714Y-52967619D01*
X57348333Y-52062857D02*
X57300714Y-52015238D01*
X57157857Y-51967619D01*
X57062619Y-51967619D01*
X56919761Y-52015238D01*
X56824523Y-52110476D01*
X56776904Y-52205714D01*
X56729285Y-52396190D01*
X56729285Y-52539047D01*
X56776904Y-52729523D01*
X56824523Y-52824761D01*
X56919761Y-52920000D01*
X57062619Y-52967619D01*
X57157857Y-52967619D01*
X57300714Y-52920000D01*
X57348333Y-52872380D01*
%TO.C,U9*%
X90678095Y-52459619D02*
X90678095Y-51650095D01*
X90725714Y-51554857D01*
X90773333Y-51507238D01*
X90868571Y-51459619D01*
X91059047Y-51459619D01*
X91154285Y-51507238D01*
X91201904Y-51554857D01*
X91249523Y-51650095D01*
X91249523Y-52459619D01*
X91773333Y-51459619D02*
X91963809Y-51459619D01*
X92059047Y-51507238D01*
X92106666Y-51554857D01*
X92201904Y-51697714D01*
X92249523Y-51888190D01*
X92249523Y-52269142D01*
X92201904Y-52364380D01*
X92154285Y-52412000D01*
X92059047Y-52459619D01*
X91868571Y-52459619D01*
X91773333Y-52412000D01*
X91725714Y-52364380D01*
X91678095Y-52269142D01*
X91678095Y-52031047D01*
X91725714Y-51935809D01*
X91773333Y-51888190D01*
X91868571Y-51840571D01*
X92059047Y-51840571D01*
X92154285Y-51888190D01*
X92201904Y-51935809D01*
X92249523Y-52031047D01*
X85574285Y-51967619D02*
X85574285Y-52967619D01*
X86145714Y-51967619D01*
X86145714Y-52967619D01*
X87193333Y-52062857D02*
X87145714Y-52015238D01*
X87002857Y-51967619D01*
X86907619Y-51967619D01*
X86764761Y-52015238D01*
X86669523Y-52110476D01*
X86621904Y-52205714D01*
X86574285Y-52396190D01*
X86574285Y-52539047D01*
X86621904Y-52729523D01*
X86669523Y-52824761D01*
X86764761Y-52920000D01*
X86907619Y-52967619D01*
X87002857Y-52967619D01*
X87145714Y-52920000D01*
X87193333Y-52872380D01*
X95710476Y-51967619D02*
X95710476Y-52967619D01*
X96281904Y-51967619D01*
X96281904Y-52967619D01*
X96948571Y-52967619D02*
X97139047Y-52967619D01*
X97234285Y-52920000D01*
X97329523Y-52824761D01*
X97377142Y-52634285D01*
X97377142Y-52300952D01*
X97329523Y-52110476D01*
X97234285Y-52015238D01*
X97139047Y-51967619D01*
X96948571Y-51967619D01*
X96853333Y-52015238D01*
X96758095Y-52110476D01*
X96710476Y-52300952D01*
X96710476Y-52634285D01*
X96758095Y-52824761D01*
X96853333Y-52920000D01*
X96948571Y-52967619D01*
%TO.C,U12*%
X59721904Y-93734619D02*
X59721904Y-92925095D01*
X59769523Y-92829857D01*
X59817142Y-92782238D01*
X59912380Y-92734619D01*
X60102857Y-92734619D01*
X60198095Y-92782238D01*
X60245714Y-92829857D01*
X60293333Y-92925095D01*
X60293333Y-93734619D01*
X61293333Y-92734619D02*
X60721904Y-92734619D01*
X61007619Y-92734619D02*
X61007619Y-93734619D01*
X60912380Y-93591761D01*
X60817142Y-93496523D01*
X60721904Y-93448904D01*
X61674285Y-93639380D02*
X61721904Y-93687000D01*
X61817142Y-93734619D01*
X62055238Y-93734619D01*
X62150476Y-93687000D01*
X62198095Y-93639380D01*
X62245714Y-93544142D01*
X62245714Y-93448904D01*
X62198095Y-93306047D01*
X61626666Y-92734619D01*
X62245714Y-92734619D01*
X55094285Y-93242619D02*
X55094285Y-94242619D01*
X55665714Y-93242619D01*
X55665714Y-94242619D01*
X56713333Y-93337857D02*
X56665714Y-93290238D01*
X56522857Y-93242619D01*
X56427619Y-93242619D01*
X56284761Y-93290238D01*
X56189523Y-93385476D01*
X56141904Y-93480714D01*
X56094285Y-93671190D01*
X56094285Y-93814047D01*
X56141904Y-94004523D01*
X56189523Y-94099761D01*
X56284761Y-94195000D01*
X56427619Y-94242619D01*
X56522857Y-94242619D01*
X56665714Y-94195000D01*
X56713333Y-94147380D01*
X65230476Y-93242619D02*
X65230476Y-94242619D01*
X65801904Y-93242619D01*
X65801904Y-94242619D01*
X66468571Y-94242619D02*
X66659047Y-94242619D01*
X66754285Y-94195000D01*
X66849523Y-94099761D01*
X66897142Y-93909285D01*
X66897142Y-93575952D01*
X66849523Y-93385476D01*
X66754285Y-93290238D01*
X66659047Y-93242619D01*
X66468571Y-93242619D01*
X66373333Y-93290238D01*
X66278095Y-93385476D01*
X66230476Y-93575952D01*
X66230476Y-93909285D01*
X66278095Y-94099761D01*
X66373333Y-94195000D01*
X66468571Y-94242619D01*
%TO.C,U7*%
X76073095Y-51999619D02*
X76073095Y-51190095D01*
X76120714Y-51094857D01*
X76168333Y-51047238D01*
X76263571Y-50999619D01*
X76454047Y-50999619D01*
X76549285Y-51047238D01*
X76596904Y-51094857D01*
X76644523Y-51190095D01*
X76644523Y-51999619D01*
X77025476Y-51999619D02*
X77692142Y-51999619D01*
X77263571Y-50999619D01*
X70969285Y-51507619D02*
X70969285Y-52507619D01*
X71540714Y-51507619D01*
X71540714Y-52507619D01*
X72588333Y-51602857D02*
X72540714Y-51555238D01*
X72397857Y-51507619D01*
X72302619Y-51507619D01*
X72159761Y-51555238D01*
X72064523Y-51650476D01*
X72016904Y-51745714D01*
X71969285Y-51936190D01*
X71969285Y-52079047D01*
X72016904Y-52269523D01*
X72064523Y-52364761D01*
X72159761Y-52460000D01*
X72302619Y-52507619D01*
X72397857Y-52507619D01*
X72540714Y-52460000D01*
X72588333Y-52412380D01*
X81105476Y-51507619D02*
X81105476Y-52507619D01*
X81676904Y-51507619D01*
X81676904Y-52507619D01*
X82343571Y-52507619D02*
X82534047Y-52507619D01*
X82629285Y-52460000D01*
X82724523Y-52364761D01*
X82772142Y-52174285D01*
X82772142Y-51840952D01*
X82724523Y-51650476D01*
X82629285Y-51555238D01*
X82534047Y-51507619D01*
X82343571Y-51507619D01*
X82248333Y-51555238D01*
X82153095Y-51650476D01*
X82105476Y-51840952D01*
X82105476Y-52174285D01*
X82153095Y-52364761D01*
X82248333Y-52460000D01*
X82343571Y-52507619D01*
%TO.C,U10*%
X43846904Y-94194619D02*
X43846904Y-93385095D01*
X43894523Y-93289857D01*
X43942142Y-93242238D01*
X44037380Y-93194619D01*
X44227857Y-93194619D01*
X44323095Y-93242238D01*
X44370714Y-93289857D01*
X44418333Y-93385095D01*
X44418333Y-94194619D01*
X45418333Y-93194619D02*
X44846904Y-93194619D01*
X45132619Y-93194619D02*
X45132619Y-94194619D01*
X45037380Y-94051761D01*
X44942142Y-93956523D01*
X44846904Y-93908904D01*
X46037380Y-94194619D02*
X46132619Y-94194619D01*
X46227857Y-94147000D01*
X46275476Y-94099380D01*
X46323095Y-94004142D01*
X46370714Y-93813666D01*
X46370714Y-93575571D01*
X46323095Y-93385095D01*
X46275476Y-93289857D01*
X46227857Y-93242238D01*
X46132619Y-93194619D01*
X46037380Y-93194619D01*
X45942142Y-93242238D01*
X45894523Y-93289857D01*
X45846904Y-93385095D01*
X45799285Y-93575571D01*
X45799285Y-93813666D01*
X45846904Y-94004142D01*
X45894523Y-94099380D01*
X45942142Y-94147000D01*
X46037380Y-94194619D01*
X39219285Y-93702619D02*
X39219285Y-94702619D01*
X39790714Y-93702619D01*
X39790714Y-94702619D01*
X40838333Y-93797857D02*
X40790714Y-93750238D01*
X40647857Y-93702619D01*
X40552619Y-93702619D01*
X40409761Y-93750238D01*
X40314523Y-93845476D01*
X40266904Y-93940714D01*
X40219285Y-94131190D01*
X40219285Y-94274047D01*
X40266904Y-94464523D01*
X40314523Y-94559761D01*
X40409761Y-94655000D01*
X40552619Y-94702619D01*
X40647857Y-94702619D01*
X40790714Y-94655000D01*
X40838333Y-94607380D01*
X49355476Y-93702619D02*
X49355476Y-94702619D01*
X49926904Y-93702619D01*
X49926904Y-94702619D01*
X50593571Y-94702619D02*
X50784047Y-94702619D01*
X50879285Y-94655000D01*
X50974523Y-94559761D01*
X51022142Y-94369285D01*
X51022142Y-94035952D01*
X50974523Y-93845476D01*
X50879285Y-93750238D01*
X50784047Y-93702619D01*
X50593571Y-93702619D01*
X50498333Y-93750238D01*
X50403095Y-93845476D01*
X50355476Y-94035952D01*
X50355476Y-94369285D01*
X50403095Y-94559761D01*
X50498333Y-94655000D01*
X50593571Y-94702619D01*
%TO.C,U3*%
X46228095Y-52459619D02*
X46228095Y-51650095D01*
X46275714Y-51554857D01*
X46323333Y-51507238D01*
X46418571Y-51459619D01*
X46609047Y-51459619D01*
X46704285Y-51507238D01*
X46751904Y-51554857D01*
X46799523Y-51650095D01*
X46799523Y-52459619D01*
X47180476Y-52459619D02*
X47799523Y-52459619D01*
X47466190Y-52078666D01*
X47609047Y-52078666D01*
X47704285Y-52031047D01*
X47751904Y-51983428D01*
X47799523Y-51888190D01*
X47799523Y-51650095D01*
X47751904Y-51554857D01*
X47704285Y-51507238D01*
X47609047Y-51459619D01*
X47323333Y-51459619D01*
X47228095Y-51507238D01*
X47180476Y-51554857D01*
X41124285Y-51967619D02*
X41124285Y-52967619D01*
X41695714Y-51967619D01*
X41695714Y-52967619D01*
X42743333Y-52062857D02*
X42695714Y-52015238D01*
X42552857Y-51967619D01*
X42457619Y-51967619D01*
X42314761Y-52015238D01*
X42219523Y-52110476D01*
X42171904Y-52205714D01*
X42124285Y-52396190D01*
X42124285Y-52539047D01*
X42171904Y-52729523D01*
X42219523Y-52824761D01*
X42314761Y-52920000D01*
X42457619Y-52967619D01*
X42552857Y-52967619D01*
X42695714Y-52920000D01*
X42743333Y-52872380D01*
X51260476Y-51967619D02*
X51260476Y-52967619D01*
X51831904Y-51967619D01*
X51831904Y-52967619D01*
X52498571Y-52967619D02*
X52689047Y-52967619D01*
X52784285Y-52920000D01*
X52879523Y-52824761D01*
X52927142Y-52634285D01*
X52927142Y-52300952D01*
X52879523Y-52110476D01*
X52784285Y-52015238D01*
X52689047Y-51967619D01*
X52498571Y-51967619D01*
X52403333Y-52015238D01*
X52308095Y-52110476D01*
X52260476Y-52300952D01*
X52260476Y-52634285D01*
X52308095Y-52824761D01*
X52403333Y-52920000D01*
X52498571Y-52967619D01*
%TO.C,U16*%
X90836904Y-94194619D02*
X90836904Y-93385095D01*
X90884523Y-93289857D01*
X90932142Y-93242238D01*
X91027380Y-93194619D01*
X91217857Y-93194619D01*
X91313095Y-93242238D01*
X91360714Y-93289857D01*
X91408333Y-93385095D01*
X91408333Y-94194619D01*
X92408333Y-93194619D02*
X91836904Y-93194619D01*
X92122619Y-93194619D02*
X92122619Y-94194619D01*
X92027380Y-94051761D01*
X91932142Y-93956523D01*
X91836904Y-93908904D01*
X93265476Y-94194619D02*
X93075000Y-94194619D01*
X92979761Y-94147000D01*
X92932142Y-94099380D01*
X92836904Y-93956523D01*
X92789285Y-93766047D01*
X92789285Y-93385095D01*
X92836904Y-93289857D01*
X92884523Y-93242238D01*
X92979761Y-93194619D01*
X93170238Y-93194619D01*
X93265476Y-93242238D01*
X93313095Y-93289857D01*
X93360714Y-93385095D01*
X93360714Y-93623190D01*
X93313095Y-93718428D01*
X93265476Y-93766047D01*
X93170238Y-93813666D01*
X92979761Y-93813666D01*
X92884523Y-93766047D01*
X92836904Y-93718428D01*
X92789285Y-93623190D01*
X86209285Y-93702619D02*
X86209285Y-94702619D01*
X86780714Y-93702619D01*
X86780714Y-94702619D01*
X87828333Y-93797857D02*
X87780714Y-93750238D01*
X87637857Y-93702619D01*
X87542619Y-93702619D01*
X87399761Y-93750238D01*
X87304523Y-93845476D01*
X87256904Y-93940714D01*
X87209285Y-94131190D01*
X87209285Y-94274047D01*
X87256904Y-94464523D01*
X87304523Y-94559761D01*
X87399761Y-94655000D01*
X87542619Y-94702619D01*
X87637857Y-94702619D01*
X87780714Y-94655000D01*
X87828333Y-94607380D01*
X96345476Y-93702619D02*
X96345476Y-94702619D01*
X96916904Y-93702619D01*
X96916904Y-94702619D01*
X97583571Y-94702619D02*
X97774047Y-94702619D01*
X97869285Y-94655000D01*
X97964523Y-94559761D01*
X98012142Y-94369285D01*
X98012142Y-94035952D01*
X97964523Y-93845476D01*
X97869285Y-93750238D01*
X97774047Y-93702619D01*
X97583571Y-93702619D01*
X97488333Y-93750238D01*
X97393095Y-93845476D01*
X97345476Y-94035952D01*
X97345476Y-94369285D01*
X97393095Y-94559761D01*
X97488333Y-94655000D01*
X97583571Y-94702619D01*
D11*
%TO.C,U14*%
X75438000Y-96949000D02*
X71120000Y-92377000D01*
X76962000Y-96949000D02*
X81280000Y-92377000D01*
%TO.C,U5*%
X62357000Y-55214000D02*
X66675000Y-50642000D01*
X60833000Y-55214000D02*
X56515000Y-50642000D01*
%TO.C,U9*%
X90678000Y-55214000D02*
X86360000Y-50642000D01*
X92202000Y-55214000D02*
X96520000Y-50642000D01*
%TO.C,U12*%
X61722000Y-96489000D02*
X66040000Y-91917000D01*
X60198000Y-96489000D02*
X55880000Y-91917000D01*
%TO.C,U7*%
X77597000Y-54754000D02*
X81915000Y-50182000D01*
X76073000Y-54754000D02*
X71755000Y-50182000D01*
%TO.C,U10*%
X44323000Y-96949000D02*
X40005000Y-92377000D01*
X45847000Y-96949000D02*
X50165000Y-92377000D01*
%TO.C,U3*%
X46228000Y-55214000D02*
X41910000Y-50642000D01*
X47752000Y-55214000D02*
X52070000Y-50642000D01*
%TO.C,U16*%
X91313000Y-96949000D02*
X86995000Y-92377000D01*
X92837000Y-96949000D02*
X97155000Y-92377000D01*
%TD*%
M02*
