%TF.GenerationSoftware,KiCad,Pcbnew,(6.0.7)*%
%TF.CreationDate,2022-09-05T15:10:35+08:00*%
%TF.ProjectId,6_6,365f362e-6b69-4636-9164-5f7063625858,rev?*%
%TF.SameCoordinates,Original*%
%TF.FileFunction,Soldermask,Bot*%
%TF.FilePolarity,Negative*%
%FSLAX46Y46*%
G04 Gerber Fmt 4.6, Leading zero omitted, Abs format (unit mm)*
G04 Created by KiCad (PCBNEW (6.0.7)) date 2022-09-05 15:10:35*
%MOMM*%
%LPD*%
G01*
G04 APERTURE LIST*
%ADD10C,1.524000*%
G04 APERTURE END LIST*
D10*
%TO.C,U2*%
X46990000Y-15590000D03*
X40990000Y-21590000D03*
X52990000Y-21590000D03*
%TD*%
%TO.C,U17*%
X92075000Y-59055000D03*
X86075000Y-65055000D03*
X98075000Y-65055000D03*
%TD*%
%TO.C,R7*%
X67310000Y-88280000D03*
X67310000Y-68280000D03*
%TD*%
%TO.C,R3*%
X67310000Y-25100000D03*
X67310000Y-45100000D03*
%TD*%
%TO.C,U11*%
X45085000Y-59405000D03*
X39085000Y-65405000D03*
X51085000Y-65405000D03*
%TD*%
%TO.C,U6*%
X76835000Y-15590000D03*
X70835000Y-21590000D03*
X82835000Y-21590000D03*
%TD*%
%TO.C,U15*%
X76835000Y-59055000D03*
X70835000Y-65055000D03*
X82835000Y-65055000D03*
%TD*%
%TO.C,R4*%
X82550000Y-25100000D03*
X82550000Y-45100000D03*
%TD*%
%TO.C,U1*%
X28750000Y-20320000D03*
X34750000Y-20320000D03*
%TD*%
%TO.C,R6*%
X50800000Y-88915000D03*
X50800000Y-68915000D03*
%TD*%
%TO.C,U4*%
X62230000Y-15590000D03*
X56230000Y-21590000D03*
X68230000Y-21590000D03*
%TD*%
%TO.C,R5*%
X96520000Y-25100000D03*
X96520000Y-45100000D03*
%TD*%
%TO.C,V1*%
X21590000Y-28750000D03*
X21590000Y-34750000D03*
%TD*%
%TO.C,R8*%
X81915000Y-88280000D03*
X81915000Y-68280000D03*
%TD*%
%TO.C,R2*%
X53340000Y-25100000D03*
X53340000Y-45100000D03*
%TD*%
%TO.C,R9*%
X97790000Y-88280000D03*
X97790000Y-68280000D03*
%TD*%
%TO.C,U13*%
X60960000Y-59055000D03*
X54960000Y-65055000D03*
X66960000Y-65055000D03*
%TD*%
%TO.C,R1*%
X33655000Y-32545000D03*
X33655000Y-52545000D03*
%TD*%
%TO.C,U8*%
X91440000Y-15590000D03*
X85440000Y-21590000D03*
X97440000Y-21590000D03*
%TD*%
%TO.C,U14*%
X76200000Y-97615000D03*
X70200000Y-91615000D03*
X82200000Y-91615000D03*
%TD*%
%TO.C,U5*%
X61595000Y-55880000D03*
X55595000Y-49880000D03*
X67595000Y-49880000D03*
%TD*%
%TO.C,U9*%
X91440000Y-55880000D03*
X85440000Y-49880000D03*
X97440000Y-49880000D03*
%TD*%
%TO.C,U12*%
X60960000Y-97155000D03*
X54960000Y-91155000D03*
X66960000Y-91155000D03*
%TD*%
%TO.C,U7*%
X76835000Y-55420000D03*
X70835000Y-49420000D03*
X82835000Y-49420000D03*
%TD*%
%TO.C,U10*%
X45085000Y-97615000D03*
X39085000Y-91615000D03*
X51085000Y-91615000D03*
%TD*%
%TO.C,U3*%
X46990000Y-55880000D03*
X40990000Y-49880000D03*
X52990000Y-49880000D03*
%TD*%
%TO.C,U16*%
X92075000Y-97615000D03*
X86075000Y-91615000D03*
X98075000Y-91615000D03*
%TD*%
M02*
