%TF.GenerationSoftware,KiCad,Pcbnew,(6.0.7)*%
%TF.CreationDate,2022-09-05T15:10:35+08:00*%
%TF.ProjectId,6_6,365f362e-6b69-4636-9164-5f7063625858,rev?*%
%TF.SameCoordinates,Original*%
%TF.FileFunction,Copper,L2,Bot*%
%TF.FilePolarity,Positive*%
%FSLAX46Y46*%
G04 Gerber Fmt 4.6, Leading zero omitted, Abs format (unit mm)*
G04 Created by KiCad (PCBNEW (6.0.7)) date 2022-09-05 15:10:35*
%MOMM*%
%LPD*%
G01*
G04 APERTURE LIST*
%TA.AperFunction,ComponentPad*%
%ADD10C,1.524000*%
%TD*%
G04 APERTURE END LIST*
D10*
%TO.P,U2,1,Com*%
%TO.N,Net-(U1-Pad2)*%
X46990000Y-15590000D03*
%TO.P,U2,2,NC*%
%TO.N,unconnected-(U2-Pad2)*%
X40990000Y-21590000D03*
%TO.P,U2,3,NO*%
%TO.N,Net-(U2-Pad3)*%
X52990000Y-21590000D03*
%TD*%
%TO.P,U17,1,Com*%
%TO.N,Net-(U3-Pad1)*%
X92075000Y-59055000D03*
%TO.P,U17,2,NC*%
%TO.N,unconnected-(U17-Pad2)*%
X86075000Y-65055000D03*
%TO.P,U17,3,NO*%
%TO.N,Net-(U17-Pad3)*%
X98075000Y-65055000D03*
%TD*%
%TO.P,R7,1*%
%TO.N,Net-(U12-Pad3)*%
X67310000Y-88280000D03*
%TO.P,R7,2*%
%TO.N,Net-(U13-Pad3)*%
X67310000Y-68280000D03*
%TD*%
%TO.P,R3,1*%
%TO.N,Net-(R3-Pad1)*%
X67310000Y-25100000D03*
%TO.P,R3,2*%
%TO.N,Net-(R3-Pad2)*%
X67310000Y-45100000D03*
%TD*%
%TO.P,U11,1,Com*%
%TO.N,Net-(U3-Pad1)*%
X45085000Y-59405000D03*
%TO.P,U11,2,NC*%
%TO.N,unconnected-(U11-Pad2)*%
X39085000Y-65405000D03*
%TO.P,U11,3,NO*%
%TO.N,Net-(R6-Pad2)*%
X51085000Y-65405000D03*
%TD*%
%TO.P,U6,1,Com*%
%TO.N,Net-(U1-Pad2)*%
X76835000Y-15590000D03*
%TO.P,U6,2,NC*%
%TO.N,unconnected-(U6-Pad2)*%
X70835000Y-21590000D03*
%TO.P,U6,3,NO*%
%TO.N,Net-(U6-Pad3)*%
X82835000Y-21590000D03*
%TD*%
%TO.P,U15,1,Com*%
%TO.N,Net-(U3-Pad1)*%
X76835000Y-59055000D03*
%TO.P,U15,2,NC*%
%TO.N,unconnected-(U15-Pad2)*%
X70835000Y-65055000D03*
%TO.P,U15,3,NO*%
%TO.N,Net-(U15-Pad3)*%
X82835000Y-65055000D03*
%TD*%
%TO.P,R4,1*%
%TO.N,Net-(U6-Pad3)*%
X82550000Y-25100000D03*
%TO.P,R4,2*%
%TO.N,Net-(U7-Pad3)*%
X82550000Y-45100000D03*
%TD*%
%TO.P,U1,1,+*%
%TO.N,Net-(U1-Pad1)*%
X28750000Y-20320000D03*
%TO.P,U1,2,-*%
%TO.N,Net-(U1-Pad2)*%
X34750000Y-20320000D03*
%TD*%
%TO.P,R6,1*%
%TO.N,Net-(U10-Pad3)*%
X50800000Y-88915000D03*
%TO.P,R6,2*%
%TO.N,Net-(R6-Pad2)*%
X50800000Y-68915000D03*
%TD*%
%TO.P,U4,1,Com*%
%TO.N,Net-(U1-Pad2)*%
X62230000Y-15590000D03*
%TO.P,U4,2,NC*%
%TO.N,unconnected-(U4-Pad2)*%
X56230000Y-21590000D03*
%TO.P,U4,3,NO*%
%TO.N,Net-(R3-Pad1)*%
X68230000Y-21590000D03*
%TD*%
%TO.P,R5,1*%
%TO.N,Net-(U8-Pad3)*%
X96520000Y-25100000D03*
%TO.P,R5,2*%
%TO.N,Net-(U9-Pad3)*%
X96520000Y-45100000D03*
%TD*%
%TO.P,V1,1,+*%
%TO.N,Net-(U1-Pad1)*%
X21590000Y-28750000D03*
%TO.P,V1,2,-*%
%TO.N,Net-(V1-Pad2)*%
X21590000Y-34750000D03*
%TD*%
%TO.P,R8,1*%
%TO.N,Net-(R8-Pad1)*%
X81915000Y-88280000D03*
%TO.P,R8,2*%
%TO.N,Net-(U15-Pad3)*%
X81915000Y-68280000D03*
%TD*%
%TO.P,R2,1*%
%TO.N,Net-(U2-Pad3)*%
X53340000Y-25100000D03*
%TO.P,R2,2*%
%TO.N,Net-(U3-Pad3)*%
X53340000Y-45100000D03*
%TD*%
%TO.P,R9,1*%
%TO.N,Net-(R9-Pad1)*%
X97790000Y-88280000D03*
%TO.P,R9,2*%
%TO.N,Net-(U17-Pad3)*%
X97790000Y-68280000D03*
%TD*%
%TO.P,U13,1,Com*%
%TO.N,Net-(U3-Pad1)*%
X60960000Y-59055000D03*
%TO.P,U13,2,NC*%
%TO.N,unconnected-(U13-Pad2)*%
X54960000Y-65055000D03*
%TO.P,U13,3,NO*%
%TO.N,Net-(U13-Pad3)*%
X66960000Y-65055000D03*
%TD*%
%TO.P,R1,1*%
%TO.N,Net-(V1-Pad2)*%
X33655000Y-32545000D03*
%TO.P,R1,2*%
%TO.N,Net-(U3-Pad1)*%
X33655000Y-52545000D03*
%TD*%
%TO.P,U8,1,Com*%
%TO.N,Net-(U1-Pad2)*%
X91440000Y-15590000D03*
%TO.P,U8,2,NC*%
%TO.N,unconnected-(U8-Pad2)*%
X85440000Y-21590000D03*
%TO.P,U8,3,NO*%
%TO.N,Net-(U8-Pad3)*%
X97440000Y-21590000D03*
%TD*%
%TO.P,U14,1,Com*%
%TO.N,Net-(U1-Pad2)*%
X76200000Y-97615000D03*
%TO.P,U14,2,NC*%
%TO.N,unconnected-(U14-Pad2)*%
X70200000Y-91615000D03*
%TO.P,U14,3,NO*%
%TO.N,Net-(R8-Pad1)*%
X82200000Y-91615000D03*
%TD*%
%TO.P,U5,1,Com*%
%TO.N,Net-(U3-Pad1)*%
X61595000Y-55880000D03*
%TO.P,U5,2,NC*%
%TO.N,unconnected-(U5-Pad2)*%
X55595000Y-49880000D03*
%TO.P,U5,3,NO*%
%TO.N,Net-(R3-Pad2)*%
X67595000Y-49880000D03*
%TD*%
%TO.P,U9,1,Com*%
%TO.N,Net-(U3-Pad1)*%
X91440000Y-55880000D03*
%TO.P,U9,2,NC*%
%TO.N,unconnected-(U9-Pad2)*%
X85440000Y-49880000D03*
%TO.P,U9,3,NO*%
%TO.N,Net-(U9-Pad3)*%
X97440000Y-49880000D03*
%TD*%
%TO.P,U12,1,Com*%
%TO.N,Net-(U1-Pad2)*%
X60960000Y-97155000D03*
%TO.P,U12,2,NC*%
%TO.N,unconnected-(U12-Pad2)*%
X54960000Y-91155000D03*
%TO.P,U12,3,NO*%
%TO.N,Net-(U12-Pad3)*%
X66960000Y-91155000D03*
%TD*%
%TO.P,U7,1,Com*%
%TO.N,Net-(U3-Pad1)*%
X76835000Y-55420000D03*
%TO.P,U7,2,NC*%
%TO.N,unconnected-(U7-Pad2)*%
X70835000Y-49420000D03*
%TO.P,U7,3,NO*%
%TO.N,Net-(U7-Pad3)*%
X82835000Y-49420000D03*
%TD*%
%TO.P,U10,1,Com*%
%TO.N,Net-(U1-Pad2)*%
X45085000Y-97615000D03*
%TO.P,U10,2,NC*%
%TO.N,unconnected-(U10-Pad2)*%
X39085000Y-91615000D03*
%TO.P,U10,3,NO*%
%TO.N,Net-(U10-Pad3)*%
X51085000Y-91615000D03*
%TD*%
%TO.P,U3,1,Com*%
%TO.N,Net-(U3-Pad1)*%
X46990000Y-55880000D03*
%TO.P,U3,2,NC*%
%TO.N,unconnected-(U3-Pad2)*%
X40990000Y-49880000D03*
%TO.P,U3,3,NO*%
%TO.N,Net-(U3-Pad3)*%
X52990000Y-49880000D03*
%TD*%
%TO.P,U16,1,Com*%
%TO.N,Net-(U1-Pad2)*%
X92075000Y-97615000D03*
%TO.P,U16,2,NC*%
%TO.N,unconnected-(U16-Pad2)*%
X86075000Y-91615000D03*
%TO.P,U16,3,NO*%
%TO.N,Net-(R9-Pad1)*%
X98075000Y-91615000D03*
%TD*%
M02*
