%TF.GenerationSoftware,KiCad,Pcbnew,(6.0.7)*%
%TF.CreationDate,2022-09-05T15:03:53+08:00*%
%TF.ProjectId,6_1k,365f316b-2e6b-4696-9361-645f70636258,rev?*%
%TF.SameCoordinates,Original*%
%TF.FileFunction,Drillmap*%
%TF.FilePolarity,Positive*%
%FSLAX45Y45*%
G04 Gerber Fmt 4.5, Leading zero omitted, Abs format (unit mm)*
G04 Created by KiCad (PCBNEW (6.0.7)) date 2022-09-05 15:03:53*
%MOMM*%
%LPD*%
G01*
G04 APERTURE LIST*
%ADD10C,0.200000*%
%ADD11C,0.100000*%
G04 APERTURE END LIST*
D10*
X10350000Y-10200000D02*
G75*
G03*
X10350000Y-10200000I-150000J0D01*
G01*
X2350000Y-10200000D02*
G75*
G03*
X2350000Y-10200000I-150000J0D01*
G01*
X10350000Y-2200000D02*
G75*
G03*
X10350000Y-2200000I-150000J0D01*
G01*
X2350000Y-2200000D02*
G75*
G03*
X2350000Y-2200000I-150000J0D01*
G01*
D11*
X1206500Y-1206500D02*
X11206500Y-1206500D01*
X11206500Y-1206500D02*
X11206500Y-11206500D01*
X11206500Y-11206500D02*
X1206500Y-11206500D01*
X1206500Y-11206500D02*
X1206500Y-1206500D01*
D10*
X1459119Y-11521976D02*
X1459119Y-11321976D01*
X1506738Y-11321976D01*
X1535309Y-11331500D01*
X1554357Y-11350548D01*
X1563881Y-11369595D01*
X1573405Y-11407690D01*
X1573405Y-11436262D01*
X1563881Y-11474357D01*
X1554357Y-11493405D01*
X1535309Y-11512452D01*
X1506738Y-11521976D01*
X1459119Y-11521976D01*
X1659119Y-11521976D02*
X1659119Y-11388643D01*
X1659119Y-11426738D02*
X1668643Y-11407690D01*
X1678167Y-11398167D01*
X1697214Y-11388643D01*
X1716262Y-11388643D01*
X1782928Y-11521976D02*
X1782928Y-11388643D01*
X1782928Y-11321976D02*
X1773405Y-11331500D01*
X1782928Y-11341024D01*
X1792452Y-11331500D01*
X1782928Y-11321976D01*
X1782928Y-11341024D01*
X1906738Y-11521976D02*
X1887690Y-11512452D01*
X1878167Y-11493405D01*
X1878167Y-11321976D01*
X2011500Y-11521976D02*
X1992452Y-11512452D01*
X1982928Y-11493405D01*
X1982928Y-11321976D01*
X2240071Y-11521976D02*
X2240071Y-11321976D01*
X2306738Y-11464833D01*
X2373405Y-11321976D01*
X2373405Y-11521976D01*
X2554357Y-11521976D02*
X2554357Y-11417214D01*
X2544833Y-11398167D01*
X2525786Y-11388643D01*
X2487690Y-11388643D01*
X2468643Y-11398167D01*
X2554357Y-11512452D02*
X2535310Y-11521976D01*
X2487690Y-11521976D01*
X2468643Y-11512452D01*
X2459119Y-11493405D01*
X2459119Y-11474357D01*
X2468643Y-11455309D01*
X2487690Y-11445786D01*
X2535310Y-11445786D01*
X2554357Y-11436262D01*
X2649595Y-11388643D02*
X2649595Y-11588643D01*
X2649595Y-11398167D02*
X2668643Y-11388643D01*
X2706738Y-11388643D01*
X2725786Y-11398167D01*
X2735310Y-11407690D01*
X2744833Y-11426738D01*
X2744833Y-11483881D01*
X2735310Y-11502928D01*
X2725786Y-11512452D01*
X2706738Y-11521976D01*
X2668643Y-11521976D01*
X2649595Y-11512452D01*
X2830548Y-11502928D02*
X2840071Y-11512452D01*
X2830548Y-11521976D01*
X2821024Y-11512452D01*
X2830548Y-11502928D01*
X2830548Y-11521976D01*
X2830548Y-11398167D02*
X2840071Y-11407690D01*
X2830548Y-11417214D01*
X2821024Y-11407690D01*
X2830548Y-11398167D01*
X2830548Y-11417214D01*
M02*
