M48
; DRILL file {KiCad (6.0.7)} date Mon Sep  5 15:03:52 2022
; FORMAT={-:-/ absolute / metric / decimal}
; #@! TF.CreationDate,2022-09-05T15:03:52+08:00
; #@! TF.GenerationSoftware,Kicad,Pcbnew,(6.0.7)
; #@! TF.FileFunction,Plated,1,2,PTH
FMAT,2
METRIC
; #@! TA.AperFunction,Plated,PTH,ComponentDrill
T1C0.762
; #@! TA.AperFunction,Plated,PTH,ComponentDrill
T2C1.100
%
G90
G05
T1
X24.808Y-46.993
X24.808Y-52.993
X24.93Y-70.364
X25.115Y-29.724
X30.93Y-76.364
X30.937Y-19.38
X30.937Y-81.28
X31.115Y-23.724
X36.93Y-70.364
X37.115Y-29.724
X50.937Y-19.38
X50.937Y-81.28
X53.276Y-19.329
X53.276Y-25.329
X56.127Y-81.229
X56.228Y-31.267
X56.228Y-37.267
X56.228Y-40.419
X56.228Y-60.419
X59.276Y-19.329
X59.276Y-25.329
X62.127Y-75.229
X62.127Y-87.229
X62.228Y-31.267
X62.228Y-37.267
X64.666Y-75.184
X66.436Y-19.352
X66.436Y-25.352
X72.436Y-19.352
X72.436Y-25.352
X74.752Y-19.355
X84.666Y-75.184
X88.255Y-75.308
X88.255Y-87.308
X88.689Y-29.413
X89.223Y-70.733
X94.255Y-81.308
X94.689Y-23.413
X94.752Y-19.355
X95.223Y-76.733
X100.689Y-29.413
X100.831Y-46.936
X100.831Y-52.936
X101.223Y-70.733
T2
X69.586Y-87.274
X79.746Y-87.274
T0
M30
