%TF.GenerationSoftware,KiCad,Pcbnew,(6.0.7)*%
%TF.CreationDate,2022-09-05T15:03:49+08:00*%
%TF.ProjectId,6_1k,365f316b-2e6b-4696-9361-645f70636258,rev?*%
%TF.SameCoordinates,Original*%
%TF.FileFunction,Legend,Top*%
%TF.FilePolarity,Positive*%
%FSLAX46Y46*%
G04 Gerber Fmt 4.6, Leading zero omitted, Abs format (unit mm)*
G04 Created by KiCad (PCBNEW (6.0.7)) date 2022-09-05 15:03:49*
%MOMM*%
%LPD*%
G01*
G04 APERTURE LIST*
%ADD10C,0.150000*%
%ADD11C,0.120000*%
G04 APERTURE END LIST*
D10*
X30142400Y-75666600D02*
X25849800Y-71145400D01*
X90137200Y-71501000D02*
X94404400Y-76022200D01*
X31717200Y-75692000D02*
X36035200Y-71094600D01*
X56812400Y-82016600D02*
X61359000Y-86309200D01*
X61384400Y-76123800D02*
X56812400Y-80441800D01*
X96055400Y-75971400D02*
X100297200Y-71501000D01*
X37171209Y-94532104D02*
X36218828Y-94532104D01*
X35742638Y-94770200D01*
X35504542Y-95008295D01*
X35028352Y-95722580D01*
X34790257Y-96674961D01*
X34790257Y-98579723D01*
X35028352Y-99055914D01*
X35266447Y-99294009D01*
X35742638Y-99532104D01*
X36695019Y-99532104D01*
X37171209Y-99294009D01*
X37409304Y-99055914D01*
X37647400Y-98579723D01*
X37647400Y-97389247D01*
X37409304Y-96913057D01*
X37171209Y-96674961D01*
X36695019Y-96436866D01*
X35742638Y-96436866D01*
X35266447Y-96674961D01*
X35028352Y-96913057D01*
X34790257Y-97389247D01*
X39790257Y-99055914D02*
X40028352Y-99294009D01*
X39790257Y-99532104D01*
X39552161Y-99294009D01*
X39790257Y-99055914D01*
X39790257Y-99532104D01*
X44314066Y-96198771D02*
X44314066Y-99532104D01*
X43123590Y-94294009D02*
X41933114Y-97865438D01*
X45028352Y-97865438D01*
X50980733Y-94055914D02*
X55028352Y-94055914D01*
X50504542Y-95484485D02*
X52647400Y-95484485D01*
X53361685Y-95484485D02*
X55980733Y-95484485D01*
X51218828Y-98341628D02*
X55028352Y-98341628D01*
X51218828Y-98817819D02*
X55028352Y-98817819D01*
X50028352Y-99532104D02*
X56218828Y-99532104D01*
X50266447Y-96913057D02*
X50266447Y-97627342D01*
X51218828Y-97627342D02*
X51218828Y-99532104D01*
X53123590Y-96436866D02*
X53123590Y-96913057D01*
X51218828Y-97627342D02*
X55028352Y-97627342D01*
X55028352Y-99532104D01*
X50266447Y-96913057D02*
X55980733Y-96913057D01*
X55980733Y-97627342D01*
X53599780Y-95960676D02*
X55980733Y-96436866D01*
X50742638Y-95960676D02*
X52647400Y-96436866D01*
X52409304Y-95722580D02*
X51456923Y-96436866D01*
X50028352Y-96674961D01*
X55742638Y-95722580D02*
X54552161Y-96198771D01*
X53361685Y-96674961D01*
X51456923Y-94532104D02*
X55028352Y-95008295D01*
X54790257Y-94294009D02*
X53123590Y-94770200D01*
X50742638Y-95246390D01*
X61456923Y-99055914D02*
X63599780Y-99055914D01*
X59075971Y-99532104D02*
X60028352Y-99532104D01*
X61456923Y-94770200D02*
X61456923Y-99532104D01*
X61456923Y-94770200D02*
X63599780Y-94770200D01*
X63599780Y-99532104D01*
X58837876Y-94055914D02*
X58837876Y-96198771D01*
X58361685Y-98579723D01*
X57647400Y-95246390D02*
X60504542Y-95246390D01*
X60504542Y-98103533D01*
X60266447Y-99294009D01*
X65980733Y-95960676D02*
X70028352Y-95960676D01*
X68361685Y-97389247D02*
X70266447Y-97389247D01*
X65028352Y-94770200D02*
X65028352Y-95722580D01*
X68123590Y-95960676D02*
X68123590Y-99294009D01*
X65028352Y-94770200D02*
X70742638Y-94770200D01*
X70742638Y-95722580D01*
X67885495Y-93817819D02*
X67885495Y-94770200D01*
X66218828Y-96913057D02*
X65266447Y-99294009D01*
X65980733Y-98103533D02*
X67171209Y-99055914D01*
X69552161Y-99532104D01*
X70980733Y-99532104D01*
X72171209Y-94532104D02*
X74075971Y-94532104D01*
X74790257Y-95484485D02*
X78123590Y-95484485D01*
X72171209Y-96436866D02*
X74075971Y-96436866D01*
X74790257Y-96913057D02*
X78123590Y-96913057D01*
X74790257Y-98103533D02*
X77885495Y-98103533D01*
X74075971Y-99532104D02*
X78361685Y-99532104D01*
X73123590Y-94532104D02*
X73123590Y-98579723D01*
X74790257Y-94294009D02*
X74790257Y-96913057D01*
X76456923Y-94294009D02*
X76456923Y-99532104D01*
X74790257Y-94294009D02*
X78123590Y-94294009D01*
X78123590Y-96913057D01*
X74075971Y-98579723D02*
X72171209Y-98817819D01*
X81218828Y-95008295D02*
X85028352Y-95008295D01*
X79552161Y-97865438D02*
X85742638Y-97865438D01*
X81933114Y-99532104D02*
X83837876Y-99532104D01*
X81218828Y-93817819D02*
X80742638Y-96436866D01*
X84552161Y-96436866D01*
X84075971Y-99294009D01*
X46337876Y-102582104D02*
X48718828Y-102582104D01*
X49433114Y-102582104D02*
X51814066Y-102582104D01*
X46099780Y-103534485D02*
X48718828Y-103534485D01*
X49433114Y-103534485D02*
X52052161Y-103534485D01*
X47290257Y-106153533D02*
X51099780Y-106153533D01*
X47290257Y-107344009D02*
X51099780Y-107344009D01*
X47290257Y-105201152D02*
X47290257Y-107582104D01*
X47290257Y-105201152D02*
X51099780Y-105201152D01*
X51099780Y-107582104D01*
X47528352Y-101867819D02*
X47528352Y-103772580D01*
X46337876Y-104963057D01*
X47290257Y-104010676D02*
X48480733Y-104486866D01*
X50623590Y-102105914D02*
X50623590Y-103534485D01*
X49671209Y-104724961D01*
X50623590Y-103534485D02*
X52052161Y-104724961D01*
X54909304Y-103296390D02*
X54909304Y-107582104D01*
X58480733Y-102344009D02*
X59195019Y-103058295D01*
X55623590Y-102105914D02*
X54909304Y-103534485D01*
X53480733Y-104486866D01*
X55623590Y-104248771D02*
X59195019Y-103772580D01*
X57290257Y-102105914D02*
X57290257Y-103772580D01*
X58004542Y-107105914D01*
X59195019Y-107582104D01*
X59671209Y-106629723D01*
X62052161Y-104010676D02*
X66099780Y-104010676D01*
X64433114Y-105439247D02*
X66337876Y-105439247D01*
X61099780Y-102820200D02*
X61099780Y-103772580D01*
X64195019Y-104010676D02*
X64195019Y-107344009D01*
X61099780Y-102820200D02*
X66814066Y-102820200D01*
X66814066Y-103772580D01*
X63956923Y-101867819D02*
X63956923Y-102820200D01*
X62290257Y-104963057D02*
X61337876Y-107344009D01*
X62052161Y-106153533D02*
X63242638Y-107105914D01*
X65623590Y-107582104D01*
X67052161Y-107582104D01*
X68242638Y-102582104D02*
X70147400Y-102582104D01*
X70861685Y-103534485D02*
X74195019Y-103534485D01*
X68242638Y-104486866D02*
X70147400Y-104486866D01*
X70861685Y-104963057D02*
X74195019Y-104963057D01*
X70861685Y-106153533D02*
X73956923Y-106153533D01*
X70147400Y-107582104D02*
X74433114Y-107582104D01*
X69195019Y-102582104D02*
X69195019Y-106629723D01*
X70861685Y-102344009D02*
X70861685Y-104963057D01*
X72528352Y-102344009D02*
X72528352Y-107582104D01*
X70861685Y-102344009D02*
X74195019Y-102344009D01*
X74195019Y-104963057D01*
X70147400Y-106629723D02*
X68242638Y-106867819D01*
X79195019Y-104010676D02*
X80861685Y-104010676D01*
X78242638Y-107344009D02*
X81575971Y-107344009D01*
X76337876Y-107582104D02*
X77528352Y-107582104D01*
X80147400Y-102582104D02*
X81814066Y-104248771D01*
X79909304Y-102105914D02*
X80385495Y-102820200D01*
X79671209Y-102820200D02*
X78004542Y-104248771D01*
X81337876Y-104963057D02*
X80385495Y-107344009D01*
X79909304Y-101867819D02*
X79433114Y-103058295D01*
X78718828Y-104963057D02*
X78956923Y-106391628D01*
X77290257Y-106153533D02*
X75623590Y-106629723D01*
X79909304Y-104724961D02*
X80147400Y-106153533D01*
X75861685Y-102344009D02*
X77766447Y-102344009D01*
X77528352Y-103534485D01*
X77290257Y-104963057D01*
X76099780Y-103296390D02*
X75861685Y-104963057D01*
X78004542Y-104963057D01*
X77528352Y-107582104D01*
X85385495Y-102582104D02*
X88956923Y-102582104D01*
X87290257Y-104724961D02*
X88956923Y-104724961D01*
X85147400Y-107582104D02*
X89195019Y-107582104D01*
X83004542Y-104010676D02*
X84195019Y-104010676D01*
X84195019Y-107344009D01*
X85861685Y-104248771D02*
X85861685Y-107582104D01*
X87290257Y-102582104D02*
X87290257Y-107582104D01*
X83480733Y-102105914D02*
X84433114Y-103058295D01*
X85147400Y-106867819D02*
X83956923Y-107344009D01*
%TO.C,E1*%
X24143323Y-49128371D02*
X24476657Y-49128371D01*
X24619514Y-49652180D02*
X24143323Y-49652180D01*
X24143323Y-48652180D01*
X24619514Y-48652180D01*
X25571895Y-49652180D02*
X25000466Y-49652180D01*
X25286180Y-49652180D02*
X25286180Y-48652180D01*
X25190942Y-48795038D01*
X25095704Y-48890276D01*
X25000466Y-48937895D01*
X21468419Y-52670980D02*
X21801752Y-53670980D01*
X22135085Y-52670980D01*
X22468419Y-53290028D02*
X23230323Y-53290028D01*
X21849419Y-46498780D02*
X22182752Y-47498780D01*
X22516085Y-46498780D01*
X22849419Y-47117828D02*
X23611323Y-47117828D01*
X23230371Y-47498780D02*
X23230371Y-46736876D01*
%TO.C,P3*%
X56734704Y-33370780D02*
X56734704Y-32370780D01*
X57115657Y-32370780D01*
X57210895Y-32418400D01*
X57258514Y-32466019D01*
X57306133Y-32561257D01*
X57306133Y-32704114D01*
X57258514Y-32799352D01*
X57210895Y-32846971D01*
X57115657Y-32894590D01*
X56734704Y-32894590D01*
X57639466Y-32370780D02*
X58258514Y-32370780D01*
X57925180Y-32751733D01*
X58068038Y-32751733D01*
X58163276Y-32799352D01*
X58210895Y-32846971D01*
X58258514Y-32942209D01*
X58258514Y-33180304D01*
X58210895Y-33275542D01*
X58163276Y-33323161D01*
X58068038Y-33370780D01*
X57782323Y-33370780D01*
X57687085Y-33323161D01*
X57639466Y-33275542D01*
X60736485Y-34945971D02*
X60736485Y-33945971D01*
X60736485Y-34088828D02*
X60807914Y-34017400D01*
X60950771Y-33945971D01*
X61165057Y-33945971D01*
X61307914Y-34017400D01*
X61379342Y-34160257D01*
X61379342Y-34945971D01*
X61379342Y-34160257D02*
X61450771Y-34017400D01*
X61593628Y-33945971D01*
X61807914Y-33945971D01*
X61950771Y-34017400D01*
X62022200Y-34160257D01*
X62022200Y-34945971D01*
X62665057Y-34517400D02*
X63379342Y-34517400D01*
X62522200Y-34945971D02*
X63022200Y-33445971D01*
X63522200Y-34945971D01*
%TO.C,Rl2*%
X91258028Y-81534780D02*
X90924695Y-81058590D01*
X90686600Y-81534780D02*
X90686600Y-80534780D01*
X91067552Y-80534780D01*
X91162790Y-80582400D01*
X91210409Y-80630019D01*
X91258028Y-80725257D01*
X91258028Y-80868114D01*
X91210409Y-80963352D01*
X91162790Y-81010971D01*
X91067552Y-81058590D01*
X90686600Y-81058590D01*
X91829457Y-81534780D02*
X91734219Y-81487161D01*
X91686600Y-81391923D01*
X91686600Y-80534780D01*
X92162790Y-80630019D02*
X92210409Y-80582400D01*
X92305647Y-80534780D01*
X92543742Y-80534780D01*
X92638980Y-80582400D01*
X92686600Y-80630019D01*
X92734219Y-80725257D01*
X92734219Y-80820495D01*
X92686600Y-80963352D01*
X92115171Y-81534780D01*
X92734219Y-81534780D01*
X89757885Y-75641980D02*
X89757885Y-74641980D01*
X90329314Y-75641980D01*
X90329314Y-74641980D01*
X91376933Y-75546742D02*
X91329314Y-75594361D01*
X91186457Y-75641980D01*
X91091219Y-75641980D01*
X90948361Y-75594361D01*
X90853123Y-75499123D01*
X90805504Y-75403885D01*
X90757885Y-75213409D01*
X90757885Y-75070552D01*
X90805504Y-74880076D01*
X90853123Y-74784838D01*
X90948361Y-74689600D01*
X91091219Y-74641980D01*
X91186457Y-74641980D01*
X91329314Y-74689600D01*
X91376933Y-74737219D01*
X89556276Y-87783180D02*
X89556276Y-86783180D01*
X90127704Y-87783180D01*
X90127704Y-86783180D01*
X90794371Y-86783180D02*
X90984847Y-86783180D01*
X91080085Y-86830800D01*
X91175323Y-86926038D01*
X91222942Y-87116514D01*
X91222942Y-87449847D01*
X91175323Y-87640323D01*
X91080085Y-87735561D01*
X90984847Y-87783180D01*
X90794371Y-87783180D01*
X90699133Y-87735561D01*
X90603895Y-87640323D01*
X90556276Y-87449847D01*
X90556276Y-87116514D01*
X90603895Y-86926038D01*
X90699133Y-86830800D01*
X90794371Y-86783180D01*
%TO.C,E2*%
X99987723Y-48975971D02*
X100321057Y-48975971D01*
X100463914Y-49499780D02*
X99987723Y-49499780D01*
X99987723Y-48499780D01*
X100463914Y-48499780D01*
X100844866Y-48595019D02*
X100892485Y-48547400D01*
X100987723Y-48499780D01*
X101225819Y-48499780D01*
X101321057Y-48547400D01*
X101368676Y-48595019D01*
X101416295Y-48690257D01*
X101416295Y-48785495D01*
X101368676Y-48928352D01*
X100797247Y-49499780D01*
X101416295Y-49499780D01*
X97592219Y-46493180D02*
X97925552Y-47493180D01*
X98258885Y-46493180D01*
X98592219Y-47112228D02*
X99354123Y-47112228D01*
X98973171Y-47493180D02*
X98973171Y-46731276D01*
X97465219Y-52690780D02*
X97798552Y-53690780D01*
X98131885Y-52690780D01*
X98465219Y-53309828D02*
X99227123Y-53309828D01*
%TO.C,R5*%
X74349533Y-73909180D02*
X74016200Y-73432990D01*
X73778104Y-73909180D02*
X73778104Y-72909180D01*
X74159057Y-72909180D01*
X74254295Y-72956800D01*
X74301914Y-73004419D01*
X74349533Y-73099657D01*
X74349533Y-73242514D01*
X74301914Y-73337752D01*
X74254295Y-73385371D01*
X74159057Y-73432990D01*
X73778104Y-73432990D01*
X75254295Y-72909180D02*
X74778104Y-72909180D01*
X74730485Y-73385371D01*
X74778104Y-73337752D01*
X74873342Y-73290133D01*
X75111438Y-73290133D01*
X75206676Y-73337752D01*
X75254295Y-73385371D01*
X75301914Y-73480609D01*
X75301914Y-73718704D01*
X75254295Y-73813942D01*
X75206676Y-73861561D01*
X75111438Y-73909180D01*
X74873342Y-73909180D01*
X74778104Y-73861561D01*
X74730485Y-73813942D01*
%TO.C,P1*%
X55439304Y-21051780D02*
X55439304Y-20051780D01*
X55820257Y-20051780D01*
X55915495Y-20099400D01*
X55963114Y-20147019D01*
X56010733Y-20242257D01*
X56010733Y-20385114D01*
X55963114Y-20480352D01*
X55915495Y-20527971D01*
X55820257Y-20575590D01*
X55439304Y-20575590D01*
X56963114Y-21051780D02*
X56391685Y-21051780D01*
X56677400Y-21051780D02*
X56677400Y-20051780D01*
X56582161Y-20194638D01*
X56486923Y-20289876D01*
X56391685Y-20337495D01*
X54990485Y-25801971D02*
X54990485Y-24801971D01*
X54990485Y-24944828D02*
X55061914Y-24873400D01*
X55204771Y-24801971D01*
X55419057Y-24801971D01*
X55561914Y-24873400D01*
X55633342Y-25016257D01*
X55633342Y-25801971D01*
X55633342Y-25016257D02*
X55704771Y-24873400D01*
X55847628Y-24801971D01*
X56061914Y-24801971D01*
X56204771Y-24873400D01*
X56276200Y-25016257D01*
X56276200Y-25801971D01*
X56919057Y-25373400D02*
X57633342Y-25373400D01*
X56776200Y-25801971D02*
X57276200Y-24301971D01*
X57776200Y-25801971D01*
%TO.C,Rl5*%
X94356828Y-25979380D02*
X94023495Y-25503190D01*
X93785400Y-25979380D02*
X93785400Y-24979380D01*
X94166352Y-24979380D01*
X94261590Y-25027000D01*
X94309209Y-25074619D01*
X94356828Y-25169857D01*
X94356828Y-25312714D01*
X94309209Y-25407952D01*
X94261590Y-25455571D01*
X94166352Y-25503190D01*
X93785400Y-25503190D01*
X94928257Y-25979380D02*
X94833019Y-25931761D01*
X94785400Y-25836523D01*
X94785400Y-24979380D01*
X95785400Y-24979380D02*
X95309209Y-24979380D01*
X95261590Y-25455571D01*
X95309209Y-25407952D01*
X95404447Y-25360333D01*
X95642542Y-25360333D01*
X95737780Y-25407952D01*
X95785400Y-25455571D01*
X95833019Y-25550809D01*
X95833019Y-25788904D01*
X95785400Y-25884142D01*
X95737780Y-25931761D01*
X95642542Y-25979380D01*
X95404447Y-25979380D01*
X95309209Y-25931761D01*
X95261590Y-25884142D01*
X99843276Y-28062180D02*
X99843276Y-27062180D01*
X100414704Y-28062180D01*
X100414704Y-27062180D01*
X101081371Y-27062180D02*
X101271847Y-27062180D01*
X101367085Y-27109800D01*
X101462323Y-27205038D01*
X101509942Y-27395514D01*
X101509942Y-27728847D01*
X101462323Y-27919323D01*
X101367085Y-28014561D01*
X101271847Y-28062180D01*
X101081371Y-28062180D01*
X100986133Y-28014561D01*
X100890895Y-27919323D01*
X100843276Y-27728847D01*
X100843276Y-27395514D01*
X100890895Y-27205038D01*
X100986133Y-27109800D01*
X101081371Y-27062180D01*
X87852885Y-27808180D02*
X87852885Y-26808180D01*
X88424314Y-27808180D01*
X88424314Y-26808180D01*
X89471933Y-27712942D02*
X89424314Y-27760561D01*
X89281457Y-27808180D01*
X89186219Y-27808180D01*
X89043361Y-27760561D01*
X88948123Y-27665323D01*
X88900504Y-27570085D01*
X88852885Y-27379609D01*
X88852885Y-27236752D01*
X88900504Y-27046276D01*
X88948123Y-26951038D01*
X89043361Y-26855800D01*
X89186219Y-26808180D01*
X89281457Y-26808180D01*
X89424314Y-26855800D01*
X89471933Y-26903419D01*
%TO.C,R4*%
X40643733Y-80030580D02*
X40310400Y-79554390D01*
X40072304Y-80030580D02*
X40072304Y-79030580D01*
X40453257Y-79030580D01*
X40548495Y-79078200D01*
X40596114Y-79125819D01*
X40643733Y-79221057D01*
X40643733Y-79363914D01*
X40596114Y-79459152D01*
X40548495Y-79506771D01*
X40453257Y-79554390D01*
X40072304Y-79554390D01*
X41500876Y-79363914D02*
X41500876Y-80030580D01*
X41262780Y-78982961D02*
X41024685Y-79697247D01*
X41643733Y-79697247D01*
%TO.C,Rl3*%
X30711828Y-26411180D02*
X30378495Y-25934990D01*
X30140400Y-26411180D02*
X30140400Y-25411180D01*
X30521352Y-25411180D01*
X30616590Y-25458800D01*
X30664209Y-25506419D01*
X30711828Y-25601657D01*
X30711828Y-25744514D01*
X30664209Y-25839752D01*
X30616590Y-25887371D01*
X30521352Y-25934990D01*
X30140400Y-25934990D01*
X31283257Y-26411180D02*
X31188019Y-26363561D01*
X31140400Y-26268323D01*
X31140400Y-25411180D01*
X31568971Y-25411180D02*
X32188019Y-25411180D01*
X31854685Y-25792133D01*
X31997542Y-25792133D01*
X32092780Y-25839752D01*
X32140400Y-25887371D01*
X32188019Y-25982609D01*
X32188019Y-26220704D01*
X32140400Y-26315942D01*
X32092780Y-26363561D01*
X31997542Y-26411180D01*
X31711828Y-26411180D01*
X31616590Y-26363561D01*
X31568971Y-26315942D01*
X35385476Y-27635980D02*
X35385476Y-26635980D01*
X35956904Y-27635980D01*
X35956904Y-26635980D01*
X36623571Y-26635980D02*
X36814047Y-26635980D01*
X36909285Y-26683600D01*
X37004523Y-26778838D01*
X37052142Y-26969314D01*
X37052142Y-27302647D01*
X37004523Y-27493123D01*
X36909285Y-27588361D01*
X36814047Y-27635980D01*
X36623571Y-27635980D01*
X36528333Y-27588361D01*
X36433095Y-27493123D01*
X36385476Y-27302647D01*
X36385476Y-26969314D01*
X36433095Y-26778838D01*
X36528333Y-26683600D01*
X36623571Y-26635980D01*
X25249285Y-27635980D02*
X25249285Y-26635980D01*
X25820714Y-27635980D01*
X25820714Y-26635980D01*
X26868333Y-27540742D02*
X26820714Y-27588361D01*
X26677857Y-27635980D01*
X26582619Y-27635980D01*
X26439761Y-27588361D01*
X26344523Y-27493123D01*
X26296904Y-27397885D01*
X26249285Y-27207409D01*
X26249285Y-27064552D01*
X26296904Y-26874076D01*
X26344523Y-26778838D01*
X26439761Y-26683600D01*
X26582619Y-26635980D01*
X26677857Y-26635980D01*
X26820714Y-26683600D01*
X26868333Y-26731219D01*
%TO.C,R1*%
X40669133Y-18105380D02*
X40335800Y-17629190D01*
X40097704Y-18105380D02*
X40097704Y-17105380D01*
X40478657Y-17105380D01*
X40573895Y-17153000D01*
X40621514Y-17200619D01*
X40669133Y-17295857D01*
X40669133Y-17438714D01*
X40621514Y-17533952D01*
X40573895Y-17581571D01*
X40478657Y-17629190D01*
X40097704Y-17629190D01*
X41621514Y-18105380D02*
X41050085Y-18105380D01*
X41335800Y-18105380D02*
X41335800Y-17105380D01*
X41240561Y-17248238D01*
X41145323Y-17343476D01*
X41050085Y-17391095D01*
%TO.C,R2*%
X84661933Y-17978380D02*
X84328600Y-17502190D01*
X84090504Y-17978380D02*
X84090504Y-16978380D01*
X84471457Y-16978380D01*
X84566695Y-17026000D01*
X84614314Y-17073619D01*
X84661933Y-17168857D01*
X84661933Y-17311714D01*
X84614314Y-17406952D01*
X84566695Y-17454571D01*
X84471457Y-17502190D01*
X84090504Y-17502190D01*
X85042885Y-17073619D02*
X85090504Y-17026000D01*
X85185742Y-16978380D01*
X85423838Y-16978380D01*
X85519076Y-17026000D01*
X85566695Y-17073619D01*
X85614314Y-17168857D01*
X85614314Y-17264095D01*
X85566695Y-17406952D01*
X84995266Y-17978380D01*
X85614314Y-17978380D01*
%TO.C,D1*%
X73927704Y-85256780D02*
X73927704Y-84256780D01*
X74165800Y-84256780D01*
X74308657Y-84304400D01*
X74403895Y-84399638D01*
X74451514Y-84494876D01*
X74499133Y-84685352D01*
X74499133Y-84828209D01*
X74451514Y-85018685D01*
X74403895Y-85113923D01*
X74308657Y-85209161D01*
X74165800Y-85256780D01*
X73927704Y-85256780D01*
X75451514Y-85256780D02*
X74880085Y-85256780D01*
X75165800Y-85256780D02*
X75165800Y-84256780D01*
X75070561Y-84399638D01*
X74975323Y-84494876D01*
X74880085Y-84542495D01*
X69323895Y-85626780D02*
X69323895Y-84626780D01*
X69895323Y-85626780D02*
X69466752Y-85055352D01*
X69895323Y-84626780D02*
X69323895Y-85198209D01*
%TO.C,R3*%
X56061533Y-49093380D02*
X55728200Y-48617190D01*
X55490104Y-49093380D02*
X55490104Y-48093380D01*
X55871057Y-48093380D01*
X55966295Y-48141000D01*
X56013914Y-48188619D01*
X56061533Y-48283857D01*
X56061533Y-48426714D01*
X56013914Y-48521952D01*
X55966295Y-48569571D01*
X55871057Y-48617190D01*
X55490104Y-48617190D01*
X56394866Y-48093380D02*
X57013914Y-48093380D01*
X56680580Y-48474333D01*
X56823438Y-48474333D01*
X56918676Y-48521952D01*
X56966295Y-48569571D01*
X57013914Y-48664809D01*
X57013914Y-48902904D01*
X56966295Y-48998142D01*
X56918676Y-49045761D01*
X56823438Y-49093380D01*
X56537723Y-49093380D01*
X56442485Y-49045761D01*
X56394866Y-48998142D01*
%TO.C,Rl1*%
X58085628Y-81732380D02*
X57752295Y-81256190D01*
X57514200Y-81732380D02*
X57514200Y-80732380D01*
X57895152Y-80732380D01*
X57990390Y-80780000D01*
X58038009Y-80827619D01*
X58085628Y-80922857D01*
X58085628Y-81065714D01*
X58038009Y-81160952D01*
X57990390Y-81208571D01*
X57895152Y-81256190D01*
X57514200Y-81256190D01*
X58657057Y-81732380D02*
X58561819Y-81684761D01*
X58514200Y-81589523D01*
X58514200Y-80732380D01*
X59561819Y-81732380D02*
X58990390Y-81732380D01*
X59276104Y-81732380D02*
X59276104Y-80732380D01*
X59180866Y-80875238D01*
X59085628Y-80970476D01*
X58990390Y-81018095D01*
X58922285Y-75433180D02*
X58922285Y-74433180D01*
X59493714Y-75433180D01*
X59493714Y-74433180D01*
X60541333Y-75337942D02*
X60493714Y-75385561D01*
X60350857Y-75433180D01*
X60255619Y-75433180D01*
X60112761Y-75385561D01*
X60017523Y-75290323D01*
X59969904Y-75195085D01*
X59922285Y-75004609D01*
X59922285Y-74861752D01*
X59969904Y-74671276D01*
X60017523Y-74576038D01*
X60112761Y-74480800D01*
X60255619Y-74433180D01*
X60350857Y-74433180D01*
X60493714Y-74480800D01*
X60541333Y-74528419D01*
X58898476Y-87777580D02*
X58898476Y-86777580D01*
X59469904Y-87777580D01*
X59469904Y-86777580D01*
X60136571Y-86777580D02*
X60327047Y-86777580D01*
X60422285Y-86825200D01*
X60517523Y-86920438D01*
X60565142Y-87110914D01*
X60565142Y-87444247D01*
X60517523Y-87634723D01*
X60422285Y-87729961D01*
X60327047Y-87777580D01*
X60136571Y-87777580D01*
X60041333Y-87729961D01*
X59946095Y-87634723D01*
X59898476Y-87444247D01*
X59898476Y-87110914D01*
X59946095Y-86920438D01*
X60041333Y-86825200D01*
X60136571Y-86777580D01*
%TO.C,P2*%
X68698104Y-20743580D02*
X68698104Y-19743580D01*
X69079057Y-19743580D01*
X69174295Y-19791200D01*
X69221914Y-19838819D01*
X69269533Y-19934057D01*
X69269533Y-20076914D01*
X69221914Y-20172152D01*
X69174295Y-20219771D01*
X69079057Y-20267390D01*
X68698104Y-20267390D01*
X69650485Y-19838819D02*
X69698104Y-19791200D01*
X69793342Y-19743580D01*
X70031438Y-19743580D01*
X70126676Y-19791200D01*
X70174295Y-19838819D01*
X70221914Y-19934057D01*
X70221914Y-20029295D01*
X70174295Y-20172152D01*
X69602866Y-20743580D01*
X70221914Y-20743580D01*
X68150485Y-25824571D02*
X68150485Y-24824571D01*
X68150485Y-24967428D02*
X68221914Y-24896000D01*
X68364771Y-24824571D01*
X68579057Y-24824571D01*
X68721914Y-24896000D01*
X68793342Y-25038857D01*
X68793342Y-25824571D01*
X68793342Y-25038857D02*
X68864771Y-24896000D01*
X69007628Y-24824571D01*
X69221914Y-24824571D01*
X69364771Y-24896000D01*
X69436200Y-25038857D01*
X69436200Y-25824571D01*
X70079057Y-25396000D02*
X70793342Y-25396000D01*
X69936200Y-25824571D02*
X70436200Y-24324571D01*
X70936200Y-25824571D01*
%TO.C,Rl6*%
X94763228Y-74848980D02*
X94429895Y-74372790D01*
X94191800Y-74848980D02*
X94191800Y-73848980D01*
X94572752Y-73848980D01*
X94667990Y-73896600D01*
X94715609Y-73944219D01*
X94763228Y-74039457D01*
X94763228Y-74182314D01*
X94715609Y-74277552D01*
X94667990Y-74325171D01*
X94572752Y-74372790D01*
X94191800Y-74372790D01*
X95334657Y-74848980D02*
X95239419Y-74801361D01*
X95191800Y-74706123D01*
X95191800Y-73848980D01*
X96144180Y-73848980D02*
X95953704Y-73848980D01*
X95858466Y-73896600D01*
X95810847Y-73944219D01*
X95715609Y-74087076D01*
X95667990Y-74277552D01*
X95667990Y-74658504D01*
X95715609Y-74753742D01*
X95763228Y-74801361D01*
X95858466Y-74848980D01*
X96048942Y-74848980D01*
X96144180Y-74801361D01*
X96191800Y-74753742D01*
X96239419Y-74658504D01*
X96239419Y-74420409D01*
X96191800Y-74325171D01*
X96144180Y-74277552D01*
X96048942Y-74229933D01*
X95858466Y-74229933D01*
X95763228Y-74277552D01*
X95715609Y-74325171D01*
X95667990Y-74420409D01*
X88386285Y-73121780D02*
X88386285Y-72121780D01*
X88957714Y-73121780D01*
X88957714Y-72121780D01*
X90005333Y-73026542D02*
X89957714Y-73074161D01*
X89814857Y-73121780D01*
X89719619Y-73121780D01*
X89576761Y-73074161D01*
X89481523Y-72978923D01*
X89433904Y-72883685D01*
X89386285Y-72693209D01*
X89386285Y-72550352D01*
X89433904Y-72359876D01*
X89481523Y-72264638D01*
X89576761Y-72169400D01*
X89719619Y-72121780D01*
X89814857Y-72121780D01*
X89957714Y-72169400D01*
X90005333Y-72217019D01*
X100249676Y-73223380D02*
X100249676Y-72223380D01*
X100821104Y-73223380D01*
X100821104Y-72223380D01*
X101487771Y-72223380D02*
X101678247Y-72223380D01*
X101773485Y-72271000D01*
X101868723Y-72366238D01*
X101916342Y-72556714D01*
X101916342Y-72890047D01*
X101868723Y-73080523D01*
X101773485Y-73175761D01*
X101678247Y-73223380D01*
X101487771Y-73223380D01*
X101392533Y-73175761D01*
X101297295Y-73080523D01*
X101249676Y-72890047D01*
X101249676Y-72556714D01*
X101297295Y-72366238D01*
X101392533Y-72271000D01*
X101487771Y-72223380D01*
%TO.C,Rl4*%
X30425028Y-74467980D02*
X30091695Y-73991790D01*
X29853600Y-74467980D02*
X29853600Y-73467980D01*
X30234552Y-73467980D01*
X30329790Y-73515600D01*
X30377409Y-73563219D01*
X30425028Y-73658457D01*
X30425028Y-73801314D01*
X30377409Y-73896552D01*
X30329790Y-73944171D01*
X30234552Y-73991790D01*
X29853600Y-73991790D01*
X30996457Y-74467980D02*
X30901219Y-74420361D01*
X30853600Y-74325123D01*
X30853600Y-73467980D01*
X31805980Y-73801314D02*
X31805980Y-74467980D01*
X31567885Y-73420361D02*
X31329790Y-74134647D01*
X31948838Y-74134647D01*
X24124285Y-72867780D02*
X24124285Y-71867780D01*
X24695714Y-72867780D01*
X24695714Y-71867780D01*
X25743333Y-72772542D02*
X25695714Y-72820161D01*
X25552857Y-72867780D01*
X25457619Y-72867780D01*
X25314761Y-72820161D01*
X25219523Y-72724923D01*
X25171904Y-72629685D01*
X25124285Y-72439209D01*
X25124285Y-72296352D01*
X25171904Y-72105876D01*
X25219523Y-72010638D01*
X25314761Y-71915400D01*
X25457619Y-71867780D01*
X25552857Y-71867780D01*
X25695714Y-71915400D01*
X25743333Y-71963019D01*
X36038476Y-73045580D02*
X36038476Y-72045580D01*
X36609904Y-73045580D01*
X36609904Y-72045580D01*
X37276571Y-72045580D02*
X37467047Y-72045580D01*
X37562285Y-72093200D01*
X37657523Y-72188438D01*
X37705142Y-72378914D01*
X37705142Y-72712247D01*
X37657523Y-72902723D01*
X37562285Y-72997961D01*
X37467047Y-73045580D01*
X37276571Y-73045580D01*
X37181333Y-72997961D01*
X37086095Y-72902723D01*
X37038476Y-72712247D01*
X37038476Y-72378914D01*
X37086095Y-72188438D01*
X37181333Y-72093200D01*
X37276571Y-72045580D01*
D11*
%TO.C,E1*%
X30808400Y-49992800D02*
G75*
G03*
X30808400Y-49992800I-6000000J0D01*
G01*
%TO.C,P3*%
X64244200Y-34267400D02*
G75*
G03*
X64244200Y-34267400I-2000000J0D01*
G01*
X56180200Y-36299400D02*
X56180200Y-32235400D01*
%TO.C,Rl2*%
X93588800Y-82070200D02*
X89016800Y-86388200D01*
X93588800Y-80546200D02*
X89016800Y-76228200D01*
%TO.C,E2*%
X106830600Y-49936400D02*
G75*
G03*
X106830600Y-49936400I-6000000J0D01*
G01*
%TO.C,R5*%
X66665800Y-72184000D02*
X82665800Y-72184000D01*
X82665800Y-72184000D02*
X82665800Y-78184000D01*
X82665800Y-78184000D02*
X66665800Y-78184000D01*
X66665800Y-78184000D02*
X66665800Y-72184000D01*
%TO.C,P1*%
X58276200Y-25345400D02*
G75*
G03*
X58276200Y-25345400I-2000000J0D01*
G01*
X54244200Y-19281400D02*
X58308200Y-19281400D01*
%TO.C,Rl5*%
X95451400Y-24079200D02*
X99769400Y-28651200D01*
X93927400Y-24079200D02*
X89609400Y-28651200D01*
%TO.C,R4*%
X32937400Y-78280000D02*
X48937400Y-78280000D01*
X48937400Y-78280000D02*
X48937400Y-84280000D01*
X48937400Y-84280000D02*
X32937400Y-84280000D01*
X32937400Y-84280000D02*
X32937400Y-78280000D01*
%TO.C,Rl3*%
X30353000Y-24389600D02*
X26035000Y-28961600D01*
X31877000Y-24389600D02*
X36195000Y-28961600D01*
%TO.C,R1*%
X32937400Y-16380200D02*
X48937400Y-16380200D01*
X48937400Y-16380200D02*
X48937400Y-22380200D01*
X48937400Y-22380200D02*
X32937400Y-22380200D01*
X32937400Y-22380200D02*
X32937400Y-16380200D01*
%TO.C,R2*%
X76752400Y-16354800D02*
X92752400Y-16354800D01*
X92752400Y-16354800D02*
X92752400Y-22354800D01*
X92752400Y-22354800D02*
X76752400Y-22354800D01*
X76752400Y-22354800D02*
X76752400Y-16354800D01*
%TO.C,D1*%
X71945800Y-88744400D02*
X77385800Y-88744400D01*
X71945800Y-85804400D02*
X71945800Y-88744400D01*
X77385800Y-88744400D02*
X77385800Y-85804400D01*
X78405800Y-87274400D02*
X77385800Y-87274400D01*
X72725800Y-85804400D02*
X72725800Y-88744400D01*
X72845800Y-85804400D02*
X72845800Y-88744400D01*
X77385800Y-85804400D02*
X71945800Y-85804400D01*
X70925800Y-87274400D02*
X71945800Y-87274400D01*
X72965800Y-85804400D02*
X72965800Y-88744400D01*
%TO.C,R3*%
X59228200Y-42419000D02*
X53228200Y-42419000D01*
X53228200Y-42419000D02*
X53228200Y-58419000D01*
X53228200Y-58419000D02*
X59228200Y-58419000D01*
X59228200Y-58419000D02*
X59228200Y-42419000D01*
%TD*%
M02*
