%TF.GenerationSoftware,KiCad,Pcbnew,(6.0.7)*%
%TF.CreationDate,2022-09-05T15:03:49+08:00*%
%TF.ProjectId,6_1k,365f316b-2e6b-4696-9361-645f70636258,rev?*%
%TF.SameCoordinates,Original*%
%TF.FileFunction,Soldermask,Top*%
%TF.FilePolarity,Negative*%
%FSLAX46Y46*%
G04 Gerber Fmt 4.6, Leading zero omitted, Abs format (unit mm)*
G04 Created by KiCad (PCBNEW (6.0.7)) date 2022-09-05 15:03:49*
%MOMM*%
%LPD*%
G01*
G04 APERTURE LIST*
%ADD10C,1.524000*%
%ADD11O,2.200000X2.200000*%
%ADD12R,2.200000X2.200000*%
G04 APERTURE END LIST*
D10*
%TO.C,E1*%
X24808400Y-52992800D03*
X24808400Y-46992800D03*
%TD*%
%TO.C,P3*%
X62228200Y-31267400D03*
X56228200Y-31267400D03*
X62228200Y-37267400D03*
X56228200Y-37267400D03*
%TD*%
%TO.C,Rl2*%
X88254800Y-87308200D03*
X88254800Y-75308200D03*
X94254800Y-81308200D03*
%TD*%
%TO.C,E2*%
X100830600Y-52936400D03*
X100830600Y-46936400D03*
%TD*%
%TO.C,R5*%
X84665800Y-75184000D03*
X64665800Y-75184000D03*
%TD*%
%TO.C,P1*%
X59276200Y-25329400D03*
X59276200Y-19329400D03*
X53276200Y-25329400D03*
X53276200Y-19329400D03*
%TD*%
%TO.C,Rl5*%
X100689400Y-29413200D03*
X88689400Y-29413200D03*
X94689400Y-23413200D03*
%TD*%
%TO.C,R4*%
X50937400Y-81280000D03*
X30937400Y-81280000D03*
%TD*%
%TO.C,Rl3*%
X31115000Y-23723600D03*
X25115000Y-29723600D03*
X37115000Y-29723600D03*
%TD*%
%TO.C,R1*%
X50937400Y-19380200D03*
X30937400Y-19380200D03*
%TD*%
%TO.C,R2*%
X94752400Y-19354800D03*
X74752400Y-19354800D03*
%TD*%
D11*
%TO.C,D1*%
X79745800Y-87274400D03*
D12*
X69585800Y-87274400D03*
%TD*%
D10*
%TO.C,R3*%
X56228200Y-60419000D03*
X56228200Y-40419000D03*
%TD*%
%TO.C,Rl1*%
X62126600Y-87229200D03*
X62126600Y-75229200D03*
X56126600Y-81229200D03*
%TD*%
%TO.C,P2*%
X66436200Y-25352000D03*
X66436200Y-19352000D03*
X72436200Y-25352000D03*
X72436200Y-19352000D03*
%TD*%
%TO.C,Rl6*%
X101222800Y-70733400D03*
X89222800Y-70733400D03*
X95222800Y-76733400D03*
%TD*%
%TO.C,Rl4*%
X36929800Y-70363600D03*
X24929800Y-70363600D03*
X30929800Y-76363600D03*
%TD*%
M02*
