%TF.GenerationSoftware,KiCad,Pcbnew,(6.0.7)*%
%TF.CreationDate,2022-09-05T15:03:53+08:00*%
%TF.ProjectId,6_1k,365f316b-2e6b-4696-9361-645f70636258,rev?*%
%TF.SameCoordinates,Original*%
%TF.FileFunction,Drillmap*%
%TF.FilePolarity,Positive*%
%FSLAX45Y45*%
G04 Gerber Fmt 4.5, Leading zero omitted, Abs format (unit mm)*
G04 Created by KiCad (PCBNEW (6.0.7)) date 2022-09-05 15:03:53*
%MOMM*%
%LPD*%
G01*
G04 APERTURE LIST*
%ADD10C,0.200000*%
%ADD11C,0.100000*%
%ADD12C,0.076200*%
%ADD13C,0.110000*%
G04 APERTURE END LIST*
D10*
X10350000Y-10200000D02*
G75*
G03*
X10350000Y-10200000I-150000J0D01*
G01*
X2350000Y-10200000D02*
G75*
G03*
X2350000Y-10200000I-150000J0D01*
G01*
X10350000Y-2200000D02*
G75*
G03*
X10350000Y-2200000I-150000J0D01*
G01*
X2350000Y-2200000D02*
G75*
G03*
X2350000Y-2200000I-150000J0D01*
G01*
D11*
X1206500Y-1206500D02*
X11206500Y-1206500D01*
X11206500Y-1206500D02*
X11206500Y-11206500D01*
X11206500Y-11206500D02*
X1206500Y-11206500D01*
X1206500Y-11206500D02*
X1206500Y-1206500D01*
D10*
D12*
X2442740Y-4661180D02*
X2518940Y-4737380D01*
X2518940Y-4661180D02*
X2442740Y-4737380D01*
X2442740Y-5261180D02*
X2518940Y-5337380D01*
X2518940Y-5261180D02*
X2442740Y-5337380D01*
X2454880Y-6998260D02*
X2531080Y-7074460D01*
X2531080Y-6998260D02*
X2454880Y-7074460D01*
X2473400Y-2934260D02*
X2549600Y-3010460D01*
X2549600Y-2934260D02*
X2473400Y-3010460D01*
X3054880Y-7598260D02*
X3131080Y-7674460D01*
X3131080Y-7598260D02*
X3054880Y-7674460D01*
X3055640Y-1899920D02*
X3131840Y-1976120D01*
X3131840Y-1899920D02*
X3055640Y-1976120D01*
X3055640Y-8089900D02*
X3131840Y-8166100D01*
X3131840Y-8089900D02*
X3055640Y-8166100D01*
X3073400Y-2334260D02*
X3149600Y-2410460D01*
X3149600Y-2334260D02*
X3073400Y-2410460D01*
X3654880Y-6998260D02*
X3731080Y-7074460D01*
X3731080Y-6998260D02*
X3654880Y-7074460D01*
X3673400Y-2934260D02*
X3749600Y-3010460D01*
X3749600Y-2934260D02*
X3673400Y-3010460D01*
X5055640Y-1899920D02*
X5131840Y-1976120D01*
X5131840Y-1899920D02*
X5055640Y-1976120D01*
X5055640Y-8089900D02*
X5131840Y-8166100D01*
X5131840Y-8089900D02*
X5055640Y-8166100D01*
X5289520Y-1894840D02*
X5365720Y-1971040D01*
X5365720Y-1894840D02*
X5289520Y-1971040D01*
X5289520Y-2494840D02*
X5365720Y-2571040D01*
X5365720Y-2494840D02*
X5289520Y-2571040D01*
X5574560Y-8084820D02*
X5650760Y-8161020D01*
X5650760Y-8084820D02*
X5574560Y-8161020D01*
X5584720Y-3088640D02*
X5660920Y-3164840D01*
X5660920Y-3088640D02*
X5584720Y-3164840D01*
X5584720Y-3688640D02*
X5660920Y-3764840D01*
X5660920Y-3688640D02*
X5584720Y-3764840D01*
X5584720Y-4003800D02*
X5660920Y-4080000D01*
X5660920Y-4003800D02*
X5584720Y-4080000D01*
X5584720Y-6003800D02*
X5660920Y-6080000D01*
X5660920Y-6003800D02*
X5584720Y-6080000D01*
X5889520Y-1894840D02*
X5965720Y-1971040D01*
X5965720Y-1894840D02*
X5889520Y-1971040D01*
X5889520Y-2494840D02*
X5965720Y-2571040D01*
X5965720Y-2494840D02*
X5889520Y-2571040D01*
X6174560Y-7484820D02*
X6250760Y-7561020D01*
X6250760Y-7484820D02*
X6174560Y-7561020D01*
X6174560Y-8684820D02*
X6250760Y-8761020D01*
X6250760Y-8684820D02*
X6174560Y-8761020D01*
X6184720Y-3088640D02*
X6260920Y-3164840D01*
X6260920Y-3088640D02*
X6184720Y-3164840D01*
X6184720Y-3688640D02*
X6260920Y-3764840D01*
X6260920Y-3688640D02*
X6184720Y-3764840D01*
X6428480Y-7480300D02*
X6504680Y-7556500D01*
X6504680Y-7480300D02*
X6428480Y-7556500D01*
X6605520Y-1897100D02*
X6681720Y-1973300D01*
X6681720Y-1897100D02*
X6605520Y-1973300D01*
X6605520Y-2497100D02*
X6681720Y-2573300D01*
X6681720Y-2497100D02*
X6605520Y-2573300D01*
X7205520Y-1897100D02*
X7281720Y-1973300D01*
X7281720Y-1897100D02*
X7205520Y-1973300D01*
X7205520Y-2497100D02*
X7281720Y-2573300D01*
X7281720Y-2497100D02*
X7205520Y-2573300D01*
X7437140Y-1897380D02*
X7513340Y-1973580D01*
X7513340Y-1897380D02*
X7437140Y-1973580D01*
X8428480Y-7480300D02*
X8504680Y-7556500D01*
X8504680Y-7480300D02*
X8428480Y-7556500D01*
X8787380Y-7492720D02*
X8863580Y-7568920D01*
X8863580Y-7492720D02*
X8787380Y-7568920D01*
X8787380Y-8692720D02*
X8863580Y-8768920D01*
X8863580Y-8692720D02*
X8787380Y-8768920D01*
X8830840Y-2903220D02*
X8907040Y-2979420D01*
X8907040Y-2903220D02*
X8830840Y-2979420D01*
X8884180Y-7035240D02*
X8960380Y-7111440D01*
X8960380Y-7035240D02*
X8884180Y-7111440D01*
X9387380Y-8092720D02*
X9463580Y-8168920D01*
X9463580Y-8092720D02*
X9387380Y-8168920D01*
X9430840Y-2303220D02*
X9507040Y-2379420D01*
X9507040Y-2303220D02*
X9430840Y-2379420D01*
X9437140Y-1897380D02*
X9513340Y-1973580D01*
X9513340Y-1897380D02*
X9437140Y-1973580D01*
X9484180Y-7635240D02*
X9560380Y-7711440D01*
X9560380Y-7635240D02*
X9484180Y-7711440D01*
X10030840Y-2903220D02*
X10107040Y-2979420D01*
X10107040Y-2903220D02*
X10030840Y-2979420D01*
X10044960Y-4655540D02*
X10121160Y-4731740D01*
X10121160Y-4655540D02*
X10044960Y-4731740D01*
X10044960Y-5255540D02*
X10121160Y-5331740D01*
X10121160Y-5255540D02*
X10044960Y-5331740D01*
X10084180Y-7035240D02*
X10160380Y-7111440D01*
X10160380Y-7035240D02*
X10084180Y-7111440D01*
D13*
X7013580Y-8727440D02*
G75*
G03*
X7013580Y-8727440I-55000J0D01*
G01*
X8029580Y-8727440D02*
G75*
G03*
X8029580Y-8727440I-55000J0D01*
G01*
D10*
X1459119Y-11521976D02*
X1459119Y-11321976D01*
X1506738Y-11321976D01*
X1535309Y-11331500D01*
X1554357Y-11350548D01*
X1563881Y-11369595D01*
X1573405Y-11407690D01*
X1573405Y-11436262D01*
X1563881Y-11474357D01*
X1554357Y-11493405D01*
X1535309Y-11512452D01*
X1506738Y-11521976D01*
X1459119Y-11521976D01*
X1659119Y-11521976D02*
X1659119Y-11388643D01*
X1659119Y-11426738D02*
X1668643Y-11407690D01*
X1678167Y-11398167D01*
X1697214Y-11388643D01*
X1716262Y-11388643D01*
X1782928Y-11521976D02*
X1782928Y-11388643D01*
X1782928Y-11321976D02*
X1773405Y-11331500D01*
X1782928Y-11341024D01*
X1792452Y-11331500D01*
X1782928Y-11321976D01*
X1782928Y-11341024D01*
X1906738Y-11521976D02*
X1887690Y-11512452D01*
X1878167Y-11493405D01*
X1878167Y-11321976D01*
X2011500Y-11521976D02*
X1992452Y-11512452D01*
X1982928Y-11493405D01*
X1982928Y-11321976D01*
X2240071Y-11521976D02*
X2240071Y-11321976D01*
X2306738Y-11464833D01*
X2373405Y-11321976D01*
X2373405Y-11521976D01*
X2554357Y-11521976D02*
X2554357Y-11417214D01*
X2544833Y-11398167D01*
X2525786Y-11388643D01*
X2487690Y-11388643D01*
X2468643Y-11398167D01*
X2554357Y-11512452D02*
X2535310Y-11521976D01*
X2487690Y-11521976D01*
X2468643Y-11512452D01*
X2459119Y-11493405D01*
X2459119Y-11474357D01*
X2468643Y-11455309D01*
X2487690Y-11445786D01*
X2535310Y-11445786D01*
X2554357Y-11436262D01*
X2649595Y-11388643D02*
X2649595Y-11588643D01*
X2649595Y-11398167D02*
X2668643Y-11388643D01*
X2706738Y-11388643D01*
X2725786Y-11398167D01*
X2735310Y-11407690D01*
X2744833Y-11426738D01*
X2744833Y-11483881D01*
X2735310Y-11502928D01*
X2725786Y-11512452D01*
X2706738Y-11521976D01*
X2668643Y-11521976D01*
X2649595Y-11512452D01*
X2830548Y-11502928D02*
X2840071Y-11512452D01*
X2830548Y-11521976D01*
X2821024Y-11512452D01*
X2830548Y-11502928D01*
X2830548Y-11521976D01*
X2830548Y-11398167D02*
X2840071Y-11407690D01*
X2830548Y-11417214D01*
X2821024Y-11407690D01*
X2830548Y-11398167D01*
X2830548Y-11417214D01*
D12*
X1125300Y-11813400D02*
X1201500Y-11889600D01*
X1201500Y-11813400D02*
X1125300Y-11889600D01*
D10*
X1497214Y-11741976D02*
X1516262Y-11741976D01*
X1535309Y-11751500D01*
X1544833Y-11761024D01*
X1554357Y-11780071D01*
X1563881Y-11818167D01*
X1563881Y-11865786D01*
X1554357Y-11903881D01*
X1544833Y-11922928D01*
X1535309Y-11932452D01*
X1516262Y-11941976D01*
X1497214Y-11941976D01*
X1478167Y-11932452D01*
X1468643Y-11922928D01*
X1459119Y-11903881D01*
X1449595Y-11865786D01*
X1449595Y-11818167D01*
X1459119Y-11780071D01*
X1468643Y-11761024D01*
X1478167Y-11751500D01*
X1497214Y-11741976D01*
X1649595Y-11922928D02*
X1659119Y-11932452D01*
X1649595Y-11941976D01*
X1640071Y-11932452D01*
X1649595Y-11922928D01*
X1649595Y-11941976D01*
X1725786Y-11741976D02*
X1859119Y-11741976D01*
X1773405Y-11941976D01*
X2021024Y-11741976D02*
X1982928Y-11741976D01*
X1963881Y-11751500D01*
X1954357Y-11761024D01*
X1935309Y-11789595D01*
X1925786Y-11827690D01*
X1925786Y-11903881D01*
X1935309Y-11922928D01*
X1944833Y-11932452D01*
X1963881Y-11941976D01*
X2001976Y-11941976D01*
X2021024Y-11932452D01*
X2030548Y-11922928D01*
X2040071Y-11903881D01*
X2040071Y-11856262D01*
X2030548Y-11837214D01*
X2021024Y-11827690D01*
X2001976Y-11818167D01*
X1963881Y-11818167D01*
X1944833Y-11827690D01*
X1935309Y-11837214D01*
X1925786Y-11856262D01*
X2116262Y-11761024D02*
X2125786Y-11751500D01*
X2144833Y-11741976D01*
X2192452Y-11741976D01*
X2211500Y-11751500D01*
X2221024Y-11761024D01*
X2230548Y-11780071D01*
X2230548Y-11799119D01*
X2221024Y-11827690D01*
X2106738Y-11941976D01*
X2230548Y-11941976D01*
X2316262Y-11941976D02*
X2316262Y-11808643D01*
X2316262Y-11827690D02*
X2325786Y-11818167D01*
X2344833Y-11808643D01*
X2373405Y-11808643D01*
X2392452Y-11818167D01*
X2401976Y-11837214D01*
X2401976Y-11941976D01*
X2401976Y-11837214D02*
X2411500Y-11818167D01*
X2430548Y-11808643D01*
X2459119Y-11808643D01*
X2478167Y-11818167D01*
X2487690Y-11837214D01*
X2487690Y-11941976D01*
X2582929Y-11941976D02*
X2582929Y-11808643D01*
X2582929Y-11827690D02*
X2592452Y-11818167D01*
X2611500Y-11808643D01*
X2640071Y-11808643D01*
X2659119Y-11818167D01*
X2668643Y-11837214D01*
X2668643Y-11941976D01*
X2668643Y-11837214D02*
X2678167Y-11818167D01*
X2697214Y-11808643D01*
X2725786Y-11808643D01*
X2744833Y-11818167D01*
X2754357Y-11837214D01*
X2754357Y-11941976D01*
X3144833Y-11732452D02*
X2973405Y-11989595D01*
X3401976Y-11741976D02*
X3421024Y-11741976D01*
X3440071Y-11751500D01*
X3449595Y-11761024D01*
X3459119Y-11780071D01*
X3468643Y-11818167D01*
X3468643Y-11865786D01*
X3459119Y-11903881D01*
X3449595Y-11922928D01*
X3440071Y-11932452D01*
X3421024Y-11941976D01*
X3401976Y-11941976D01*
X3382928Y-11932452D01*
X3373405Y-11922928D01*
X3363881Y-11903881D01*
X3354357Y-11865786D01*
X3354357Y-11818167D01*
X3363881Y-11780071D01*
X3373405Y-11761024D01*
X3382928Y-11751500D01*
X3401976Y-11741976D01*
X3554357Y-11922928D02*
X3563881Y-11932452D01*
X3554357Y-11941976D01*
X3544833Y-11932452D01*
X3554357Y-11922928D01*
X3554357Y-11941976D01*
X3687690Y-11741976D02*
X3706738Y-11741976D01*
X3725786Y-11751500D01*
X3735309Y-11761024D01*
X3744833Y-11780071D01*
X3754357Y-11818167D01*
X3754357Y-11865786D01*
X3744833Y-11903881D01*
X3735309Y-11922928D01*
X3725786Y-11932452D01*
X3706738Y-11941976D01*
X3687690Y-11941976D01*
X3668643Y-11932452D01*
X3659119Y-11922928D01*
X3649595Y-11903881D01*
X3640071Y-11865786D01*
X3640071Y-11818167D01*
X3649595Y-11780071D01*
X3659119Y-11761024D01*
X3668643Y-11751500D01*
X3687690Y-11741976D01*
X3821024Y-11741976D02*
X3944833Y-11741976D01*
X3878167Y-11818167D01*
X3906738Y-11818167D01*
X3925786Y-11827690D01*
X3935309Y-11837214D01*
X3944833Y-11856262D01*
X3944833Y-11903881D01*
X3935309Y-11922928D01*
X3925786Y-11932452D01*
X3906738Y-11941976D01*
X3849595Y-11941976D01*
X3830548Y-11932452D01*
X3821024Y-11922928D01*
X4068643Y-11741976D02*
X4087690Y-11741976D01*
X4106738Y-11751500D01*
X4116262Y-11761024D01*
X4125786Y-11780071D01*
X4135309Y-11818167D01*
X4135309Y-11865786D01*
X4125786Y-11903881D01*
X4116262Y-11922928D01*
X4106738Y-11932452D01*
X4087690Y-11941976D01*
X4068643Y-11941976D01*
X4049595Y-11932452D01*
X4040071Y-11922928D01*
X4030548Y-11903881D01*
X4021024Y-11865786D01*
X4021024Y-11818167D01*
X4030548Y-11780071D01*
X4040071Y-11761024D01*
X4049595Y-11751500D01*
X4068643Y-11741976D01*
X4259119Y-11741976D02*
X4278167Y-11741976D01*
X4297214Y-11751500D01*
X4306738Y-11761024D01*
X4316262Y-11780071D01*
X4325786Y-11818167D01*
X4325786Y-11865786D01*
X4316262Y-11903881D01*
X4306738Y-11922928D01*
X4297214Y-11932452D01*
X4278167Y-11941976D01*
X4259119Y-11941976D01*
X4240071Y-11932452D01*
X4230548Y-11922928D01*
X4221024Y-11903881D01*
X4211500Y-11865786D01*
X4211500Y-11818167D01*
X4221024Y-11780071D01*
X4230548Y-11761024D01*
X4240071Y-11751500D01*
X4259119Y-11741976D01*
X4401976Y-11741976D02*
X4401976Y-11780071D01*
X4478167Y-11741976D02*
X4478167Y-11780071D01*
X4773405Y-12018167D02*
X4763881Y-12008643D01*
X4744833Y-11980071D01*
X4735310Y-11961024D01*
X4725786Y-11932452D01*
X4716262Y-11884833D01*
X4716262Y-11846738D01*
X4725786Y-11799119D01*
X4735310Y-11770548D01*
X4744833Y-11751500D01*
X4763881Y-11722928D01*
X4773405Y-11713405D01*
X4935310Y-11808643D02*
X4935310Y-11941976D01*
X4887690Y-11732452D02*
X4840071Y-11875309D01*
X4963881Y-11875309D01*
X5125786Y-11808643D02*
X5125786Y-11941976D01*
X5078167Y-11732452D02*
X5030548Y-11875309D01*
X5154357Y-11875309D01*
X5382929Y-11941976D02*
X5382929Y-11741976D01*
X5468643Y-11941976D02*
X5468643Y-11837214D01*
X5459119Y-11818167D01*
X5440071Y-11808643D01*
X5411500Y-11808643D01*
X5392452Y-11818167D01*
X5382929Y-11827690D01*
X5592452Y-11941976D02*
X5573405Y-11932452D01*
X5563881Y-11922928D01*
X5554357Y-11903881D01*
X5554357Y-11846738D01*
X5563881Y-11827690D01*
X5573405Y-11818167D01*
X5592452Y-11808643D01*
X5621024Y-11808643D01*
X5640071Y-11818167D01*
X5649595Y-11827690D01*
X5659119Y-11846738D01*
X5659119Y-11903881D01*
X5649595Y-11922928D01*
X5640071Y-11932452D01*
X5621024Y-11941976D01*
X5592452Y-11941976D01*
X5773405Y-11941976D02*
X5754357Y-11932452D01*
X5744833Y-11913405D01*
X5744833Y-11741976D01*
X5925786Y-11932452D02*
X5906738Y-11941976D01*
X5868643Y-11941976D01*
X5849595Y-11932452D01*
X5840071Y-11913405D01*
X5840071Y-11837214D01*
X5849595Y-11818167D01*
X5868643Y-11808643D01*
X5906738Y-11808643D01*
X5925786Y-11818167D01*
X5935309Y-11837214D01*
X5935309Y-11856262D01*
X5840071Y-11875309D01*
X6011500Y-11932452D02*
X6030548Y-11941976D01*
X6068643Y-11941976D01*
X6087690Y-11932452D01*
X6097214Y-11913405D01*
X6097214Y-11903881D01*
X6087690Y-11884833D01*
X6068643Y-11875309D01*
X6040071Y-11875309D01*
X6021024Y-11865786D01*
X6011500Y-11846738D01*
X6011500Y-11837214D01*
X6021024Y-11818167D01*
X6040071Y-11808643D01*
X6068643Y-11808643D01*
X6087690Y-11818167D01*
X6163881Y-12018167D02*
X6173405Y-12008643D01*
X6192452Y-11980071D01*
X6201976Y-11961024D01*
X6211500Y-11932452D01*
X6221024Y-11884833D01*
X6221024Y-11846738D01*
X6211500Y-11799119D01*
X6201976Y-11770548D01*
X6192452Y-11751500D01*
X6173405Y-11722928D01*
X6163881Y-11713405D01*
D13*
X1201500Y-12115500D02*
G75*
G03*
X1201500Y-12115500I-55000J0D01*
G01*
D10*
X1563881Y-12205976D02*
X1449595Y-12205976D01*
X1506738Y-12205976D02*
X1506738Y-12005976D01*
X1487690Y-12034548D01*
X1468643Y-12053595D01*
X1449595Y-12063119D01*
X1649595Y-12186928D02*
X1659119Y-12196452D01*
X1649595Y-12205976D01*
X1640071Y-12196452D01*
X1649595Y-12186928D01*
X1649595Y-12205976D01*
X1849595Y-12205976D02*
X1735309Y-12205976D01*
X1792452Y-12205976D02*
X1792452Y-12005976D01*
X1773405Y-12034548D01*
X1754357Y-12053595D01*
X1735309Y-12063119D01*
X1973405Y-12005976D02*
X1992452Y-12005976D01*
X2011500Y-12015500D01*
X2021024Y-12025024D01*
X2030548Y-12044071D01*
X2040071Y-12082167D01*
X2040071Y-12129786D01*
X2030548Y-12167881D01*
X2021024Y-12186928D01*
X2011500Y-12196452D01*
X1992452Y-12205976D01*
X1973405Y-12205976D01*
X1954357Y-12196452D01*
X1944833Y-12186928D01*
X1935309Y-12167881D01*
X1925786Y-12129786D01*
X1925786Y-12082167D01*
X1935309Y-12044071D01*
X1944833Y-12025024D01*
X1954357Y-12015500D01*
X1973405Y-12005976D01*
X2163881Y-12005976D02*
X2182929Y-12005976D01*
X2201976Y-12015500D01*
X2211500Y-12025024D01*
X2221024Y-12044071D01*
X2230548Y-12082167D01*
X2230548Y-12129786D01*
X2221024Y-12167881D01*
X2211500Y-12186928D01*
X2201976Y-12196452D01*
X2182929Y-12205976D01*
X2163881Y-12205976D01*
X2144833Y-12196452D01*
X2135310Y-12186928D01*
X2125786Y-12167881D01*
X2116262Y-12129786D01*
X2116262Y-12082167D01*
X2125786Y-12044071D01*
X2135310Y-12025024D01*
X2144833Y-12015500D01*
X2163881Y-12005976D01*
X2316262Y-12205976D02*
X2316262Y-12072643D01*
X2316262Y-12091690D02*
X2325786Y-12082167D01*
X2344833Y-12072643D01*
X2373405Y-12072643D01*
X2392452Y-12082167D01*
X2401976Y-12101214D01*
X2401976Y-12205976D01*
X2401976Y-12101214D02*
X2411500Y-12082167D01*
X2430548Y-12072643D01*
X2459119Y-12072643D01*
X2478167Y-12082167D01*
X2487690Y-12101214D01*
X2487690Y-12205976D01*
X2582929Y-12205976D02*
X2582929Y-12072643D01*
X2582929Y-12091690D02*
X2592452Y-12082167D01*
X2611500Y-12072643D01*
X2640071Y-12072643D01*
X2659119Y-12082167D01*
X2668643Y-12101214D01*
X2668643Y-12205976D01*
X2668643Y-12101214D02*
X2678167Y-12082167D01*
X2697214Y-12072643D01*
X2725786Y-12072643D01*
X2744833Y-12082167D01*
X2754357Y-12101214D01*
X2754357Y-12205976D01*
X3144833Y-11996452D02*
X2973405Y-12253595D01*
X3401976Y-12005976D02*
X3421024Y-12005976D01*
X3440071Y-12015500D01*
X3449595Y-12025024D01*
X3459119Y-12044071D01*
X3468643Y-12082167D01*
X3468643Y-12129786D01*
X3459119Y-12167881D01*
X3449595Y-12186928D01*
X3440071Y-12196452D01*
X3421024Y-12205976D01*
X3401976Y-12205976D01*
X3382928Y-12196452D01*
X3373405Y-12186928D01*
X3363881Y-12167881D01*
X3354357Y-12129786D01*
X3354357Y-12082167D01*
X3363881Y-12044071D01*
X3373405Y-12025024D01*
X3382928Y-12015500D01*
X3401976Y-12005976D01*
X3554357Y-12186928D02*
X3563881Y-12196452D01*
X3554357Y-12205976D01*
X3544833Y-12196452D01*
X3554357Y-12186928D01*
X3554357Y-12205976D01*
X3687690Y-12005976D02*
X3706738Y-12005976D01*
X3725786Y-12015500D01*
X3735309Y-12025024D01*
X3744833Y-12044071D01*
X3754357Y-12082167D01*
X3754357Y-12129786D01*
X3744833Y-12167881D01*
X3735309Y-12186928D01*
X3725786Y-12196452D01*
X3706738Y-12205976D01*
X3687690Y-12205976D01*
X3668643Y-12196452D01*
X3659119Y-12186928D01*
X3649595Y-12167881D01*
X3640071Y-12129786D01*
X3640071Y-12082167D01*
X3649595Y-12044071D01*
X3659119Y-12025024D01*
X3668643Y-12015500D01*
X3687690Y-12005976D01*
X3925786Y-12072643D02*
X3925786Y-12205976D01*
X3878167Y-11996452D02*
X3830548Y-12139309D01*
X3954357Y-12139309D01*
X4011500Y-12005976D02*
X4135309Y-12005976D01*
X4068643Y-12082167D01*
X4097214Y-12082167D01*
X4116262Y-12091690D01*
X4125786Y-12101214D01*
X4135309Y-12120262D01*
X4135309Y-12167881D01*
X4125786Y-12186928D01*
X4116262Y-12196452D01*
X4097214Y-12205976D01*
X4040071Y-12205976D01*
X4021024Y-12196452D01*
X4011500Y-12186928D01*
X4201976Y-12005976D02*
X4325786Y-12005976D01*
X4259119Y-12082167D01*
X4287690Y-12082167D01*
X4306738Y-12091690D01*
X4316262Y-12101214D01*
X4325786Y-12120262D01*
X4325786Y-12167881D01*
X4316262Y-12186928D01*
X4306738Y-12196452D01*
X4287690Y-12205976D01*
X4230548Y-12205976D01*
X4211500Y-12196452D01*
X4201976Y-12186928D01*
X4401976Y-12005976D02*
X4401976Y-12044071D01*
X4478167Y-12005976D02*
X4478167Y-12044071D01*
X4773405Y-12282167D02*
X4763881Y-12272643D01*
X4744833Y-12244071D01*
X4735310Y-12225024D01*
X4725786Y-12196452D01*
X4716262Y-12148833D01*
X4716262Y-12110738D01*
X4725786Y-12063119D01*
X4735310Y-12034548D01*
X4744833Y-12015500D01*
X4763881Y-11986928D01*
X4773405Y-11977405D01*
X4840071Y-12025024D02*
X4849595Y-12015500D01*
X4868643Y-12005976D01*
X4916262Y-12005976D01*
X4935310Y-12015500D01*
X4944833Y-12025024D01*
X4954357Y-12044071D01*
X4954357Y-12063119D01*
X4944833Y-12091690D01*
X4830548Y-12205976D01*
X4954357Y-12205976D01*
X5192452Y-12205976D02*
X5192452Y-12005976D01*
X5278167Y-12205976D02*
X5278167Y-12101214D01*
X5268643Y-12082167D01*
X5249595Y-12072643D01*
X5221024Y-12072643D01*
X5201976Y-12082167D01*
X5192452Y-12091690D01*
X5401976Y-12205976D02*
X5382929Y-12196452D01*
X5373405Y-12186928D01*
X5363881Y-12167881D01*
X5363881Y-12110738D01*
X5373405Y-12091690D01*
X5382929Y-12082167D01*
X5401976Y-12072643D01*
X5430548Y-12072643D01*
X5449595Y-12082167D01*
X5459119Y-12091690D01*
X5468643Y-12110738D01*
X5468643Y-12167881D01*
X5459119Y-12186928D01*
X5449595Y-12196452D01*
X5430548Y-12205976D01*
X5401976Y-12205976D01*
X5582929Y-12205976D02*
X5563881Y-12196452D01*
X5554357Y-12177405D01*
X5554357Y-12005976D01*
X5735309Y-12196452D02*
X5716262Y-12205976D01*
X5678167Y-12205976D01*
X5659119Y-12196452D01*
X5649595Y-12177405D01*
X5649595Y-12101214D01*
X5659119Y-12082167D01*
X5678167Y-12072643D01*
X5716262Y-12072643D01*
X5735309Y-12082167D01*
X5744833Y-12101214D01*
X5744833Y-12120262D01*
X5649595Y-12139309D01*
X5821024Y-12196452D02*
X5840071Y-12205976D01*
X5878167Y-12205976D01*
X5897214Y-12196452D01*
X5906738Y-12177405D01*
X5906738Y-12167881D01*
X5897214Y-12148833D01*
X5878167Y-12139309D01*
X5849595Y-12139309D01*
X5830548Y-12129786D01*
X5821024Y-12110738D01*
X5821024Y-12101214D01*
X5830548Y-12082167D01*
X5849595Y-12072643D01*
X5878167Y-12072643D01*
X5897214Y-12082167D01*
X5973405Y-12282167D02*
X5982928Y-12272643D01*
X6001976Y-12244071D01*
X6011500Y-12225024D01*
X6021024Y-12196452D01*
X6030548Y-12148833D01*
X6030548Y-12110738D01*
X6021024Y-12063119D01*
X6011500Y-12034548D01*
X6001976Y-12015500D01*
X5982928Y-11986928D01*
X5973405Y-11977405D01*
M02*
